<svg width="26" height="23" viewBox="0 0 26 23" fill="none" xmlns="http://www.w3.org/2000/svg">
<path d="M24.3031 21.3674C24.3031 18.1012 24.3031 16.5906 24.3031 13.3364H18.584C18.2552 13.3364 18.2611 12.4646 18.537 12.4646C20.5276 12.4646 22.5239 12.4646 24.5145 12.4646C25.0488 12.4646 25.1545 12.3571 25.1545 11.8138C25.1545 10.118 25.1545 8.42225 25.1545 6.73246C25.1545 6.17715 25.0547 6.07565 24.4968 6.07565C20.6626 6.07565 16.8342 6.07565 13 6.07565C9.14228 6.07565 5.28455 6.07565 1.42683 6.07565C0.962963 6.07565 0.839657 6.20104 0.839657 6.67275C0.839657 8.40434 0.839657 10.13 0.839657 11.8615C0.839657 12.3452 0.962963 12.4646 1.44444 12.4646C3.31753 12.4646 5.19648 12.4646 7.06956 12.4646C7.48058 12.4646 7.52755 13.3364 7.10479 13.3364H1.69693C1.69693 16.6085 1.69693 18.1251 1.69693 21.3733C3.93406 21.3733 22.0894 21.3733 24.3031 21.3733V21.3674ZM0.839657 22.2212V21.851C0.839657 18.5132 0.839657 16.913 0.839657 13.5752C0.839657 13.5036 0.8514 13.4379 0.839657 13.3722C0.827913 13.3125 0.798555 13.2289 0.751581 13.211C0.352304 13.0259 0.13505 12.6915 0 12.2915V6.24881C0.258356 5.4666 0.81617 5.19791 1.60298 5.20985C3.21183 5.23971 22.9702 5.20985 24.6436 5.22179C25.4246 5.22179 25.9824 5.74127 25.9883 6.49959C26 8.35657 25.9941 10.2135 25.9883 12.0765C25.9883 12.5422 25.771 12.9124 25.3717 13.1334C25.1897 13.2349 25.1486 13.3424 25.1486 13.5334C25.1486 16.8951 25.1486 18.5252 25.1486 21.8869V22.2511C22.6179 22.2511 3.34688 22.2332 0.833785 22.2332L0.839657 22.2212Z" fill="white"/>
<path d="M6.01857 19.5283V20.3404H2.70105V19.5283H6.01857Z" fill="white"/>
<path d="M5.17892 17.9221V18.7342H2.70105V17.9221H5.17892Z" fill="white"/>
<path d="M13 19.1223C16.1521 19.1223 18.7074 16.5238 18.7074 13.3185C18.7074 10.1131 16.1521 7.51465 13 7.51465C9.84798 7.51465 7.29272 10.1131 7.29272 13.3185C7.29272 16.5238 9.84798 19.1223 13 19.1223Z" stroke="white" stroke-width="1.5" stroke-miterlimit="10"/>
<path d="M14.4151 13.2109C14.4151 13.2109 15.2607 12.4645 15.2372 11.6346C15.2196 11.0434 14.9788 10.6732 14.7381 10.4463C14.5326 10.2553 14.2566 10.1478 13.9748 10.1478L10.7688 10.1299" stroke="white" stroke-miterlimit="10" stroke-linecap="round"/>
<path d="M10.7394 10.1836L10.7922 16.0889C10.7922 16.268 10.9331 16.4113 11.1093 16.4113L14.3564 16.4531C14.7674 16.4531 15.1667 16.3158 15.4779 16.0471C15.7656 15.7963 16.0474 15.4321 16.0474 14.9544C16.0474 13.8438 15.2195 13.396 14.6734 13.3124C14.1274 13.2288 10.8803 13.3124 10.8803 13.3124" stroke="white" stroke-miterlimit="10" stroke-linecap="round"/>
<path d="M11.7552 16.5488V17.5161" stroke="white" stroke-miterlimit="10" stroke-linecap="round"/>
<path d="M11.7552 9.15674V10.0046" stroke="white" stroke-miterlimit="10" stroke-linecap="round"/>
<path d="M13.6283 16.5188V17.4801" stroke="white" stroke-miterlimit="10" stroke-linecap="round"/>
<path d="M13.6283 9.12085V10.1538" stroke="white" stroke-miterlimit="10" stroke-linecap="round"/>
<path d="M8.1499 5.20948V2.37923C8.1499 1.86572 8.56092 1.44775 9.06589 1.44775H16.9399C17.4448 1.44775 17.8559 1.86572 17.8559 2.37923V5.20948" stroke="white" stroke-width="1.5" stroke-miterlimit="10"/>
</svg>
