<?xml version="1.0" encoding="UTF-8"?>
<svg xmlns="http://www.w3.org/2000/svg" viewBox="0 0 140.48 140.48">
  <defs>
    <style>
      .cls-1 {
        fill: #fff;
      }

      .cls-2 {
        fill: none;
        stroke: #fff;
        stroke-miterlimit: 10;
        stroke-width: 3px;
      }
    </style>
  </defs>
  <g id="_лой_1" data-name="Слой 1"/>
  <g id="_лой_2" data-name="Слой 2">
    <g id="_лой_1-2" data-name="Слой 1">
      <g>
        <path class="cls-1" d="M60.76,75.37c-.46,0-.81,0-1.15,0-2.82,0-5.64,0-8.45,0-1.85,0-2.34-.47-2.35-2.28-.02-3.89-.02-7.77,0-11.66,.01-1.82,.51-2.28,2.34-2.29,2.82,0,5.64,0,8.45,0,.35,0,.7,0,1.16,0,0-.47,0-.85,0-1.23,.07-3.69-.07-7.4,.25-11.07,.79-9.24,7.87-15.92,17.15-16.28,3.88-.15,7.77-.06,11.66-.05,1.29,0,1.85,.55,1.86,1.84,.02,3.85,.02,7.71,0,11.56,0,1.32-.54,1.84-1.94,1.87-2.62,.06-5.25,.07-7.87,.11-3.05,.05-4.25,1.2-4.31,4.24-.05,2.88-.01,5.76-.01,8.75,.4,.02,.74,.05,1.08,.05,3.37,0,6.74,0,10.11,0,2.08,0,2.57,.5,2.57,2.59,0,3.82,0,7.65,0,11.47,0,1.8-.44,2.25-2.23,2.26-3.43,.01-6.87,0-10.3,0-.35,0-.71,0-1.21,0,0,.47,0,.88,0,1.29,0,10.17,0,20.34,0,30.52,0,2.61-.35,2.96-2.97,2.96-3.66,0-7.32,0-10.98,0-2.46,0-2.83-.37-2.83-2.79,0-10.2,0-20.41,0-30.61v-1.25Z"/>
        <circle class="cls-2" cx="70.24" cy="70.24" r="68.74"/>
      </g>
    </g>
  </g>
</svg>