<?xml version="1.0" encoding="UTF-8"?>
<svg xmlns="http://www.w3.org/2000/svg" viewBox="0 0 140.48 140.48">
  <defs>
    <style>
      .cls-1 {
        fill: #fff;
      }

      .cls-2 {
        fill: none;
        stroke: #fff;
        stroke-miterlimit: 10;
        stroke-width: 3px;
      }
    </style>
  </defs>
  <g id="_лой_1" data-name="Слой 1"/>
  <g id="_лой_2" data-name="Слой 2">
    <g id="_лой_1-2" data-name="Слой 1">
      <g>
        <path class="cls-1" d="M30,66.46c.35-1.5,1.38-2.28,2.75-2.82,24.18-9.6,48.36-19.23,72.54-28.85,.32-.13,.63-.27,.95-.37,2.41-.77,4.64,1.19,4.17,3.68-2.73,14.34-5.47,28.68-8.2,43.02-1.39,7.27-2.78,14.55-4.14,21.82-.26,1.36-.76,2.51-2.14,3.06-1.22,.48-2.3,.11-3.33-.59-6.19-4.21-12.39-8.41-18.59-12.61q-1.25-.85-2.49,.05c-3.06,2.2-6.12,4.41-9.18,6.6-2.39,1.71-4.74,.89-5.48-1.93-1.72-6.5-3.44-12.99-5.14-19.5-.14-.52-.39-.77-.87-.96-6.04-2.29-12.06-4.62-18.11-6.9-1.37-.52-2.35-1.32-2.73-2.76v-.94Zm37.17,14c8.48,5.75,16.89,11.46,25.4,17.22,3.24-17.01,6.46-33.88,9.67-50.75l-.15-.07c-11.62,11.18-23.23,22.35-34.91,33.6Zm26.02-33.76l-.14-.18c-16.97,6.75-33.95,13.51-51.07,20.32,.34,.14,.51,.21,.68,.28,4.08,1.56,8.15,3.14,12.24,4.68,1.34,.5,2.15,1.38,2.48,2.79,.41,1.73,.9,3.44,1.37,5.16,.04,.15,.12,.29,.13,.3,.49-.63,.92-1.32,1.49-1.87,10.65-10.28,21.32-20.53,31.99-30.79,.26-.25,.55-.45,.83-.68Zm-26.05,41.45l-7.53-5.13,2.34,8.86,5.19-3.73Z"/>
        <circle class="cls-2" cx="70.24" cy="70.24" r="68.74"/>
      </g>
    </g>
  </g>
</svg>