<?xml version="1.0" encoding="UTF-8"?>
<svg xmlns="http://www.w3.org/2000/svg" viewBox="0 0 140.48 140.48">
  <defs>
    <style>
      .cls-1 {
        fill: #fff;
      }

      .cls-2 {
        fill: none;
        stroke: #fff;
        stroke-miterlimit: 10;
        stroke-width: 3px;
      }
    </style>
  </defs>
  <g id="_лой_1" data-name="Слой 1"/>
  <g id="_лой_2" data-name="Слой 2">
    <g id="_лой_1-2" data-name="Слой 1">
      <g>
        <path class="cls-1" d="M99.22,38.55c-3.38,3.94-6.77,7.89-10.15,11.83-4.17,4.85-8.34,9.69-12.51,14.54-.12,.14-.24,.28-.4,.48,8.34,12.14,16.68,24.27,25.07,36.48-.23,.02-.38,.04-.53,.04-5.8,0-11.59,0-17.39,.01-.41,0-.62-.14-.84-.47-5.37-7.84-10.76-15.67-16.14-23.5-.14-.2-.28-.4-.45-.64-1.58,1.83-3.11,3.61-4.64,5.39-5.39,6.27-10.78,12.54-16.19,18.8-.18,.21-.54,.38-.82,.39-1.61,.04-3.21,.02-4.98,.02,8.11-9.43,16.14-18.77,24.19-28.12-.12-.18-.22-.35-.34-.52-7.78-11.33-15.57-22.66-23.35-34-.16-.24-.3-.49-.45-.73,6.15,0,12.29,0,18.44,0,.05,.09,.09,.19,.15,.27,5.19,7.56,10.39,15.12,15.58,22.68,.08,.11,.14,.24,.22,.38,6.76-7.86,13.42-15.59,20.07-23.33h5.45Zm-5.49,59.4c-.19-.29-.32-.48-.45-.66-3.34-4.78-6.68-9.56-10.02-14.34-9.23-13.21-18.47-26.41-27.69-39.63-.35-.5-.71-.68-1.31-.67-2.29,.04-4.58,.01-6.87,.02-.19,0-.39,.02-.65,.04,.14,.22,.24,.38,.34,.53,12.66,18.11,25.32,36.21,37.97,54.33,.23,.33,.46,.45,.86,.45,2.39-.02,4.78,0,7.18-.01,.18,0,.36-.02,.64-.04Z"/>
        <circle class="cls-2" cx="70.24" cy="70.24" r="68.74"/>
      </g>
    </g>
  </g>
</svg>