<?xml version="1.0" encoding="UTF-8"?>
<svg xmlns="http://www.w3.org/2000/svg" viewBox="0 0 140.48 140.48">
  <defs>
    <style>
      .cls-1 {
        fill: #fff;
      }

      .cls-2 {
        fill: none;
        stroke: #fff;
        stroke-miterlimit: 10;
        stroke-width: 3px;
      }
    </style>
  </defs>
  <g id="_лой_1" data-name="Слой 1"/>
  <g id="_лой_2" data-name="Слой 2">
    <g id="_лой_1-2" data-name="Слой 1">
      <g>
        <path class="cls-1" d="M111.85,77.83c-.11,1.67-.22,3.34-.32,5.01-.16,2.54-.34,5.07-.98,7.55-1.42,5.48-4.65,9.11-10.36,10.09-2.26,.39-4.58,.47-6.87,.55-7.49,.26-14.99,.67-22.48,.6-9.25-.08-18.5-.53-27.75-.91-2.77-.12-5.47-.72-7.85-2.29-2.91-1.91-4.43-4.72-5.27-7.99-1.03-4.05-1.05-8.21-1.18-12.34-.26-8.17-.28-16.35,.54-24.5,.33-3.27,1.16-6.46,3.25-9.13,2.06-2.62,4.79-4.29,8.1-4.61,4.33-.42,8.69-.72,13.04-.8,8.74-.17,17.48-.27,26.22-.18,6.19,.07,12.39,.43,18.57,.8,3.99,.24,7.37,1.87,9.8,5.15,1.43,1.93,2.2,4.18,2.51,6.52,.41,3.1,.58,6.24,.86,9.36,.06,.67,.11,1.34,.16,2.01v15.11Zm-39.78-34.37c-7.66,.18-13.48,.28-19.29,.48-3.54,.12-7.09,.29-10.62,.61-3.4,.3-5.85,1.98-7.02,5.36-.83,2.42-1.1,4.9-1.24,7.41-.49,8.6-.53,17.21,.02,25.81,.14,2.2,.5,4.4,.95,6.56,.29,1.42,.89,2.77,2,3.82,1.45,1.38,3.23,1.97,5.14,2.15,2.85,.28,5.71,.52,8.58,.63,13.09,.52,26.19,.65,39.29,.03,3.13-.15,6.28-.29,9.39-.66,2.87-.34,4.89-1.93,5.96-4.72,1.02-2.65,1.27-5.41,1.43-8.19,.43-7.39,.46-14.77,.14-22.16-.15-3.32-.12-6.67-1.09-9.9-.51-1.7-1.17-3.29-2.67-4.43-1.77-1.35-3.82-1.78-5.94-1.87-8.95-.37-17.9-.69-25.02-.95Z"/>
        <path class="cls-1" d="M60.68,70.26c0-3.19,0-6.39,0-9.58,0-3.13,2.6-4.67,5.36-3.16,5.89,3.21,11.77,6.43,17.64,9.67,2.25,1.24,2.79,3.66,1.2,5.41-.34,.37-.79,.67-1.23,.91-5.88,3.17-11.76,6.34-17.65,9.49-2.77,1.48-5.32-.07-5.33-3.22,0-3.17,0-6.34,0-9.5Zm4.89,7.43l13.71-7.37c-4.62-2.53-9.13-4.99-13.71-7.5v14.88Z"/>
        <circle class="cls-2" cx="70.24" cy="70.24" r="68.74"/>
      </g>
    </g>
  </g>
</svg>