<?xml version="1.0" encoding="UTF-8"?>
<svg xmlns="http://www.w3.org/2000/svg" viewBox="0 0 866.06 784.18">
  <defs>
    <style>
      .cls-1 {
        fill: #f7931a;
      }
    </style>
  </defs>
  <g id="_лой_1" data-name="Слой 1"/>
  <g id="_лой_2" data-name="Слой 2">
    <g id="_лой_1-2" data-name="Слой 1">
      <g>
        <g>
          <path d="M45.81,430.37c0-4.66,.02-8.4,0-12.15-.09-14.67,8.1-22.89,22.67-22.82,10.31,.05,20.62,0,32,0,0-12.75-.02-24.67,0-36.59,.04-21.66,6.76-28.38,28.37-28.38,55.45,0,110.91,.02,166.36,.01,16.68,0,24.54,7.85,24.57,24.58,.01,6.55,.11,13.1,.11,19.65,0,5.56,.32,12.16-7.38,12.12-7.21-.04-6.87-6.39-6.92-11.66-.06-7.1-.39-14.21-.06-21.28,.32-6.8-2.63-9.21-9.21-9.19-47.26,.14-94.52,.1-141.78,.11-10.38,0-20.76,0-31.14-.04-4.61-.02-8.38,1.25-8.43,6.63-.14,14.39-.05,28.78-.05,44.15,10.57,0,20.32,0,30.08,0,68.57,0,137.13-.03,205.7,.01,16.65,0,23.52,7.06,23.73,24.02,.04,3.21,0,6.42,0,10.96,6.46,0,12.1-.08,17.73,.02,17.31,.3,28.14,11.06,28.15,28.28,.06,67.15,.06,134.29,0,201.44-.01,16.8-10.35,27.6-27.26,28.53-5.91,.32-11.84,.05-18.58,.05,0,5.07,.05,9.09,0,13.11-.19,13.7-8.19,21.81-21.97,21.83-50.27,.05-100.53-.04-150.8-.04-42.89,0-85.78,.08-128.67,.06-21-.01-26.58-5.54-27.15-26.51-.07-2.41-.24-4.81-.44-8.55-5.76,0-11.13,.1-16.49-.02-18.45-.43-28.95-10.96-28.96-29.19-.04-66.6-.04-133.2,0-199.8,0-18.16,10.8-29.05,28.91-29.33,5.38-.08,10.75-.01,16.88-.01Zm164.42,279.63c46.15,0,92.3,.01,138.46,0,11.11,0,12.06-.99,12.06-12.23,0-25.1-.06-50.2-.06-75.3,0-67.12,.03-134.23,.03-201.35,0-10.55-1.23-11.77-11.72-11.83-8.47-.05-16.93,0-25.4,0-84.38,0-168.77,.03-253.15-.1-6.83-.01-10.85,1.44-10.84,9.42,.15,92.76,.1,185.52,.18,278.28,.01,12.71,.56,13.11,13.64,13.11,45.61,.02,91.21,0,136.82,.01Zm-165-35.56v-229.79c-5.32,0-9.94,0-14.57,0-12.87,0-16.94,4.1-16.96,17.26-.03,21.01,0,42.02,0,63.03,.02,44.75,.02,89.5,.08,134.25,.01,10.61,4.25,14.96,14.72,15.22,5.42,.13,10.85,.02,16.72,.02Zm329.87-229.64v229.78c5.01,0,9.35,.01,13.68,0,13.99-.06,17.84-3.88,17.86-18.08,.05-34.92,.04-69.85,.02-104.78,0-30.29-.02-60.57-.09-90.86-.03-12.14-4-15.98-16.26-16.06-4.89-.03-9.78,0-15.21,0Z"/>
          <path class="cls-1" d="M292.45,469.82c2.71-3.38,5.19-8,9.03-10.72,.42-.3,.9-.52,1.41-.69,5.13-1.65,10.04,3.4,8.42,8.54-.18,.58-.42,1.11-.74,1.59-2.47,3.72-6.79,6.21-10.33,9.24,5.39,7.93,10.02,14.58,14.48,21.35,2.66,4.04,3.66,8.44-1.31,11.32-4.94,2.86-8-.33-10.64-4.36-3.69-5.63-7.67-11.06-11.28-16.22-9.3,9.11-17.99,17.62-26.93,26.38,20.4,28.81,19.78,58-.27,87.42,8.93,8.34,17.68,16.5,26.97,25.18,9.56-9.64,16.6-22.21,20.32-36.14,2.99-11.2,3.98-22.98,5.2-34.57,.54-5.17,.39-10.78,6.79-11.09,7.15-.34,7.68,5.72,7.65,11.09-.19,30.62-10.01,57.75-30.62,81.77,2.39,2.52,4.78,5,7.12,7.51,3.75,4.03,10.35,7.99,4.02,14.03-6.26,5.97-10.17-.76-14.03-4.58-2.12-2.1-3.63-4.8-5.38-7.18-55.06,40.92-108.67,41.33-163.96,.12-2.53,2.92-5.46,6.42-8.53,9.81-3.24,3.58-7.2,5.77-11.32,1.9-4.59-4.32-1.99-8.4,1.7-11.87,3.16-2.97,6.46-5.79,9.54-8.54-40.93-54.4-40.85-107.97-.71-162.18-3.4-3.56-7.66-6.83-10.22-11.12-.4-.67-.61-1.45-.7-2.29-.55-4.85,3.81-9.01,8.52-7.75,.47,.13,.9,.3,1.29,.55,4.27,2.69,7.61,6.86,11.31,10.38,53.98-40.01,107.61-40.29,163.19,1.15Zm-12.35,9.42c-40.76-37.17-106.76-32.91-138.85-.09,8.57,8.63,17.13,17.25,25.8,25.97,29.02-20.15,58.24-19.71,86.1-.24,9.28-8.83,17.93-17.06,26.95-25.64Zm-150.08,10.54c-37.84,40.53-32.86,107.2-.58,138.53,8.63-8.54,17.26-17.07,26.05-25.76-19.85-28.62-19.67-57.75,.35-86.42-8.72-8.9-17.06-17.41-25.81-26.35Zm10.69,150.4c43.53,40.43,112.55,29.11,137.74,.31-8.13-8.95-16.18-17.8-24.29-26.72-29.55,20.08-58.78,20.36-87.72,.06-8.66,8.86-17.01,17.41-25.74,26.35Zm79.79-79.43c5.4,5.21,11.1,10.32,16.33,15.87,5.35,5.66,10.25,11.75,15.51,17.84,17.14-20.86,17.01-50.07,1.95-67.14-10.95,10.83-21.92,21.69-33.8,33.44Zm21.58,43.37c-10.98-11.47-21.64-22.61-31.46-32.88-10.9,10.99-21.74,21.91-32.52,32.78,17.53,14.76,46.51,14.74,63.98,.1Zm.54-88.27c-15.77-16.33-52.47-14.55-64.07-.26,10.99,10.94,21.89,21.78,32.44,32.29,10.22-10.35,20.92-21.19,31.62-32.03Zm-76.08,11.45c-15.79,16.33-15.6,50.99-1.16,63.59,11.46-10.54,22.79-20.98,33.47-30.8-10.98-11.14-21.65-21.97-32.31-32.8Z"/>
          <circle class="cls-1" cx="169.99" cy="370" r="10.86"/>
          <circle class="cls-1" cx="213.29" cy="370" r="10.86"/>
          <circle class="cls-1" cx="254.55" cy="370" r="10.86"/>
        </g>
        <g>
          <path d="M491.48,102.89c0-4.66,.02-8.4,0-12.15-.09-14.67,8.1-22.89,22.67-22.82,10.31,.05,20.62,0,32,0,0-12.75-.02-24.67,0-36.59,.04-21.66,6.76-28.38,28.37-28.38,55.45,0,110.91,.02,166.36,.01,16.68,0,24.54,7.85,24.57,24.58,.01,6.55,.11,13.1,.11,19.65,0,5.56,.32,12.16-7.38,12.12-7.21-.04-6.87-6.39-6.92-11.66-.06-7.1-.39-14.21-.06-21.28,.32-6.8-2.63-9.21-9.21-9.19-47.26,.14-94.52,.1-141.78,.11-10.38,0-20.76,0-31.14-.04-4.61-.02-8.38,1.25-8.43,6.63-.14,14.39-.05,28.78-.05,44.15,10.57,0,20.32,0,30.08,0,68.57,0,137.13-.03,205.7,.01,16.65,0,23.52,7.06,23.73,24.02,.04,3.21,0,6.42,0,10.96,6.46,0,12.1-.08,17.73,.02,17.31,.3,28.14,11.06,28.15,28.28,.06,67.15,.06,134.29,0,201.44-.01,16.8-10.35,27.6-27.26,28.53-5.91,.32-11.84,.05-18.58,.05,0,5.07,.05,9.09,0,13.11-.19,13.7-8.19,21.81-21.97,21.83-50.27,.05-100.53-.04-150.8-.04-42.89,0-85.78,.08-128.67,.06-21-.01-26.58-5.54-27.15-26.51-.07-2.41-.24-4.81-.44-8.55-5.76,0-11.13,.1-16.49-.02-18.45-.43-28.95-10.96-28.96-29.19-.04-66.6-.04-133.2,0-199.8,0-18.16,10.8-29.05,28.91-29.33,5.38-.08,10.75-.01,16.88-.01Zm164.42,279.63c46.15,0,92.3,.01,138.46,0,11.11,0,12.06-.99,12.06-12.23,0-25.1-.06-50.2-.06-75.3,0-67.12,.03-134.23,.03-201.35,0-10.55-1.23-11.77-11.72-11.83-8.47-.05-16.93,0-25.4,0-84.38,0-168.77,.03-253.15-.1-6.83-.01-10.85,1.44-10.84,9.42,.15,92.76,.1,185.52,.18,278.28,.01,12.71,.56,13.11,13.64,13.11,45.61,.02,91.21,0,136.82,.01Zm-165-35.56V117.17c-5.32,0-9.94,0-14.57,0-12.87,0-16.94,4.1-16.96,17.26-.03,21.01,0,42.02,0,63.03,.02,44.75,.02,89.5,.08,134.25,.01,10.61,4.25,14.96,14.72,15.22,5.42,.13,10.85,.02,16.72,.02ZM820.78,117.32v229.78c5.01,0,9.35,.01,13.68,0,13.99-.06,17.84-3.88,17.86-18.08,.05-34.92,.04-69.85,.02-104.78,0-30.29-.02-60.57-.09-90.86-.03-12.14-4-15.98-16.26-16.06-4.89-.03-9.78,0-15.21,0Z"/>
          <path class="cls-1" d="M738.12,142.33c2.71-3.38,5.19-8,9.03-10.72,.42-.3,.9-.52,1.41-.69,5.13-1.65,10.04,3.4,8.42,8.54-.18,.58-.42,1.11-.74,1.59-2.47,3.72-6.79,6.21-10.33,9.24,5.39,7.93,10.02,14.58,14.48,21.35,2.66,4.04,3.66,8.44-1.31,11.32-4.94,2.86-8-.33-10.64-4.36-3.69-5.63-7.67-11.06-11.28-16.22-9.3,9.11-17.99,17.62-26.93,26.38,20.4,28.81,19.78,58-.27,87.42,8.93,8.34,17.68,16.5,26.97,25.18,9.56-9.64,16.6-22.21,20.32-36.14,2.99-11.2,3.98-22.98,5.2-34.57,.54-5.17,.39-10.78,6.79-11.09,7.15-.34,7.68,5.72,7.65,11.09-.19,30.62-10.01,57.75-30.62,81.77,2.39,2.52,4.78,5,7.12,7.51,3.75,4.03,10.35,7.99,4.02,14.03-6.26,5.97-10.17-.76-14.03-4.58-2.12-2.1-3.63-4.8-5.38-7.18-55.06,40.92-108.67,41.33-163.96,.12-2.53,2.92-5.46,6.42-8.53,9.81-3.24,3.58-7.2,5.77-11.32,1.9-4.59-4.32-1.99-8.4,1.7-11.87,3.16-2.97,6.46-5.79,9.54-8.54-40.93-54.4-40.85-107.97-.71-162.18-3.4-3.56-7.66-6.83-10.22-11.12-.4-.67-.61-1.45-.7-2.29-.55-4.85,3.81-9.01,8.52-7.75,.47,.13,.9,.3,1.29,.55,4.27,2.69,7.61,6.86,11.31,10.38,53.98-40.01,107.61-40.29,163.19,1.15Zm-12.35,9.42c-40.76-37.17-106.76-32.91-138.85-.09,8.57,8.63,17.13,17.25,25.8,25.97,29.02-20.15,58.24-19.71,86.1-.24,9.28-8.83,17.93-17.06,26.95-25.64Zm-150.08,10.54c-37.84,40.53-32.86,107.2-.58,138.53,8.63-8.54,17.26-17.07,26.05-25.76-19.85-28.62-19.67-57.75,.35-86.42-8.72-8.9-17.06-17.41-25.81-26.35Zm10.69,150.4c43.53,40.43,112.55,29.11,137.74,.31-8.13-8.95-16.18-17.8-24.29-26.72-29.55,20.08-58.78,20.36-87.72,.06-8.66,8.86-17.01,17.41-25.74,26.35Zm79.79-79.43c5.4,5.21,11.1,10.32,16.33,15.87,5.35,5.66,10.25,11.75,15.51,17.84,17.14-20.86,17.01-50.07,1.95-67.14-10.95,10.83-21.92,21.69-33.8,33.44Zm21.58,43.37c-10.98-11.47-21.64-22.61-31.46-32.88-10.9,10.99-21.74,21.91-32.52,32.78,17.53,14.76,46.51,14.74,63.98,.1Zm.54-88.27c-15.77-16.33-52.47-14.55-64.07-.26,10.99,10.94,21.89,21.78,32.44,32.29,10.22-10.35,20.92-21.19,31.62-32.03Zm-76.08,11.45c-15.79,16.33-15.6,50.99-1.16,63.59,11.46-10.54,22.79-20.98,33.47-30.8-10.98-11.14-21.65-21.97-32.31-32.8Z"/>
          <circle class="cls-1" cx="615.66" cy="42.52" r="10.86"/>
          <circle class="cls-1" cx="658.96" cy="42.52" r="10.86"/>
          <circle class="cls-1" cx="700.22" cy="42.52" r="10.86"/>
        </g>
        <g>
          <path d="M786.19,472.61c-2.5,0-4.96-1.18-6.5-3.38-2.52-3.59-1.65-8.54,1.94-11.06,.16-.11,17.79-12.88,17.46-30.75,0-5,3.29-9.22,8-10.4,4.7-1.18,9.58,.98,11.87,5.25,9.75,18.16,19.4,26.58,22.89,26.58,.03,0,.08,0,.12,0,4.34,0,7.88,3.49,7.94,7.84,.05,4.38-3.46,7.98-7.84,8.03h-.2c-11.28,0-21.71-11.2-29.3-22.36-5.97,17.49-21.01,28.24-21.81,28.8-1.39,.97-2.98,1.44-4.55,1.44Z"/>
          <path d="M439.06,784.18c-5.64,0-10.21-4.57-10.21-10.21s4.57-10.21,10.21-10.21c186.07,0,342.93-139.11,364.87-323.59,.67-5.6,5.75-9.57,11.34-8.93,5.6,.67,9.59,5.74,8.93,11.34-23.16,194.74-188.74,341.59-385.14,341.59Z"/>
        </g>
        <g>
          <path d="M78.16,353c-3.97,0-7.68-2.25-9.48-5.94-9.05-18.57-18.39-27.37-21.85-27.46-4.38-.12-7.84-3.77-7.72-8.15,.12-4.38,3.81-7.86,8.15-7.72,11.35,.31,21.41,11.98,28.6,23.5,6.65-17.24,22.1-27.39,22.92-27.92,3.68-2.37,8.6-1.32,10.97,2.37,2.38,3.69,1.32,8.6-2.37,10.97-.16,.1-18.28,12.17-18.65,30.04-.19,4.99-3.64,9.08-8.39,10.08-.73,.15-1.46,.23-2.18,.23Z"/>
          <path d="M74.32,338.36c-.53,0-1.07-.04-1.61-.13-5.57-.88-9.36-6.11-8.48-11.68C95.01,132.87,266.14-7.47,462.46,.31c5.63,.22,10.02,4.97,9.8,10.6-.22,5.63-4.95,10.05-10.6,9.8C275.78,13.42,113.54,146.27,84.39,329.75c-.8,5.03-5.14,8.61-10.07,8.61Z"/>
        </g>
      </g>
    </g>
  </g>
</svg>