<?xml version="1.0" encoding="UTF-8"?>
<svg xmlns="http://www.w3.org/2000/svg" viewBox="0 0 664.5 603.03">
  <defs>
    <style>
      .cls-1 {
        fill: #f7931a;
      }
    </style>
  </defs>
  <g id="_лой_1" data-name="Слой 1"/>
  <g id="_лой_2" data-name="Слой 2">
    <g id="_лой_1-2" data-name="Слой 1">
      <g>
        <g>
          <path class="cls-1" d="M274.54,292.15c-1.39-65.82,50.41-92.5,50.41-92.5,0,0-31.61-12.95-60.4-5.2-32.43,8.73-62.48,41.05-62.48,96.66,0,45.38,31.24,81.72,62.48,91.81,31.24,10.09,62.48-6.06,62.48-6.06,0,0-51.34-30.32-52.49-84.71Z"/>
          <path class="cls-1" d="M423.86,245.73h67.9s-8.36-42.35-43.31-69.98c-66.17-52.31-121.43-30.83-121.43-30.83,0,0,41.66,15.4,63.92,40.88,26.33,30.14,32.91,59.93,32.91,59.93Z"/>
          <path class="cls-1" d="M424.03,330.85h67.9s-8.36,42.35-43.31,69.98c-66.17,52.31-121.43,30.83-121.43,30.83,0,0,41.66-15.4,63.92-40.88,26.33-30.14,32.91-59.93,32.91-59.93Z"/>
        </g>
        <path d="M347,521.22c-62.22,0-120.71-24.23-164.71-68.23-44-44-68.22-102.49-68.22-164.71s24.23-120.71,68.23-164.71,102.49-68.22,164.71-68.22,120.71,24.23,164.71,68.22c44,44,68.22,102.49,68.22,164.71s-24.23,120.71-68.22,164.71c-44,44-102.49,68.23-164.71,68.23Zm0-443.87c-116.31,0-210.93,94.62-210.93,210.93s94.62,210.93,210.93,210.93,210.93-94.62,210.93-210.93-94.62-210.93-210.93-210.93Z"/>
        <path d="M21.66,216.06c-.91,0-1.84-.11-2.76-.35-5.88-1.52-9.42-7.52-7.9-13.4C32.09,120.64,82.36,49.46,152.53,1.9c5.03-3.41,11.87-2.1,15.28,2.93,3.41,5.03,2.1,11.87-2.93,15.28C99.14,64.67,52.06,131.33,32.3,207.81c-1.28,4.96-5.75,8.25-10.64,8.25Z"/>
        <path d="M92.89,520.16c-3.08,0-6.15-1.29-8.32-3.8C30.04,453.37,0,372.74,0,289.32c0-6.08,4.92-11,11-11s11,4.92,11,11c0,78.13,28.13,153.65,79.21,212.63,3.98,4.59,3.48,11.54-1.12,15.52-2.08,1.8-4.64,2.68-7.2,2.68Z"/>
        <path d="M493.02,603.03c-4.09,0-8.01-2.29-9.91-6.22-2.64-5.47-.35-12.05,5.12-14.69,68.76-33.23,123.9-89.85,155.25-159.44,2.5-5.54,9.01-8,14.55-5.51,5.54,2.5,8.01,9.01,5.51,14.55-33.47,74.29-92.33,134.74-165.73,170.22-1.54,.75-3.17,1.1-4.78,1.1Z"/>
        <path class="cls-1" d="M347,577.66c-77.02,0-149.42-29.99-203.88-84.45s-84.45-126.87-84.45-203.88,29.99-149.42,84.45-203.88S269.98,.99,347,.99s149.42,29.99,203.88,84.45c54.46,54.46,84.45,126.87,84.45,203.88s-29.99,149.42-84.45,203.88c-54.46,54.46-126.87,84.45-203.88,84.45Zm0-554.67c-146.86,0-266.33,119.48-266.33,266.33s119.48,266.33,266.33,266.33,266.33-119.48,266.33-266.33S493.86,22.99,347,22.99Z"/>
      </g>
    </g>
  </g>
</svg>