<?xml version="1.0" encoding="UTF-8"?>
<svg xmlns="http://www.w3.org/2000/svg" viewBox="0 0 664.5 603.03">
  <defs>
    <style>
      .cls-1 {
        fill: #f7931a;
      }
    </style>
  </defs>
  <g id="_лой_1" data-name="Слой 1"/>
  <g id="_лой_2" data-name="Слой 2">
    <g id="_лой_1-2" data-name="Слой 1">
      <path d="M347,522.26c-62.22,0-120.71-24.23-164.71-68.23-44-44-68.22-102.49-68.22-164.71s24.23-120.71,68.23-164.71,102.49-68.22,164.71-68.22,120.71,24.23,164.71,68.22c44,44,68.22,102.49,68.22,164.71s-24.23,120.71-68.22,164.71c-44,44-102.49,68.23-164.71,68.23Zm0-443.87c-116.31,0-210.93,94.62-210.93,210.93s94.62,210.93,210.93,210.93,210.93-94.62,210.93-210.93-94.62-210.93-210.93-210.93Z"/>
      <path d="M21.66,216.06c-.91,0-1.84-.11-2.76-.35-5.88-1.52-9.42-7.52-7.9-13.4C32.09,120.64,82.36,49.46,152.53,1.9c5.03-3.41,11.87-2.1,15.28,2.93,3.41,5.03,2.1,11.87-2.93,15.28C99.14,64.67,52.06,131.33,32.3,207.81c-1.28,4.96-5.75,8.25-10.64,8.25Z"/>
      <path d="M92.89,520.16c-3.08,0-6.15-1.29-8.32-3.8C30.04,453.37,0,372.74,0,289.32c0-6.08,4.92-11,11-11s11,4.92,11,11c0,78.13,28.13,153.65,79.21,212.63,3.98,4.59,3.48,11.54-1.12,15.52-2.08,1.8-4.64,2.68-7.2,2.68Z"/>
      <path d="M493.02,603.03c-4.09,0-8.01-2.29-9.91-6.22-2.64-5.47-.35-12.05,5.12-14.69,68.76-33.23,123.9-89.85,155.25-159.44,2.5-5.54,9.01-8,14.55-5.51,5.54,2.5,8.01,9.01,5.51,14.55-33.47,74.29-92.33,134.74-165.73,170.22-1.54,.75-3.17,1.1-4.78,1.1Z"/>
      <path class="cls-1" d="M347,577.66c-77.02,0-149.42-29.99-203.88-84.45s-84.45-126.87-84.45-203.88,29.99-149.42,84.45-203.88S269.98,.99,347,.99s149.42,29.99,203.88,84.45c54.46,54.46,84.45,126.87,84.45,203.88s-29.99,149.42-84.45,203.88c-54.46,54.46-126.87,84.45-203.88,84.45Zm0-554.67c-146.86,0-266.33,119.48-266.33,266.33s119.48,266.33,266.33,266.33,266.33-119.48,266.33-266.33S493.86,22.99,347,22.99Z"/>
      <g>
        <path class="cls-1" d="M395.37,294.3c-3.08,0-6.15-1.29-8.33-3.81-3.97-4.59-3.47-11.53,1.12-15.5,6.55-5.71,23.42-24.34,22.88-41.72-.4-12.67-4.64-22.83-12.61-30.19-4.58-4.23-10.75-6.58-17.36-6.61l-104.27-.55c-6.08-.03-10.97-4.98-10.94-11.06,.03-6.08,4.99-10.98,11.06-10.94l104.27,.55c12.12,.06,23.54,4.48,32.17,12.44,8.57,7.92,18.95,22.26,19.68,45.67,.98,31.48-29.18,57.92-30.47,59.04-2.08,1.8-4.64,2.68-7.19,2.68Z"/>
        <g>
          <path class="cls-1" d="M394.31,398.1c-.31,0-.61,0-.92,0l-105.56-1.43c-11.59-.16-21.09-9.71-21.19-21.3l-1.69-188.85c-.05-6.08,4.83-11.04,10.9-11.1,.03,0,.07,0,.1,0,6.03,0,10.94,4.86,11,10.9l.8,89.36c25.82-.59,101.58-2.09,117.54,.3,26.93,4.04,54.11,25.19,54.11,63.32,0,15.86-7.72,30.81-22.32,43.23-11.81,10.05-26.97,15.56-42.76,15.56Zm-105.67-23.43l105.05,1.42c10.82,.17,21.14-3.52,29.13-10.31,9.67-8.23,14.58-17.14,14.58-26.48,0-35.24-31.75-41.02-35.37-41.57-11.65-1.75-72.01-1.04-114.08-.06l.69,76.99Z"/>
          <path class="cls-1" d="M308.84,431.99c-6.08,0-11-4.92-11-11v-31.02c0-6.08,4.92-11,11-11s11,4.92,11,11v31.02c0,6.08-4.92,11-11,11Z"/>
          <path class="cls-1" d="M308.84,191.78c-6.08,0-11-4.92-11-11v-27.12c0-6.08,4.92-11,11-11s11,4.92,11,11v27.12c0,6.08-4.92,11-11,11Z"/>
          <path class="cls-1" d="M369.88,430.8c-6.08,0-11-4.92-11-11v-30.73c0-6.08,4.92-11,11-11s11,4.92,11,11v30.73c0,6.08-4.92,11-11,11Z"/>
          <path class="cls-1" d="M369.88,196.52c-6.08,0-11-4.92-11-11v-33.05c0-6.08,4.92-11,11-11s11,4.92,11,11v33.05c0,6.08-4.92,11-11,11Z"/>
        </g>
      </g>
    </g>
  </g>
</svg>