<?xml version="1.0" encoding="UTF-8"?>
<svg xmlns="http://www.w3.org/2000/svg" viewBox="0 0 593.03 592.72">
  <defs>
    <style>
      .cls-1 {
        fill: #f7931a;
      }
    </style>
  </defs>
  <g id="_лой_1" data-name="Слой 1"/>
  <g id="_лой_2" data-name="Слой 2">
    <g id="_лой_1-2" data-name="Слой 1">
      <g>
        <path class="cls-1" d="M296.52,503.59c-51.78,0-101.35-19.2-139.59-54.06-3.84-3.5-4.12-9.46-.61-13.3,3.5-3.84,9.46-4.12,13.3-.61,34.76,31.69,79.83,49.15,126.9,49.15s88.62-16.14,122.73-45.45c3.94-3.39,9.89-2.94,13.27,1,3.39,3.94,2.94,9.89-1,13.27-37.52,32.24-85.46,50-135,50Z"/>
        <path class="cls-1" d="M449.08,431.69c-2.11,0-4.23-.71-5.99-2.16-4.01-3.31-4.57-9.24-1.26-13.25,27.78-33.63,43.09-76.22,43.09-119.92,0-97.63-76.14-180.12-173.33-187.81-5.18-.41-9.05-4.94-8.64-10.12,.41-5.18,4.98-9.05,10.13-8.64,51.8,4.1,99.87,27.4,135.35,65.62,35.67,38.43,55.32,88.49,55.32,140.95,0,48.07-16.83,94.91-47.4,131.91-1.86,2.25-4.55,3.42-7.26,3.42Z"/>
        <path class="cls-1" d="M136.61,422.24c-2.9,0-5.77-1.34-7.61-3.87-25.98-35.61-39.71-77.8-39.71-122.01,0-105.19,78.67-193.67,183-205.82,5.14-.6,9.84,3.1,10.44,8.26,.6,5.16-3.1,9.84-8.26,10.44-94.84,11.05-166.35,91.49-166.35,187.13,0,40.2,12.48,78.55,36.1,110.92,3.06,4.2,2.14,10.09-2.06,13.15-1.67,1.22-3.62,1.81-5.54,1.81Z"/>
        <path d="M296.52,442.98c-80.84,0-146.62-65.77-146.62-146.62s65.77-146.62,146.62-146.62,146.62,65.77,146.62,146.62-65.77,146.62-146.62,146.62Zm0-274.41c-70.46,0-127.79,57.33-127.79,127.79s57.33,127.79,127.79,127.79,127.79-57.33,127.79-127.79-57.33-127.79-127.79-127.79Z"/>
        <g>
          <path class="cls-1" d="M294.13,389.89s-.07,0-.11,0c-2.62-.04-5.05-1.34-6.54-3.5l-78.89-114.74c-1.81-2.63-1.9-6.09-.22-8.81l34.66-56.18c1.47-2.38,4.07-3.83,6.87-3.83h89.64c2.67,0,5.17,1.32,6.67,3.53l38.25,56.18c1.92,2.82,1.86,6.54-.15,9.29l-83.67,114.74c-1.52,2.08-3.94,3.31-6.52,3.31Zm-69.26-123.05l69.45,101.02,73.61-100.94-32.65-47.95h-80.87l-29.54,47.87Z"/>
          <polygon class="cls-1" points="302.19 382.01 286.06 381.63 288.72 269.92 243.71 216.07 256.09 205.73 304.99 264.23 302.19 382.01"/>
          <rect class="cls-1" x="282.92" y="230.92" width="70.56" height="16.14" transform="translate(-64.61 347.74) rotate(-52.77)"/>
          <rect class="cls-1" x="215.24" y="259.01" width="162.55" height="16.14"/>
        </g>
        <path d="M296.51,592.72c-13.65,0-25.53-4.61-35.43-13.95-6.81-6.42-13.38-13.11-19.96-19.77-7.89-7.98-17.19-10.31-27.96-7.41-9.03,2.43-18.04,4.96-27.14,7.08-26.31,6.11-52.63-8.64-60.96-34.29-2.88-8.88-5.17-17.97-7.42-27.03-2.94-11.82-10.14-19.07-21.97-22-8.87-2.2-17.75-4.45-26.45-7.24-26.41-8.46-41.22-34.78-34.82-61.68,2.16-9.09,4.77-18.08,7.09-27.13,2.64-10.27,.49-19.34-7.08-26.95-6.18-6.2-12.45-12.32-18.54-18.6-21.08-21.73-21.14-52.71-.13-74.49,6.08-6.3,12.33-12.43,18.55-18.59,7.65-7.57,9.82-16.63,7.24-26.89-2.28-9.07-4.92-18.04-7.09-27.13-6.49-27.16,8.58-53.76,35.2-62.01,8.92-2.76,18.01-5.02,27.06-7.38,10.82-2.83,17.66-9.54,20.5-20.37,2.21-8.45,4.4-16.92,6.82-25.31,8.22-28.55,35.39-44.14,64.24-36.88,8.87,2.23,17.68,4.68,26.53,7.01,9.73,2.56,18.14,0,25.26-6.83,6.32-6.05,12.38-12.38,18.63-18.51,22.1-21.68,53.13-21.82,75.35-.31,5.85,5.66,11.62,11.42,17.28,17.27,8.29,8.58,18.01,11.19,29.51,7.89,8.98-2.58,17.99-5.15,27.13-7.09,26.58-5.65,52.23,9.34,60.4,35.27,2.87,9.1,5.07,18.41,7.53,27.64,2.82,10.56,9.5,17.25,20.04,20.11,8.83,2.39,17.73,4.54,26.47,7.21,28.02,8.56,43.09,35.26,36.03,63.65-2.16,8.68-4.55,17.3-6.92,25.92-2.86,10.41-.12,19.27,7.33,26.83,5.86,5.94,11.84,11.77,17.68,17.73,22.12,22.55,22.04,53.66-.18,76.23-5.86,5.95-11.8,11.81-17.68,17.74-7.33,7.4-9.89,16.1-7.21,26.28,2.64,10.02,5.57,19.99,7.67,30.12,5.24,25.34-9.49,50.75-34.11,58.92-8.86,2.94-17.95,5.24-27.03,7.45-12.02,2.94-19.61,9.92-22.47,22.17-2.03,8.7-4.41,17.34-7.08,25.87-8.35,26.72-34.73,41.69-61.99,35.26-8.9-2.1-17.72-4.55-26.55-6.92-10.76-2.89-20.06-.61-27.92,7.45-6.11,6.27-12.3,12.46-18.59,18.55-10.25,9.91-22.47,15.18-36.84,15.14ZM58.99,415.5c-.06,15.15,7.28,24.75,19.74,28.36,8.78,2.54,17.72,4.55,26.48,7.17,19.28,5.75,31.63,18.46,37.02,37.85,2.28,8.22,4.29,16.52,6.63,24.73,4.48,15.74,17.56,23.22,33.43,19.19,8.47-2.15,16.9-4.46,25.36-6.65,19.61-5.07,36.6-.16,51.09,13.71,6.18,5.91,12.07,12.11,18.17,18.1,11.98,11.8,26.98,11.92,38.99,.26,6.42-6.24,12.54-12.8,19.06-18.94,14.26-13.46,30.98-18.05,50.1-13.21,8.67,2.2,17.29,4.6,25.95,6.79,15.55,3.94,28.67-3.57,33.04-18.95,2.44-8.6,4.6-17.28,7.06-25.88,5.54-19.42,18.25-31.73,37.58-37.24,8.01-2.28,16.12-4.23,24.15-6.44,16.76-4.6,24.31-17.74,19.92-34.58-2-7.67-4.1-15.31-6.14-22.97-5.42-20.4-.97-38.2,14-53.24,6.18-6.2,12.51-12.25,18.53-18.61,10.53-11.12,10.4-26.22-.22-37.23-5.94-6.15-12.08-12.1-18.12-18.16-14.95-14.99-19.61-32.77-14.3-53.2,2.2-8.46,4.71-16.83,6.69-25.34,3.48-14.96-4.19-27.82-18.92-32.02-8.79-2.51-17.69-4.66-26.47-7.22-18.86-5.51-31.15-17.75-36.62-36.64-2.6-8.98-4.73-18.09-7.36-27.06-4.11-14-17.12-21.67-31.3-18.39-8.9,2.06-17.66,4.75-26.53,6.96-19.97,4.97-37.44,.46-52.17-14.06-5.8-5.72-11.5-11.53-17.29-17.25-12.72-12.59-27.48-12.51-40.29,.2-6.21,6.16-12.23,12.54-18.62,18.52-13.62,12.73-29.72,17.16-47.92,13.13-8.92-1.98-17.69-4.65-26.54-6.95-16.87-4.4-30,3.14-34.58,19.9-2.2,8.04-4.13,16.14-6.43,24.15-5.54,19.3-17.83,32.04-37.26,37.58-8.79,2.51-17.69,4.66-26.47,7.2-14.6,4.21-22.23,17.53-18.55,32.29,2.17,8.67,4.57,17.29,6.83,25.94,5.16,19.82,.28,36.99-13.88,51.59-6.38,6.58-13.1,12.82-19.36,19.5-10.04,10.72-9.9,25.65,.21,36.31,5.32,5.61,10.79,11.1,16.4,16.42,17.16,16.26,22.55,35.52,15.68,58.3-2.87,9.5-5.01,19.22-6.77,26.06Z"/>
      </g>
    </g>
  </g>
</svg>