<?xml version="1.0" encoding="UTF-8"?>
<svg xmlns="http://www.w3.org/2000/svg" viewBox="0 0 578.03 577.73">
  <defs>
    <style>
      .cls-1 {
        fill: #f7931a;
      }
    </style>
  </defs>
  <g id="_лой_1" data-name="Слой 1"/>
  <g id="_лой_2" data-name="Слой 2">
    <g id="_лой_1-2" data-name="Слой 1">
      <g>
        <path d="M289.01,577.73c-13.3,0-24.88-4.5-34.54-13.6-6.64-6.26-13.04-12.78-19.46-19.27-7.69-7.78-16.76-10.05-27.26-7.23-8.8,2.37-17.58,4.84-26.46,6.9-25.64,5.96-51.3-8.42-59.42-33.42-2.81-8.65-5.04-17.51-7.23-26.35-2.86-11.52-9.89-18.58-21.42-21.45-8.65-2.15-17.3-4.34-25.78-7.05-25.75-8.25-40.18-33.9-33.94-60.12,2.11-8.86,4.65-17.62,6.91-26.45,2.57-10.01,.48-18.85-6.9-26.26-6.02-6.05-12.13-12.01-18.07-18.13-20.55-21.18-20.61-51.38-.12-72.6,5.92-6.14,12.02-12.12,18.08-18.12,7.45-7.38,9.57-16.21,7.06-26.21-2.22-8.84-4.8-17.59-6.91-26.45-6.33-26.48,8.36-52.4,34.31-60.44,8.7-2.7,17.56-4.89,26.37-7.19,10.55-2.75,17.22-9.29,19.98-19.86,2.16-8.24,4.29-16.49,6.65-24.67,8.01-27.83,34.49-43.02,62.62-35.94,8.64,2.17,17.24,4.56,25.86,6.83,9.48,2.5,17.68,0,24.63-6.66,6.16-5.9,12.07-12.07,18.16-18.04,21.54-21.13,51.78-21.27,73.45-.3,5.7,5.52,11.32,11.13,16.84,16.84,8.08,8.36,17.55,10.91,28.76,7.69,8.76-2.51,17.54-5.02,26.44-6.91,25.91-5.51,50.91,9.1,58.87,34.38,2.8,8.87,4.94,17.95,7.34,26.94,2.75,10.3,9.26,16.81,19.53,19.6,8.6,2.33,17.28,4.42,25.8,7.02,27.31,8.34,42,34.37,35.12,62.04-2.1,8.46-4.44,16.86-6.74,25.26-2.78,10.15-.12,18.78,7.14,26.15,5.71,5.79,11.54,11.48,17.23,17.29,21.56,21.98,21.48,52.3-.18,74.3-5.71,5.8-11.5,11.51-17.23,17.29-7.14,7.21-9.64,15.69-7.03,25.61,2.57,9.77,5.43,19.48,7.47,29.36,5.1,24.7-9.25,49.47-33.24,57.42-8.64,2.86-17.5,5.1-26.34,7.26-11.71,2.86-19.12,9.67-21.91,21.61-1.98,8.48-4.3,16.9-6.9,25.21-8.14,26.04-33.85,40.64-60.43,34.37-8.67-2.05-17.27-4.44-25.88-6.75-10.49-2.82-19.55-.6-27.22,7.26-5.96,6.11-11.99,12.15-18.12,18.08-9.99,9.66-21.9,14.79-35.91,14.75ZM57.5,404.99c-.06,14.77,7.09,24.12,19.24,27.64,8.56,2.48,17.27,4.44,25.81,6.98,18.79,5.61,30.83,17.99,36.08,36.89,2.22,8.01,4.19,16.1,6.46,24.1,4.37,15.35,17.11,22.64,32.58,18.71,8.26-2.1,16.47-4.35,24.72-6.48,19.11-4.94,35.67-.16,49.8,13.36,6.02,5.76,11.77,11.8,17.71,17.65,11.68,11.5,26.3,11.62,38,.25,6.26-6.08,12.23-12.47,18.57-18.46,13.9-13.11,30.19-17.6,48.83-12.87,8.45,2.14,16.85,4.48,25.3,6.62,15.15,3.84,27.95-3.48,32.21-18.47,2.38-8.38,4.49-16.84,6.88-25.22,5.4-18.93,17.79-30.93,36.63-36.3,7.81-2.23,15.71-4.12,23.54-6.27,16.33-4.48,23.7-17.29,19.41-33.71-1.95-7.47-4-14.92-5.99-22.39-5.29-19.88-.94-37.24,13.65-51.89,6.02-6.05,12.19-11.94,18.06-18.14,10.26-10.84,10.14-25.56-.21-36.28-5.79-5.99-11.77-11.8-17.66-17.7-14.58-14.61-19.11-31.94-13.94-51.85,2.14-8.24,4.6-16.41,6.52-24.7,3.39-14.58-4.08-27.12-18.44-31.21-8.57-2.45-17.24-4.54-25.8-7.04-18.39-5.37-30.36-17.3-35.7-35.71-2.54-8.75-4.61-17.63-7.17-26.37-4.01-13.64-16.68-21.13-30.51-17.92-8.68,2.01-17.21,4.63-25.86,6.78-19.46,4.85-36.5,.45-50.85-13.71-5.65-5.57-11.21-11.23-16.86-16.82-12.4-12.27-26.78-12.2-39.27,.19-6.06,6.01-11.92,12.23-18.15,18.05-13.28,12.41-28.97,16.73-46.71,12.8-8.69-1.93-17.24-4.53-25.86-6.78-16.45-4.29-29.24,3.06-33.71,19.4-2.14,7.83-4.03,15.74-6.27,23.54-5.4,18.81-17.38,31.23-36.31,36.63-8.57,2.45-17.24,4.55-25.8,7.02-14.23,4.11-21.67,17.08-18.08,31.47,2.11,8.45,4.46,16.85,6.65,25.28,5.03,19.32,.27,36.05-13.53,50.29-6.21,6.41-12.77,12.5-18.87,19.01-9.78,10.44-9.65,25,.21,35.39,5.19,5.47,10.51,10.82,15.98,16,16.72,15.85,21.98,34.63,15.29,56.83-2.79,9.26-4.89,18.74-6.6,25.4Z"/>
        <g>
          <path d="M289.02,501.13c-4.39,0-7.95-3.56-7.95-7.95s3.56-7.95,7.95-7.95c108.28,0,196.37-88.09,196.37-196.37s-88.09-196.37-196.37-196.37c-4.39,0-7.95-3.56-7.95-7.95s3.56-7.95,7.95-7.95c117.05,0,212.27,95.22,212.27,212.27s-95.22,212.27-212.27,212.27Z"/>
          <path d="M110.71,396.64c-2.78,0-5.48-1.46-6.94-4.06-17.68-31.51-27.02-67.37-27.02-103.72,0-65.24,29.37-125.92,80.57-166.48,3.44-2.73,8.44-2.15,11.17,1.3,2.73,3.44,2.15,8.44-1.3,11.17-47.37,37.52-74.54,93.66-74.54,154.01,0,33.63,8.64,66.8,24.99,95.94,2.15,3.83,.79,8.68-3.04,10.83-1.23,.69-2.57,1.02-3.88,1.02Z"/>
          <path d="M217.92,455.02c-4.39,0-7.95-3.56-7.95-7.95v-72.99l-27.46-20.97v-31.97c0-4.39,3.56-7.95,7.95-7.95s7.95,3.56,7.95,7.95v24.1l27.46,20.97v80.85c0,4.39-3.56,7.95-7.95,7.95Z"/>
          <path d="M272.92,469.28c-4.39,0-7.95-3.56-7.95-7.95v-101.55c0-4.39,3.56-7.95,7.95-7.95s7.95,3.56,7.95,7.95v101.55c0,4.39-3.56,7.95-7.95,7.95Z"/>
          <path d="M331.35,460.09c-4.39,0-7.95-3.56-7.95-7.95v-142.74l12.72-22.62v-66.71c0-4.39,3.56-7.95,7.95-7.95s7.95,3.56,7.95,7.95v70.88l-12.72,22.62v138.57c0,4.39-3.56,7.95-7.95,7.95Z"/>
          <path d="M386.95,342.05c-4.39,0-7.95-3.56-7.95-7.95v-94.78l53.01-46.45c3.3-2.89,8.33-2.56,11.22,.74,2.89,3.3,2.56,8.33-.74,11.22l-47.59,41.69v87.57c0,4.39-3.56,7.95-7.95,7.95Z"/>
          <path d="M289.04,252.25c-4.39,0-7.95-3.56-7.95-7.95l-.04-67.57,20.44-20.5v-35.59c0-4.39,3.56-7.95,7.95-7.95s7.95,3.56,7.95,7.95v42.16l-20.44,20.5,.04,60.99c0,4.39-3.55,7.95-7.95,7.96h0Z"/>
          <path d="M221.09,208.7c-4.39,0-7.95-3.56-7.95-7.95v-35.05l31.81-50.44c2.34-3.71,7.25-4.83,10.97-2.48,3.71,2.34,4.83,7.25,2.48,10.97l-29.36,46.55v30.45c0,4.39-3.56,7.95-7.95,7.95Z"/>
          <path class="cls-1" d="M221.09,247.34c-15.04,0-27.27-12.23-27.27-27.27s12.23-27.27,27.27-27.27,27.27,12.23,27.27,27.27-12.23,27.27-27.27,27.27Zm0-38.64c-6.27,0-11.37,5.1-11.37,11.37s5.1,11.37,11.37,11.37,11.37-5.1,11.37-11.37-5.1-11.37-11.37-11.37Z"/>
          <path class="cls-1" d="M289,292.81c-15.04,0-27.27-12.23-27.27-27.27s12.23-27.27,27.27-27.27,27.27,12.23,27.27,27.27-12.23,27.27-27.27,27.27Zm0-38.64c-6.27,0-11.37,5.1-11.37,11.37s5.1,11.37,11.37,11.37,11.37-5.1,11.37-11.37-5.1-11.37-11.37-11.37Z"/>
          <path class="cls-1" d="M344.07,226.12c-15.04,0-27.27-12.23-27.27-27.27s12.23-27.27,27.27-27.27,27.27,12.23,27.27,27.27-12.23,27.27-27.27,27.27Zm0-38.64c-6.27,0-11.37,5.1-11.37,11.37s5.1,11.37,11.37,11.37,11.37-5.1,11.37-11.37-5.1-11.37-11.37-11.37Z"/>
          <path class="cls-1" d="M386.95,383.99c-15.04,0-27.27-12.23-27.27-27.27s12.23-27.27,27.27-27.27,27.27,12.23,27.27,27.27-12.23,27.27-27.27,27.27Zm0-38.64c-6.27,0-11.37,5.1-11.37,11.37s5.1,11.37,11.37,11.37,11.37-5.1,11.37-11.37-5.1-11.37-11.37-11.37Z"/>
          <path class="cls-1" d="M272.92,367.73c-15.04,0-27.27-12.23-27.27-27.27s12.23-27.27,27.27-27.27,27.27,12.23,27.27,27.27-12.23,27.27-27.27,27.27Zm0-38.64c-6.27,0-11.37,5.1-11.37,11.37s5.1,11.37,11.37,11.37,11.37-5.1,11.37-11.37-5.1-11.37-11.37-11.37Z"/>
          <path class="cls-1" d="M190.46,324.56c-15.04,0-27.27-12.23-27.27-27.27s12.23-27.27,27.27-27.27,27.27,12.23,27.27,27.27-12.23,27.27-27.27,27.27Zm0-38.64c-6.27,0-11.37,5.1-11.37,11.37s5.1,11.37,11.37,11.37,11.37-5.1,11.37-11.37-5.1-11.37-11.37-11.37Z"/>
          <path d="M398.9,162.67c-1.94,0-3.88-.71-5.42-2.13-3.21-2.99-3.4-8.02-.4-11.24l21.09-22.66c2.99-3.21,8.02-3.4,11.24-.4,3.21,2.99,3.4,8.02,.4,11.24l-21.09,22.66c-1.57,1.68-3.69,2.53-5.82,2.53Z"/>
          <path d="M386.96,476.17c-2.92,0-5.73-1.61-7.12-4.4l-13.83-27.69c-1.96-3.93-.37-8.7,3.56-10.67,3.93-1.96,8.7-.37,10.67,3.56l13.83,27.69c1.96,3.93,.37,8.7-3.56,10.67-1.14,.57-2.35,.84-3.55,.84Z"/>
          <path d="M115.96,285.92h-30.97c-4.39,0-7.95-3.56-7.95-7.95s3.56-7.95,7.95-7.95h30.97c4.39,0,7.95,3.56,7.95,7.95s-3.56,7.95-7.95,7.95Z"/>
          <path class="cls-1" d="M289.02,470.22c-100,0-181.35-81.36-181.35-181.36S189.02,107.51,289.02,107.51s181.35,81.36,181.35,181.35c0,4.39-3.56,7.95-7.95,7.95s-7.95-3.56-7.95-7.95c0-91.23-74.22-165.45-165.45-165.45S123.56,197.63,123.56,288.86s74.22,165.45,165.45,165.45c50.73,0,97.95-22.8,129.57-62.55,2.73-3.44,7.74-4.01,11.17-1.27,3.44,2.73,4.01,7.74,1.27,11.17-34.65,43.57-86.41,68.56-142.02,68.56Z"/>
        </g>
      </g>
    </g>
  </g>
</svg>