<?xml version="1.0" encoding="UTF-8"?>
<svg xmlns="http://www.w3.org/2000/svg" viewBox="0 0 861.24 860.79">
  <defs>
    <style>
      .cls-1 {
        fill: #f7931a;
      }
    </style>
  </defs>
  <g id="_лой_1" data-name="Слой 1"/>
  <g id="_лой_2" data-name="Слой 2">
    <g id="_лой_1-2" data-name="Слой 1">
      <g>
        <g>
          <path d="M223.02,288.21c0-5.88,.03-10.61,0-15.34-.12-18.53,10.22-28.9,28.63-28.82,13.02,.06,26.04,.01,40.41,.01,0-16.11-.02-31.16,0-46.21,.05-27.36,8.54-35.84,35.83-35.84,70.03,0,140.07,.02,210.1,.01,21.06,0,30.99,9.91,31.03,31.04,.01,8.27,.14,16.54,.14,24.82,0,7.02,.4,15.35-9.31,15.3-9.11-.05-8.68-8.07-8.73-14.73-.07-8.96-.49-17.94-.08-26.88,.4-8.59-3.32-11.63-11.63-11.61-59.68,.17-119.37,.13-179.06,.14-13.11,0-26.22,0-39.33-.05-5.83-.02-10.58,1.58-10.65,8.38-.17,18.17-.06,36.35-.06,55.76,13.35,0,25.67,0,37.99,0,86.6,0,173.19-.03,259.79,.02,21.02,.01,29.71,8.92,29.98,30.33,.05,4.06,0,8.11,0,13.84,8.15,0,15.28-.1,22.39,.02,21.86,.37,35.53,13.97,35.56,35.71,.08,84.8,.08,169.6,.01,254.41-.02,21.22-13.08,34.86-34.42,36.03-7.46,.41-14.96,.07-23.47,.07,0,6.4,.06,11.48-.01,16.56-.24,17.31-10.35,27.55-27.75,27.57-63.48,.06-126.97-.05-190.45-.05-54.17,0-108.34,.1-162.51,.07-26.52-.02-33.56-7-34.28-33.48-.08-3.04-.31-6.07-.56-10.79-7.27,0-14.06,.13-20.83-.02-23.3-.54-36.56-13.84-36.57-36.87-.05-84.11-.05-168.22,0-252.33,.01-22.94,13.64-36.69,36.51-37.05,6.79-.11,13.58-.02,21.32-.02Zm207.66,353.16c58.29,0,116.57,.02,174.86-.01,14.03,0,15.23-1.25,15.23-15.45,0-31.7-.08-63.4-.08-95.1,0-84.76,.04-169.53,.04-254.29,0-13.33-1.56-14.87-14.8-14.94-10.69-.06-21.38,0-32.07,0-106.57,0-213.15,.04-319.72-.13-8.63-.01-13.71,1.82-13.69,11.9,.19,117.15,.13,234.3,.22,351.45,.01,16.06,.7,16.55,17.22,16.56,57.6,.03,115.2,0,172.8,.01Zm-208.38-44.91V306.25c-6.72,0-12.56,0-18.4,0-16.26,0-21.39,5.17-21.41,21.8-.04,26.54,0,53.07,0,79.61,.02,56.52,.03,113.04,.1,169.55,.02,13.4,5.37,18.9,18.58,19.23,6.85,.17,13.7,.03,21.12,.03Zm416.61-290.03v290.2c6.32,0,11.8,.02,17.28,0,17.67-.07,22.53-4.9,22.55-22.84,.06-44.11,.04-88.22,.03-132.33-.01-38.25-.02-76.5-.12-114.75-.04-15.33-5.05-20.18-20.54-20.28-6.17-.04-12.35,0-19.21,0Z"/>
          <path class="cls-1" d="M534.5,338.02c3.42-4.27,6.56-10.1,11.4-13.54,.53-.38,1.13-.66,1.78-.87,6.47-2.09,12.68,4.3,10.64,10.79-.23,.73-.53,1.4-.94,2.01-3.11,4.7-8.58,7.85-13.05,11.66,6.81,10.01,12.66,18.41,18.29,26.96,3.36,5.11,4.63,10.65-1.66,14.29-6.24,3.61-10.1-.41-13.43-5.51-4.65-7.11-9.69-13.97-14.24-20.48-11.74,11.5-22.72,22.26-34.01,33.31,25.76,36.38,24.98,73.25-.34,110.4,11.28,10.53,22.33,20.84,34.07,31.8,12.07-12.18,20.96-28.05,25.66-45.64,3.78-14.14,5.03-29.02,6.57-43.66,.69-6.53,.5-13.62,8.57-14.01,9.04-.43,9.7,7.23,9.66,14-.24,38.68-12.64,72.93-38.67,103.27,3.02,3.19,6.04,6.31,8.99,9.49,4.73,5.09,13.08,10.09,5.08,17.72-7.9,7.53-12.84-.96-17.72-5.79-2.68-2.65-4.59-6.07-6.79-9.07-69.53,51.68-137.25,52.19-207.07,.15-3.19,3.68-6.9,8.11-10.78,12.39-4.1,4.52-9.1,7.29-14.3,2.39-5.8-5.45-2.51-10.61,2.15-14.99,3.99-3.75,8.16-7.32,12.05-10.79-51.69-68.7-51.59-136.36-.9-204.83-4.3-4.49-9.67-8.63-12.91-14.05-.5-.84-.77-1.83-.89-2.9-.69-6.12,4.81-11.38,10.76-9.79,.59,.16,1.14,.38,1.63,.69,5.39,3.4,9.61,8.66,14.28,13.11,68.17-50.54,135.91-50.89,206.11,1.46Zm-15.59,11.9c-51.47-46.94-134.83-41.56-175.36-.12,10.83,10.9,21.64,21.79,32.58,32.8,36.65-25.44,73.55-24.9,108.74-.3,11.72-11.15,22.65-21.54,34.04-32.38Zm-189.54,13.31c-47.79,51.19-41.5,135.39-.73,174.96,10.9-10.78,21.79-21.55,32.89-32.53-25.07-36.14-24.84-72.94,.44-109.15-11.01-11.24-21.55-21.99-32.6-33.28Zm13.5,189.95c54.98,51.06,142.14,36.76,173.96,.39-10.27-11.3-20.44-22.48-30.67-33.75-37.33,25.36-74.24,25.72-110.78,.08-10.94,11.19-21.48,21.99-32.51,33.28Zm100.77-100.32c6.82,6.58,14.01,13.04,20.63,20.04,6.76,7.15,12.94,14.83,19.59,22.53,21.65-26.34,21.48-63.24,2.47-84.8-13.82,13.68-27.69,27.4-42.69,42.23Zm27.25,54.77c-13.87-14.49-27.33-28.56-39.73-41.52-13.77,13.88-27.46,27.67-41.07,41.4,22.14,18.64,58.74,18.61,80.81,.13Zm.68-111.48c-19.92-20.62-66.27-18.38-80.91-.33,13.88,13.82,27.64,27.51,40.97,40.78,12.91-13.07,26.42-26.76,39.94-40.45Zm-96.08,14.46c-19.95,20.63-19.7,64.4-1.46,80.32,14.47-13.31,28.79-26.49,42.27-38.89-13.87-14.07-27.34-27.75-40.81-41.42Z"/>
          <circle class="cls-1" cx="379.84" cy="211.96" r="13.71"/>
          <circle class="cls-1" cx="434.53" cy="211.96" r="13.71"/>
          <circle class="cls-1" cx="486.64" cy="211.96" r="13.71"/>
        </g>
        <path d="M430.61,860.79c-19.82,.01-37.07-6.7-51.46-20.27-9.89-9.33-19.43-19.04-28.99-28.71-11.46-11.58-24.97-14.97-40.61-10.77-13.11,3.53-26.2,7.2-39.42,10.28-38.21,8.88-76.44-12.55-88.54-49.8-4.19-12.9-7.5-26.09-10.78-39.26-4.27-17.17-14.73-27.69-31.91-31.95-12.88-3.2-25.78-6.46-38.41-10.51-38.36-12.28-59.87-50.51-50.57-89.58,3.14-13.2,6.92-26.26,10.3-39.4,3.83-14.92,.72-28.08-10.28-39.13-8.97-9.01-18.08-17.89-26.93-27.01-30.62-31.56-30.7-76.55-.18-108.18,8.83-9.15,17.91-18.05,26.94-27,11.11-11,14.26-24.15,10.52-39.06-3.3-13.17-7.15-26.2-10.3-39.4-9.43-39.45,12.45-78.08,51.12-90.06,12.96-4.02,26.16-7.29,39.3-10.71,15.72-4.1,25.65-13.85,29.77-29.59,3.21-12.28,6.4-24.57,9.91-36.76,11.93-41.46,51.39-64.1,93.3-53.55,12.88,3.24,25.68,6.79,38.53,10.18,14.12,3.72,26.34,0,36.69-9.92,9.18-8.79,17.98-17.98,27.06-26.88,32.1-31.49,77.15-31.69,109.44-.45,8.5,8.22,16.87,16.58,25.09,25.09,12.04,12.46,26.15,16.25,42.85,11.46,13.05-3.74,26.13-7.48,39.4-10.3,38.6-8.2,75.85,13.56,87.72,51.22,4.17,13.22,7.36,26.74,10.94,40.14,4.1,15.34,13.8,25.05,29.1,29.2,12.82,3.47,25.74,6.59,38.44,10.47,40.69,12.43,62.58,51.21,52.33,92.44-3.13,12.6-6.61,25.12-10.04,37.64-4.15,15.12-.18,27.99,10.64,38.96,8.51,8.63,17.19,17.1,25.68,25.75,32.12,32.75,32,77.92-.26,110.71-8.5,8.64-17.14,17.15-25.67,25.76-10.64,10.74-14.37,23.38-10.47,38.16,3.83,14.55,8.09,29.03,11.14,43.75,7.61,36.8-13.78,73.7-49.53,85.56-12.87,4.27-26.07,7.6-39.25,10.82-17.45,4.26-28.49,14.41-32.64,32.2-2.95,12.64-6.41,25.18-10.28,37.57-12.13,38.8-50.44,60.55-90.03,51.21-12.92-3.05-25.73-6.61-38.56-10.05-15.63-4.2-29.13-.89-40.55,10.82-8.88,9.1-17.86,18.1-27,26.94-14.89,14.39-32.63,22.04-53.5,21.98ZM85.67,603.42c-.09,22.01,10.57,35.94,28.67,41.19,12.75,3.69,25.73,6.61,38.45,10.41,28,8.36,45.94,26.8,53.76,54.97,3.31,11.94,6.24,23.99,9.63,35.91,6.51,22.86,25.5,33.73,48.55,27.88,12.3-3.12,24.54-6.47,36.83-9.65,28.48-7.36,53.15-.24,74.2,19.91,8.97,8.58,17.54,17.58,26.38,26.29,17.4,17.13,39.19,17.31,56.62,.37,9.33-9.06,18.22-18.58,27.67-27.51,20.7-19.54,44.99-26.22,72.75-19.18,12.59,3.19,25.1,6.67,37.69,9.86,22.58,5.72,41.64-5.19,47.99-27.52,3.55-12.49,6.69-25.09,10.25-37.58,8.05-28.21,26.51-46.08,54.58-54.08,11.63-3.32,23.41-6.15,35.08-9.35,24.34-6.68,35.31-25.76,28.92-50.22-2.91-11.14-5.96-22.23-8.92-33.36-7.88-29.62-1.41-55.48,20.34-77.32,8.97-9.01,18.17-17.8,26.9-27.03,15.29-16.16,15.11-38.08-.32-54.06-8.62-8.93-17.54-17.58-26.31-26.37-21.72-21.77-28.48-47.59-20.76-77.26,3.19-12.28,6.85-24.45,9.72-36.8,5.05-21.72-6.09-40.4-27.47-46.51-12.77-3.64-25.69-6.77-38.43-10.49-27.4-8-45.23-25.78-53.19-53.21-3.78-13.03-6.86-26.27-10.69-39.29-5.97-20.33-24.86-31.48-45.46-26.7-12.93,3-25.65,6.9-38.53,10.11-28.99,7.22-54.38,.67-75.77-20.42-8.42-8.3-16.71-16.74-25.11-25.06-18.48-18.28-39.91-18.17-58.52,.28-9.03,8.95-17.76,18.22-27.04,26.89-19.78,18.49-43.17,24.92-69.59,19.06-12.95-2.87-25.69-6.75-38.54-10.1-24.5-6.39-43.57,4.57-50.22,28.9-3.19,11.67-6,23.45-9.34,35.07-8.04,28.02-25.89,46.53-54.11,54.58-12.77,3.64-25.69,6.77-38.45,10.46-21.21,6.12-32.29,25.46-26.94,46.89,3.15,12.6,6.64,25.11,9.91,37.67,7.5,28.79,.4,53.72-20.16,74.92-9.26,9.55-19.02,18.62-28.11,28.32-14.57,15.56-14.37,37.25,.31,52.73,7.73,8.15,15.67,16.12,23.82,23.84,24.92,23.62,32.75,51.59,22.78,84.67-4.16,13.8-7.28,27.92-9.83,37.85Z"/>
      </g>
    </g>
  </g>
</svg>