<?xml version="1.0" encoding="UTF-8"?>
<svg xmlns="http://www.w3.org/2000/svg" viewBox="0 0 603.65 562.04">
  <defs>
    <style>
      .cls-1 {
        fill: #fff;
      }

      .cls-2 {
        fill: #f7931a;
      }
    </style>
  </defs>
  <g id="_лой_1" data-name="Слой 1"/>
  <g id="_лой_2" data-name="Слой 2">
    <g id="_лой_1-2" data-name="Слой 1">
      <g id="_лой_2-2" data-name=" лой 2">
        <g id="_лой_1-2" data-name=" лой 1-2">
          <g>
            <g>
              <g>
                <path d="M18.24,208.72c-.7,0-1.42-.09-2.13-.27-4.55-1.17-7.28-5.81-6.11-10.36C29.15,123.9,74.82,59.23,138.59,15.99c3.89-2.64,9.17-1.62,11.81,2.27,2.63,3.89,1.62,9.17-2.27,11.8C87.79,70.98,44.58,132.16,26.46,202.34c-.99,3.83-4.44,6.38-8.22,6.38Z"/>
                <path d="M83.27,486.39c-2.38,0-4.75-1-6.43-2.94C27.29,426.22,0,352.96,0,277.15c0-4.69,3.81-8.5,8.5-8.5s8.5,3.81,8.5,8.5c0,71.72,25.82,141.03,72.7,195.17,3.07,3.55,2.69,8.92-.86,11.99-1.61,1.39-3.59,2.07-5.56,2.07Z"/>
                <path d="M448.62,562.04c-3.16,0-6.19-1.77-7.66-4.8-2.04-4.23-.27-9.31,3.96-11.35,63.11-30.49,113.71-82.46,142.49-146.34,1.93-4.28,6.96-6.19,11.24-4.26,4.28,1.93,6.19,6.96,4.26,11.24-30.42,67.51-83.9,122.43-150.59,154.66-1.19,.58-2.45,.85-3.69,.85Z"/>
              </g>
              <path class="cls-2" d="M316.09,553.03c-73.86,0-143.3-28.76-195.52-80.99-52.23-52.23-80.99-121.67-80.99-195.52s28.76-143.3,80.99-195.52C172.79,28.76,242.23,0,316.09,0s143.3,28.76,195.52,80.99c52.23,52.23,80.99,121.67,80.99,195.52s-28.76,143.3-80.99,195.52c-52.23,52.23-121.66,80.99-195.52,80.99Zm0-536.03C172.99,17,56.57,133.42,56.57,276.51s116.42,259.51,259.51,259.51,259.51-116.42,259.51-259.51S459.18,17,316.09,17Z"/>
            </g>
            <g>
              <g>
                <path d="M315.18,427.05c-43.65,0-83.75-17.91-112.91-50.44-3.13-3.5-2.84-8.87,.66-12,3.5-3.13,8.87-2.84,12,.66,25.89,28.88,61.49,44.79,100.25,44.79s75.72-16.76,101.3-45.99c3.09-3.53,8.46-3.89,11.99-.8,3.53,3.09,3.89,8.46,.8,12-28.81,32.92-70.4,51.8-114.09,51.8Z"/>
                <path d="M450.37,333.81c-1.05,0-2.11-.19-3.14-.6-4.36-1.74-6.49-6.68-4.76-11.04,6.06-15.25,7.28-29.17,7.28-46.68,0-64.66-42.59-118.53-103.56-131-4.6-.94-7.56-5.43-6.62-10.03,.94-4.6,5.44-7.57,10.03-6.62,33.99,6.95,63.24,24.86,84.58,51.79,21.31,26.88,32.57,60.03,32.57,95.87,0,18.99-1.44,35.26-8.48,52.97-1.33,3.33-4.52,5.36-7.9,5.36Z"/>
                <path d="M181.03,333.79c-3.45,0-6.7-2.12-7.97-5.54-1.72-4.63-3.22-9.4-4.47-14.16-3.3-12.53-4.98-25.53-4.98-38.63,0-33.07,11.38-66.07,32.05-92.92,20.25-26.31,48.5-45.69,79.54-54.58,4.51-1.29,9.22,1.32,10.51,5.83,1.29,4.51-1.32,9.22-5.83,10.51-57.52,16.47-99.27,71.63-99.27,131.16,0,11.64,1.49,23.18,4.42,34.31,1.11,4.23,2.44,8.45,3.97,12.56,1.63,4.4-.61,9.29-5.01,10.93-.98,.36-1.97,.53-2.96,.53Z"/>
                <g>
                  <path class="cls-2" d="M345.67,344.5c-.19,0-.39,0-.58,0l-68.03-.92c-7.01-.11-12.52-5.67-12.58-12.66l-1.09-121.73c-.03-3.31,2.63-6.02,5.95-6.05,3.36-.05,6.02,2.63,6.05,5.95l.53,58.71c15.44-.36,66.24-1.41,76.68,.16,16.9,2.53,33.95,15.8,33.95,39.73,0,9.89-4.84,19.24-14.01,27.04-7.42,6.31-16.94,9.77-26.86,9.77Zm-69.65-64.7l.46,51.02c0,.42,.34,.75,.76,.76l68.02,.92c.14,0,.28,0,.42,0,7.08,0,13.84-2.44,19.09-6.91,6.49-5.53,9.79-11.55,9.79-17.9,0-23.63-21.3-27.5-23.73-27.87-8.45-1.26-53.84-.51-74.8-.02Z"/>
                  <path class="cls-2" d="M346.37,277.6c-1.68,0-3.35-.7-4.54-2.08-2.17-2.5-1.89-6.29,.61-8.46h0c.16-.13,15.57-13.72,15.13-27.75-.26-8.48-3.12-15.28-8.48-20.22-3.16-2.91-7.39-4.53-11.93-4.55l-67.21-.35c-3.31-.02-5.99-2.72-5.97-6.03,.02-3.3,2.7-5.97,6-5.97h.03l67.21,.35c7.54,.04,14.65,2.78,20.01,7.73,5.38,4.95,11.89,13.95,12.34,28.67,.62,19.77-18.45,36.5-19.26,37.2-1.13,.98-2.53,1.46-3.92,1.46Z"/>
                  <path class="cls-2" d="M290.59,377.67c-3.31,0-6-2.69-6-6v-31.31c0-3.31,2.69-6,6-6s6,2.69,6,6v31.31c0,3.31-2.69,6-6,6Z"/>
                  <path class="cls-2" d="M290.59,211.51c-3.31,0-6-2.69-6-6v-25.2c0-3.31,2.69-6,6-6s6,2.69,6,6v25.2c0,3.31-2.69,6-6,6Z"/>
                  <path class="cls-2" d="M329.93,376.92c-3.31,0-6-2.69-6-6v-31.14c0-3.31,2.69-6,6-6s6,2.69,6,6v31.14c0,3.31-2.69,6-6,6Z"/>
                  <path class="cls-2" d="M329.93,214.56c-3.31,0-6-2.69-6-6v-29.03c0-3.31,2.69-6,6-6s6,2.69,6,6v29.03c0,3.31-2.69,6-6,6Z"/>
                </g>
              </g>
              <g>
                <g>
                  <path class="cls-1" d="M218.18,415.81h-74.36v-28.85c0-9.16,7.98-16.58,17.85-16.58h38.83c9.76,0,17.69,7.36,17.69,16.43v29Z"/>
                  <path class="cls-2" d="M222.68,420.31h-83.36v-33.36c0-11.62,10.02-21.08,22.35-21.08h38.83c12.23,0,22.19,9.39,22.19,20.93v33.5Zm-74.36-9h65.36v-24.5c0-6.58-5.91-11.93-13.19-11.93h-38.83c-7.36,0-13.35,5.42-13.35,12.08v24.36Z"/>
                </g>
                <path class="cls-2" d="M181,373.89c-13.8,0-25.04-11.23-25.04-25.04s11.23-25.04,25.04-25.04,25.04,11.23,25.04,25.04-11.23,25.04-25.04,25.04Zm0-41.07c-8.84,0-16.04,7.19-16.04,16.04s7.19,16.04,16.04,16.04,16.04-7.19,16.04-16.04-7.19-16.04-16.04-16.04Z"/>
              </g>
              <g>
                <g>
                  <path class="cls-1" d="M483.35,415.42h-74.36v-28.85c0-9.16,7.98-16.58,17.85-16.58h38.83c9.76,0,17.69,7.36,17.69,16.43v29Z"/>
                  <path class="cls-2" d="M487.85,419.92h-83.36v-33.35c0-11.62,10.02-21.08,22.35-21.08h38.83c12.23,0,22.19,9.39,22.19,20.93v33.5Zm-74.36-9h65.36v-24.5c0-6.58-5.91-11.93-13.19-11.93h-38.83c-7.36,0-13.35,5.42-13.35,12.08v24.35Z"/>
                </g>
                <path class="cls-2" d="M446.17,373.5c-13.8,0-25.04-11.23-25.04-25.04s11.23-25.04,25.04-25.04,25.04,11.23,25.04,25.04-11.23,25.04-25.04,25.04Zm0-41.07c-8.84,0-16.04,7.19-16.04,16.04s7.19,16.04,16.04,16.04,16.04-7.19,16.04-16.04-7.19-16.04-16.04-16.04Z"/>
              </g>
              <g>
                <path class="cls-2" d="M354.58,139.17h-83.36v-33.35c0-11.62,10.02-21.08,22.35-21.08h38.83c12.23,0,22.19,9.39,22.19,20.93v33.5Zm-74.36-9h65.36v-24.5c0-6.58-5.91-11.93-13.19-11.93h-38.83c-7.36,0-13.35,5.42-13.35,12.08v24.35Z"/>
                <path class="cls-2" d="M312.9,92.74c-13.8,0-25.04-11.23-25.04-25.04s11.23-25.04,25.04-25.04,25.04,11.23,25.04,25.04-11.23,25.04-25.04,25.04Zm0-41.07c-8.84,0-16.04,7.19-16.04,16.04s7.19,16.04,16.04,16.04,16.04-7.19,16.04-16.04-7.19-16.04-16.04-16.04Z"/>
              </g>
            </g>
          </g>
        </g>
      </g>
    </g>
  </g>
</svg>