<?xml version="1.0" encoding="UTF-8"?>
<svg xmlns="http://www.w3.org/2000/svg" viewBox="0 0 354.15 354.04">
  <defs>
    <style>
      .cls-1 {
        fill: #f7931a;
      }
    </style>
  </defs>
  <g id="_лой_1" data-name="Слой 1"/>
  <g id="_лой_2" data-name="Слой 2">
    <g id="_лой_1-2" data-name="Слой 1">
      <g>
        <path d="M242.45,268.94c-8.4-8.55-16.2-16.49-24.04-24.47-65.47,37.91-130.57,10.93-159.48-33.19-30.86-47.08-23.02-109.88,18.69-147.39,42.31-38.05,105.53-39.41,149.12-3.55,42.89,35.29,58.44,102.61,18.72,157.98,7.8,8,15.52,15.92,23.27,23.87q12.15-9.24,23.55,2.15c16.82,16.82,33.68,33.59,50.45,50.46,14.75,14.84,15.27,35.96,1.35,49.6-13.74,13.46-34.45,12.79-49.1-1.75-18.23-18.1-36.35-36.3-54.52-54.47q-8.26-8.26,0-16.91c.79-.83,1.5-1.75,2-2.32Zm17.78-18.34c-8.17-8.09-16.05-16.31-24.41-24-5.09-4.69-5.14-8.34-.88-13.85,18.18-23.52,25.71-50.26,20.8-79.67-6.92-41.47-30.76-69.88-70.64-82.54-40.25-12.77-76.7-3.2-105.67,27.54-28.74,30.51-35.92,67.07-21.45,106.46,22.87,62.23,96.86,85.84,154.26,49.81,5.95-3.74,9.87-3.72,14.66,1.58,7.6,8.4,15.85,16.23,24.32,24.81,3.16-3.55,5.65-6.36,9-10.12Zm-11.78,29.51c1.22,1.34,2.42,2.76,3.74,4.08,16.64,16.66,33.28,33.33,49.97,49.94,10.78,10.73,24.6,11.37,34.1,1.7,9.3-9.47,8.64-23.09-1.81-33.59-16.77-16.87-33.63-33.65-50.47-50.45-1.29-1.29-2.77-2.39-3.85-3.31-10.59,10.58-20.83,20.8-31.68,31.64Z"/>
        <path class="cls-1" d="M108.01,.67V10.96H11.61V107.85H.65c-.18-1.34-.57-2.92-.57-4.5C.05,71.94,.11,40.54,0,9.14-.02,3.52,1.38-.02,7.89,0,40.49,.11,73.1,.06,105.7,.1c.67,0,1.33,.32,2.31,.57Z"/>
        <path class="cls-1" d="M188.92,11.41V.43c2.16-.14,4.23-.38,6.3-.38,30.46-.02,60.92-.03,91.38,0,9.23,0,10.25,1.03,10.26,10.24,.02,32.33,0,64.66,0,97.51h-11.11V11.41h-96.84Z"/>
        <path class="cls-1" d="M108.14,285.35v10.86c-1.77,.19-3.37,.52-4.96,.52-31.41,.03-62.83-.02-94.24,.07-5.24,.01-8.9-1.2-8.9-7.38,.04-33.28,.02-66.57,.02-100.39H11.13v96.33H108.14Z"/>
        <path class="cls-1" d="M154.37,57.15c50.22,.11,91.09,41.16,91.08,91.48-.01,50.13-41.27,91.17-91.5,91.02-50.3-.14-91.13-41.15-91.06-91.47,.07-50.21,41.2-91.14,91.48-91.03Zm-.22,171.29c44.38-.03,80.15-35.95,80.09-80.41-.06-43.93-36-79.68-80.07-79.68-44.41,0-80.17,35.92-80.07,80.39,.1,43.97,36.02,79.72,80.05,79.7Z"/>
        <path d="M153.85,184.39c-10.4-3.24-20.82-5.19-29.99-9.68-11.88-5.83-22.85-13.57-34.05-20.73-5.55-3.55-5.59-7.49-.08-11.02,11.19-7.18,22.24-14.7,33.99-20.86,20.31-10.65,41.23-10.56,61.47,.29,11.49,6.16,22.37,13.48,33.36,20.53,5.52,3.54,5.54,7.51,.03,11.03-11.4,7.29-22.57,15.15-34.68,21.05-9.17,4.47-19.64,6.26-30.04,9.4Zm-9.75-14.32c-18.01-15.32-15.5-30.62,.64-43.7-17.12,3.67-28.92,13.68-42.73,22.31,14.37,7.89,25.68,18.55,42.09,21.39Zm62.48-21.62c-14.37-8.1-25.76-18.77-42.36-21.76,18.24,15.57,15.27,30.87-.32,43.46,16.84-2.98,28.25-13.64,42.68-21.7Zm-40.93-.22c-.1-6.47-5.55-11.6-12-11.32-6.17,.27-11.06,5.46-10.97,11.64,.1,6.47,5.54,11.6,12,11.32,6.14-.27,11.06-5.49,10.97-11.64Z"/>
      </g>
    </g>
  </g>
</svg>