<?xml version="1.0" encoding="UTF-8"?>
<svg xmlns="http://www.w3.org/2000/svg" viewBox="0 0 410.83 392.96">
  <defs>
    <style>
      .cls-1 {
        fill: #f7931e;
      }

      .cls-2 {
        fill: #f7931a;
      }
    </style>
  </defs>
  <g id="_лой_1" data-name="Слой 1"/>
  <g id="_лой_2" data-name="Слой 2">
    <g id="_лой_1-2" data-name="Слой 1">
      <g>
        <g>
          <path d="M304.83,259.88h-44.2c-2.13,0-4.19-.78-5.78-2.2l-50.4-44.77-52.95,44.91c-1.57,1.33-3.57,2.07-5.63,2.07h-40.88c-3.19,0-6.12-1.74-7.65-4.54l-1.5-2.75c-1.45-2.66-1.4-5.93,.11-8.54L194.57,74.07c1.55-2.68,4.44-4.34,7.53-4.34h5.79c3.1,0,6,1.67,7.55,4.36l98.12,170.12c1.4,2.43,1.54,5.41,.38,7.96l-1.18,2.6c-1.41,3.1-4.52,5.11-7.93,5.11Zm-43.71-10h42.88l.57-1.25L207.15,79.73h-4.31L104.96,248.43l.79,1.44h39.64l53.44-45.32c3.29-2.79,8.2-2.73,11.42,.13l50.87,45.19Zm-156.53-.82h0Z"/>
          <path class="cls-2" d="M175.57,246.42l27.63-23.18c.76-.64,1.87-.62,2.61,.04l26.14,23.24c.71,.63,.88,1.68,.4,2.5l-25.89,44.34c-.76,1.3-2.62,1.33-3.42,.05l-27.88-44.4c-.53-.84-.36-1.95,.41-2.59Z"/>
        </g>
        <g>
          <path class="cls-1" d="M201.33,347.11c-28.12,0-55.87-7.36-80.88-21.78-37.61-21.67-64.52-56.7-75.79-98.61-.86-3.2,1.04-6.49,4.24-7.35,3.2-.86,6.49,1.04,7.35,4.24,10.43,38.82,35.36,71.26,70.19,91.33,34.83,20.07,75.39,25.38,114.21,14.95,3.2-.86,6.49,1.04,7.35,4.24,.86,3.2-1.04,6.49-4.24,7.35-14.04,3.77-28.28,5.64-42.44,5.64Z"/>
          <path class="cls-1" d="M354.1,225.85c-.45,0-.91-.05-1.36-.16-3.23-.75-5.24-3.98-4.48-7.2,5.56-23.9,5.11-49.15-1.31-73.02-21.54-80.14-104.26-127.82-184.4-106.28-3.2,.86-6.49-1.04-7.35-4.24s1.04-6.49,4.24-7.35c86.53-23.25,175.85,28.22,199.1,114.76,6.92,25.77,7.41,53.03,1.41,78.85-.64,2.77-3.11,4.64-5.84,4.64Z"/>
          <g>
            <path class="cls-1" d="M203.09,392.96c-16.43,0-32.93-1.92-49.18-5.8-3.22-.77-5.21-4.01-4.44-7.23,.77-3.22,4-5.21,7.23-4.44,47.14,11.26,96.56,5.02,139.14-17.58,2.93-1.55,6.56-.44,8.11,2.49,1.55,2.93,.44,6.56-2.49,8.11-30.48,16.17-64.27,24.45-98.37,24.45Z"/>
            <path class="cls-1" d="M404.82,160.08c-2.92,0-5.49-2.14-5.93-5.12-6.98-47.17-30.71-90.25-66.81-121.3-2.51-2.16-2.8-5.95-.64-8.46,2.16-2.51,5.95-2.8,8.46-.64,38.29,32.93,63.46,78.62,70.86,128.65,.48,3.28-1.78,6.33-5.06,6.81-.3,.04-.59,.07-.89,.07Z"/>
            <path class="cls-1" d="M6,134.32c-.54,0-1.09-.07-1.64-.23-3.19-.9-5.04-4.22-4.13-7.41C13.71,79.16,43.64,37.68,84.52,9.9c2.74-1.86,6.47-1.15,8.33,1.59,1.86,2.74,1.15,6.47-1.59,8.33C52.72,46.03,24.49,85.14,11.77,129.95c-.75,2.64-3.15,4.36-5.77,4.36Z"/>
          </g>
          <path d="M201.21,369.1c-37.14,0-73.36-11.23-104.56-32.81-40.53-28.03-67.73-70.18-76.57-118.66h0c-8.84-48.49,1.73-97.51,29.76-138.05C77.87,39.05,120.01,11.85,168.5,3.01c100.09-18.25,196.37,48.33,214.62,148.43,8.84,48.49-1.73,97.51-29.76,138.05-28.03,40.54-70.18,67.73-118.66,76.57-11.17,2.04-22.37,3.04-33.49,3.04Zm.47-357.1c-10.23,0-20.6,.92-31.02,2.82-45.33,8.27-84.73,33.69-110.95,71.59-26.21,37.9-36.09,83.74-27.83,129.07h0c8.27,45.33,33.69,84.74,71.59,110.95,37.9,26.21,83.74,36.09,129.07,27.83,45.33-8.27,84.74-33.69,110.95-71.59,26.21-37.9,36.09-83.74,27.83-129.07C356.15,70.43,283.37,12,201.67,12Z"/>
        </g>
      </g>
    </g>
  </g>
</svg>