<?xml version="1.0" encoding="UTF-8"?>
<svg xmlns="http://www.w3.org/2000/svg" viewBox="0 0 466.84 466.6">
  <defs>
    <style>
      .cls-1 {
        fill: #f7931a;
      }
    </style>
  </defs>
  <g id="_лой_1" data-name="Слой 1"/>
  <g id="_лой_2" data-name="Слой 2">
    <g id="_лой_1-2" data-name="Слой 1">
      <g>
        <g>
          <path class="cls-1" d="M106.04,230.55c.06-.25,.17-.5,.19-.75,.27-3.52,.44-7.04,.8-10.55,.78-7.65,2.38-15.13,4.6-22.49,10.66-35.32,35.8-64.11,69.39-79.38,9.45-4.3,19.3-7.37,29.52-9.25,4.47-.82,8.97-1.43,13.51-1.75,5.76-.4,11.52-.41,17.29-.07,8.19,.49,16.23,1.82,24.15,3.87,37.95,9.84,69.6,37.08,84.91,73.1,1.15,2.71,2.23,5.47,3.19,8.25,2.16,6.21,1.23,11.97-2.78,17.19-7.18,9.35-15.39,17.73-24.22,25.5-6.02,5.3-12.29,10.27-18.75,15.02-.26,.19-.54,.37-.99,.67v-1.35c0-25.01,0-50.03-.01-75.04,0-1.08-.07-2.18-.31-3.23-1.12-4.78-5.38-8.3-10.4-8.28-3.29,.01-6.58,0-9.88,0-2.61,0-5.23,.04-7.84,0-5.56-.1-9.85,4.09-10.75,8.78-.18,.93-.28,1.88-.28,2.83-.01,30.38,0,60.76-.02,91.13,0,1.28,.01,2.59-.24,3.84-.52,2.57-2.01,4.57-4.35,5.71-3.07,1.5-6.25,2.77-9.48,4.19-.06-.32-.12-.53-.13-.74-.02-.34,0-.68,0-1.02,0-25.25,0-50.51,0-75.76,0-1.33-.07-2.64-.46-3.92-1.43-4.65-5.7-7.5-9.66-7.7-.31-.02-.61-.03-.92-.03-5.91,0-11.81,0-17.72,0-3.68,0-6.64,1.48-8.87,4.38-1.51,1.98-2.21,4.23-2.2,6.74,.02,10.86,0,21.72,0,32.58,0,17.07,0,34.15,0,51.22,0,3.54-1.49,6.29-4.51,8.14-.74,.45-1.58,.8-2.42,1.03-2.39,.64-4.8,1.2-7.2,1.79-.06,.02-.13,0-.34,0v-1.28c0-21.93,0-43.85-.01-65.78,0-1.05-.07-2.11-.28-3.13-.94-4.65-5.19-8.57-10.49-8.61-6.11-.04-12.22-.04-18.33,0-5.98,.04-10.58,5.1-10.57,10.93,.04,22.16,.02,44.33,0,66.49,0,1.07-.11,2.18-.37,3.22-.84,3.34-3.82,6.1-7.55,6.44-3.58,.33-7.14,.81-10.72,1.11-1.81,.15-3.63,.37-5.48,.13-5.28-.7-9.26-3.37-11.9-7.93-1.83-3.17-3.54-6.42-5.09-9.73-4.99-10.62-8.33-21.77-10.23-33.35-.72-4.42-1.23-8.87-1.44-13.35-.05-1.08-.1-2.17-.18-3.25-.01-.22-.12-.43-.18-.65v-5.91Z"/>
          <path d="M228.23,360.68c-1.04-.12-2.07-.28-3.11-.36-24.01-1.64-45.8-9.49-65.43-23.39-.24-.17-.46-.37-.78-.63,.33-.1,.54-.18,.76-.22,5.28-.89,10.58-1.7,15.85-2.66,10.38-1.89,20.63-4.33,30.8-7.15,17.08-4.74,33.74-10.66,49.91-17.94,17.46-7.87,34.08-17.21,49.64-28.41,11.21-8.07,21.68-17,31.28-26.93,8.28-8.56,15.79-17.74,22.46-27.6,.18-.27,.38-.53,.73-1,.09,1.13,.22,2.03,.22,2.92,.02,4.45,.13,8.9-.03,13.34-.19,5.12-.88,10.2-1.81,15.25-1.77,9.65-4.59,18.98-8.49,27.97-6.02,13.86-14.17,26.32-24.6,37.27-14.43,15.15-31.59,26.06-51.39,32.8-7.33,2.49-14.84,4.33-22.53,5.34-4.03,.53-8.09,.82-12.14,1.23-.26,.03-.51,.12-.76,.18h-10.59Z"/>
        </g>
        <path d="M233.42,466.6c-10.74,0-20.1-3.63-27.89-10.99-5.36-5.06-10.53-10.32-15.72-15.56-6.21-6.28-13.54-8.12-22.01-5.84-7.11,1.91-14.2,3.91-21.37,5.57-20.71,4.81-41.43-6.8-47.99-26.99-2.27-6.99-4.07-14.14-5.84-21.28-2.31-9.3-7.98-15.01-17.3-17.32-6.98-1.73-13.97-3.5-20.82-5.7-20.79-6.66-32.45-27.38-27.41-48.56,1.7-7.16,3.75-14.23,5.58-21.36,2.08-8.09,.39-15.22-5.57-21.21-4.86-4.88-9.8-9.7-14.6-14.64-16.6-17.11-16.64-41.5-.1-58.64,4.78-4.96,9.71-9.79,14.6-14.63,6.02-5.96,7.73-13.09,5.7-21.17-1.79-7.14-3.87-14.2-5.58-21.36-5.11-21.38,6.75-42.32,27.71-48.82,7.03-2.18,14.18-3.95,21.3-5.81,8.52-2.22,13.9-7.51,16.14-16.04,1.74-6.65,3.47-13.32,5.37-19.93,6.47-22.47,27.86-34.74,50.57-29.03,6.98,1.76,13.92,3.68,20.88,5.52,7.66,2.02,14.28,0,19.89-5.38,4.98-4.77,9.75-9.74,14.67-14.57,17.4-17.07,41.82-17.18,59.32-.25,4.61,4.46,9.15,8.99,13.6,13.6,6.53,6.75,14.18,8.81,23.23,6.21,7.07-2.03,14.16-4.06,21.35-5.58,20.93-4.45,41.11,7.35,47.55,27.77,2.26,7.16,3.99,14.5,5.93,21.76,2.22,8.32,7.48,13.58,15.78,15.83,6.95,1.88,13.96,3.57,20.84,5.67,22.05,6.74,33.92,27.76,28.36,50.11-1.7,6.83-3.58,13.62-5.44,20.4-2.25,8.2-.1,15.17,5.77,21.12,4.61,4.68,9.32,9.27,13.92,13.96,17.41,17.75,17.35,42.24-.14,60.01-4.61,4.68-9.29,9.29-13.92,13.96-5.77,5.82-7.79,12.67-5.68,20.69,2.08,7.89,4.39,15.73,6.04,23.71,4.12,19.95-7.47,39.95-26.85,46.38-6.97,2.31-14.13,4.12-21.28,5.87-9.46,2.31-15.44,7.81-17.69,17.46-1.6,6.85-3.47,13.65-5.57,20.36-6.58,21.03-27.34,32.82-48.8,27.76-7.01-1.65-13.95-3.58-20.9-5.45-8.47-2.27-15.79-.48-21.98,5.86-4.81,4.93-9.68,9.81-14.64,14.6-8.07,7.8-17.69,11.95-29,11.92ZM46.44,327.09c-.05,11.93,5.73,19.48,15.54,22.32,6.91,2,13.95,3.58,20.84,5.64,15.18,4.53,24.9,14.53,29.14,29.8,1.8,6.47,3.38,13.01,5.22,19.47,3.53,12.39,13.82,18.28,26.32,15.11,6.67-1.69,13.3-3.51,19.97-5.23,15.44-3.99,28.81-.13,40.22,10.79,4.86,4.65,9.51,9.53,14.3,14.25,9.43,9.29,21.24,9.38,30.69,.2,5.06-4.91,9.88-10.07,15-14.91,11.22-10.59,24.38-14.21,39.44-10.4,6.82,1.73,13.61,3.62,20.43,5.35,12.24,3.1,22.57-2.81,26.01-14.92,1.92-6.77,3.62-13.6,5.56-20.37,4.36-15.29,14.37-24.98,29.58-29.32,6.31-1.8,12.69-3.33,19.01-5.07,13.19-3.62,19.14-13.96,15.68-27.22-1.58-6.04-3.23-12.05-4.83-18.08-4.27-16.06-.76-30.08,11.02-41.91,4.86-4.88,9.85-9.65,14.58-14.65,8.29-8.76,8.19-20.64-.17-29.3-4.67-4.84-9.51-9.53-14.26-14.29-11.77-11.8-15.44-25.8-11.25-41.88,1.73-6.66,3.71-13.25,5.27-19.95,2.74-11.78-3.3-21.9-14.89-25.21-6.92-1.98-13.92-3.67-20.83-5.69-14.85-4.34-24.52-13.98-28.83-28.84-2.05-7.07-3.72-14.24-5.79-21.3-3.24-11.02-13.48-17.06-24.64-14.47-7.01,1.62-13.9,3.74-20.89,5.48-15.72,3.91-29.48,.36-41.07-11.07-4.56-4.5-9.06-9.07-13.61-13.58-10.02-9.91-21.63-9.85-31.72,.15-4.89,4.85-9.62,9.87-14.66,14.58-10.72,10.02-23.4,13.51-37.72,10.33-7.02-1.56-13.92-3.66-20.89-5.47-13.28-3.46-23.62,2.47-27.22,15.67-1.73,6.33-3.25,12.71-5.06,19.01-4.36,15.19-14.04,25.22-29.33,29.58-6.92,1.97-13.92,3.67-20.84,5.67-11.5,3.32-17.5,13.8-14.6,25.42,1.71,6.83,3.6,13.61,5.37,20.42,4.07,15.61,.22,29.12-10.93,40.61-5.02,5.18-10.31,10.09-15.24,15.35-7.9,8.44-7.79,20.19,.17,28.58,4.19,4.42,8.49,8.74,12.91,12.92,13.51,12.8,17.75,27.96,12.35,45.9-2.26,7.48-3.95,15.13-5.33,20.52Z"/>
      </g>
    </g>
  </g>
</svg>