<?xml version="1.0" encoding="UTF-8"?>
<svg xmlns="http://www.w3.org/2000/svg" viewBox="0 0 510.97 499.43">
  <defs>
    <style>
      .cls-1 {
        fill: #f7931a;
      }
    </style>
  </defs>
  <g id="_лой_1" data-name="Слой 1"/>
  <g id="_лой_2" data-name="Слой 2">
    <g id="_лой_1-2" data-name="Слой 1">
      <g>
        <path d="M510.97,440.84c-33.35,19.34-66.68,38.7-100.11,57.91-1.47,.85-4.24,.92-5.69,.09-29.87-17.05-59.63-34.29-89.41-51.5-.27-.16-.46-.47-1.04-1.1,2.27-3.95,4.61-8.04,7.08-12.35,20.78,12,41.21,23.78,61.63,35.58,7.05,4.07,14.01,8.32,21.2,12.12,1.68,.88,4.62,1.09,6.18,.2,27.56-15.74,55.01-31.66,82.38-47.72,1.45-.85,2.79-3.3,2.79-5.01,.16-31.65,.05-63.29,.18-94.94,.01-3.26-1.49-4.65-3.96-6.07-24.06-13.82-48.08-27.72-72.11-41.6-1.57-.91-3.11-1.88-5.18-3.14,2.29-4.1,4.51-8.08,7.06-12.64,29.81,17.14,59.39,34.16,88.98,51.18v119Z"/>
        <path class="cls-1" d="M361.92,394.78v14.72c-8.19,0-16.3,.34-24.35-.13-4.86-.28-7.14,1.33-9.3,5.71-4.61,9.37-12.67,14.32-23.18,14.73-5.81,.23-11.64,.19-17.45,.05-11.62-.27-19.74-6.11-24.75-16.39-1.08-2.21-1.8-4.68-4.74-3.69-1.68,.57-3.59,1.97-4.35,3.51-5.08,10.31-13.03,16.23-24.61,16.72-5.97,.25-11.98,.35-17.94,.05-11.54-.58-19.7-6.47-24.33-16.98-1.14-2.6-2.44-3.42-5.16-3.37-8.96,.16-17.92,.06-27.61,.06,0-4.28-.25-8.26,.18-12.16,.11-.96,2.43-2.34,3.77-2.39,7.81-.25,15.63-.26,23.44-.12,2.88,.05,4.24-.85,5.49-3.61,4.81-10.62,13.12-16.5,24.94-16.81,5.81-.15,11.64-.25,17.45,0,11.37,.5,19.35,6.29,24.13,16.51,1.05,2.24,1.9,4.66,4.82,3.6,1.66-.6,3.46-2.08,4.23-3.65,4.71-9.55,12.01-15.61,22.68-16.49,7.25-.6,14.64-.66,21.89-.02,10.43,.93,17.88,6.79,22.11,16.35,1.27,2.88,2.73,3.93,5.88,3.84,8.76-.23,17.54-.08,26.78-.08Zm-159.42,15.17c6.28,8.45,31.28,8.1,35.18-.07-2.48-.13-4.92-.25-7.57-.39v-14.25c2.77-.21,5.28-.4,8.11-.61-6.67-8.04-30.22-7.82-35.45,.13,2.53,.18,4.91,.34,7.41,.52v14.26c-2.56,.14-4.85,.26-7.69,.41Zm103.25-14.78c2.9-.25,5.38-.46,8.34-.72-7.17-8.22-30.61-7.83-35.7,.21,2.56,.17,4.97,.32,7.48,.48v14.28c-2.65,.18-4.89,.33-7.35,.49,5.66,7.88,30.21,7.73,35.01-.06-2.65-.22-5.19-.43-7.78-.65v-14.03Z"/>
        <path d="M413.09,323.01c-4.25,2.46-8.1,4.68-12.49,7.22-1.53-2.53-3-4.85-4.37-7.22-2.42-4.18-5.12-8.23-7.08-12.62-2.36-5.29-5.48-7.22-11.65-6.87-9.99,.58-17.9-4.39-23.25-12.92-3.09-4.93-6.05-9.97-8.68-15.16-5.21-10.27-4.36-20.24,2.16-29.72,.75-1.09,1.55-2.14,2.19-3.03-.99-4.38-3.4-5.37-7.64-5.03-11.5,.93-20.29-4.03-26.26-13.87-2.85-4.69-5.63-9.44-8.13-14.33-5.26-10.3-4.42-20.36,2.36-29.63,1.93-2.64,1.9-4.33,.31-6.97-4.53-7.53-8.76-15.24-13.31-23.22,4.27-2.47,8.24-4.76,12.65-7.3,4.48,7.81,8.94,15.2,12.98,22.81,1.66,3.12,3.51,4.07,7.03,3.77,11.94-1.01,20.92,4.05,26.97,14.34,2.45,4.16,4.86,8.34,7.17,12.58,5.95,10.88,5.12,21.32-1.91,31.49-.88,1.28-1.25,3.81-.57,5.02,.73,1.28,3.07,2.49,4.59,2.36,13.51-1.14,23.1,4.5,29.42,16.28,2.13,3.96,4.58,7.74,6.6,11.75,5.17,10.27,4.61,20.35-2.14,29.67-2.06,2.84-1.87,4.71-.2,7.47,4.46,7.4,8.62,14.99,13.25,23.13Zm-74.64-100.47c-1.13-2.45-2.18-4.73-3.34-7.25,4.3-2.44,8.25-4.67,12.21-6.91,1.72,2.54,3.03,4.46,4.57,6.73,3.62-9.84-8.53-30.54-17.73-30.91,1.13,2.41,2.21,4.71,3.41,7.28-4.34,2.44-8.3,4.65-12.26,6.88-1.73-2.6-3.04-4.57-4.56-6.86-3.83,9.41,8.01,29.85,17.69,31.04Zm34.16,58.74c4.14-2.38,8.1-4.66,12.29-7.07,1.62,2.37,3.04,4.46,4.71,6.91,3.3-10.15-8.43-30.36-17.8-31.07,1.16,2.47,2.23,4.76,3.41,7.28-4.21,2.39-8.17,4.64-12.25,6.96-1.66-2.49-2.98-4.48-4.47-6.73-4.09,9.32,8.3,30.42,17.68,30.75-1.16-2.28-2.27-4.47-3.56-7.02Z"/>
        <path d="M201.41,142.34c4.39,2.5,8.24,4.69,12.69,7.23-4.39,7.73-8.45,15.31-12.97,22.61-1.96,3.17-1.82,5.22,.37,8.29,6.2,8.68,6.97,18.27,2.42,27.9-2.76,5.85-6.07,11.5-9.63,16.91-5.99,9.11-14.73,13.1-25.58,12.48-2.4-.14-4.61-.88-6.34,2.18-1.82,3.22,.49,4.55,1.74,6.48,5.91,9.14,6.68,18.7,1.91,28.46-2.55,5.22-5.53,10.26-8.61,15.2-6.21,9.96-15.37,14.55-26.99,13.44-3.3-.31-4.7,.66-6.15,3.33-4.21,7.72-8.7,15.29-13.34,23.37-4.26-2.43-8.23-4.7-12.69-7.25,4.54-7.95,8.8-15.63,13.29-23.16,1.62-2.71,1.84-4.54-.26-7.42-6.79-9.28-7.39-19.4-2.17-29.66,2.49-4.89,5.3-9.63,8.16-14.31,6.01-9.85,14.85-14.43,26.37-13.73,2.42,.15,4.67,.85,6.39-2.17,1.78-3.14-.39-4.57-1.66-6.54-6.01-9.31-6.68-19-1.71-28.91,2.39-4.75,5.17-9.31,7.86-13.9,6.05-10.33,15.08-15.31,27-14.25,3.62,.32,5.37-.87,6.98-3.85,4.03-7.45,8.35-14.75,12.92-22.74Zm-48.3,114.76c-1.83,2.72-3.27,4.84-4.85,7.18-4.28-2.5-8.21-4.79-12.19-7.11,1.34-2.7,2.39-4.83,3.57-7.22-9.77,1-21.66,21.8-17.65,30.84l4.39-6.6c4.2,2.42,8.26,4.75,12.33,7.09-1.37,2.75-2.44,4.88-3.65,7.3,9.96-1.57,21.35-21.21,18.04-31.47Zm6.34-42.16c1.63-2.28,3.1-4.34,4.7-6.58,4.2,2.45,8.13,4.75,12.14,7.08-1.31,2.63-2.39,4.78-3.56,7.13,9.99-1.12,22.28-22.72,17.52-30.63-1.41,2.13-2.75,4.15-4.31,6.49-4.17-2.4-8.15-4.7-12.32-7.11,1.3-2.54,2.45-4.79,3.77-7.37-9.88,1.23-21.45,21.42-17.95,30.99Z"/>
        <path d="M89.38,270.08c2.35,4.07,4.59,7.95,7.08,12.26-1.57,1.03-2.98,2.05-4.48,2.92-24.45,14.16-48.89,28.36-73.42,42.39-2.84,1.63-3.82,3.4-3.81,6.66,.13,31.16,.11,62.32,.02,93.48,0,3,.82,4.77,3.53,6.32,27.11,15.54,54.17,31.18,81.14,46.97,2.91,1.71,4.93,1.41,7.64-.16,26.13-15.24,52.34-30.36,78.53-45.5,1.55-.9,3.16-1.71,5.16-2.79,2.42,4.18,4.71,8.14,7.25,12.52-10.83,6.29-21.28,12.37-31.74,18.43-19.71,11.41-39.47,22.73-59.11,34.26-2.96,1.74-5.11,1.72-8.08-.01-31.59-18.43-63.24-36.74-94.96-54.94C1.17,441.19-.01,439.43,0,435.94c.14-36.66,.09-73.31,.08-109.97,0-2.46-.19-4.55,2.72-6.2,28.29-16.16,56.45-32.53,84.66-48.84,.43-.25,.9-.4,1.92-.85Z"/>
        <path d="M358.18,160.26h-14.15c0-2.25,0-4.19,0-6.14,0-26.66-.12-53.32,.11-79.97,.04-5.06-1.32-7.97-5.93-10.58-26.04-14.72-51.9-29.78-77.71-44.9-3.41-2-5.9-2.19-9.44-.11-26.37,15.49-52.86,30.79-79.41,45.96-3.16,1.81-4.32,3.73-4.3,7.38,.16,27.49,.09,54.98,.09,82.47v5.81h-14.42c-.1-1.64-.27-3.25-.27-4.85-.02-30.66,.06-61.31-.11-91.97-.02-3.72,1.27-5.56,4.36-7.34,31.57-18.11,63.09-36.33,94.52-54.68,3.16-1.85,5.38-1.75,8.49,.06,31.44,18.35,62.96,36.55,94.51,54.7,2.68,1.54,4.12,3.12,4.1,6.53-.15,30.99-.08,61.98-.1,92.97,0,1.46-.21,2.91-.34,4.65Z"/>
        <path class="cls-1" d="M248.43,205.57c0-2.45,0-4.39,0-6.33,0-23.83-.11-47.66,.11-71.49,.04-4.11-1.41-6.21-4.84-8.16-20.8-11.84-41.49-23.9-62.2-35.89-1.55-.9-3.06-1.88-4.87-3,2.44-4.23,4.72-8.21,7.23-12.57,5.82,3.36,11.26,6.5,16.69,9.64,17.13,9.91,34.29,19.75,51.34,29.78,2.81,1.66,4.87,1.6,7.69-.06,20.65-12.11,41.41-24.03,62.13-36.01,1.71-.99,3.42-1.96,5.75-3.29,2.44,4.19,4.73,8.12,7.28,12.51-1.93,1.19-3.55,2.25-5.23,3.22-20.72,12-41.4,24.05-62.2,35.9-3.14,1.79-4.36,3.72-4.33,7.4,.17,23.83,.09,47.66,.09,71.49q0,6.86-7.1,6.86c-2.29,0-4.58,0-7.53,0Z"/>
        <path class="cls-1" d="M479.68,331.54c2.49,4.32,4.79,8.3,7.26,12.59-10.26,5.97-20.14,11.73-30.03,17.47-12.5,7.25-24.96,14.59-37.57,21.64-3.16,1.77-4.34,3.74-4.31,7.41,.18,23.81,.1,47.63,.1,71.44,0,1.98,0,3.96,0,6.31h-14.68c0-1.79,0-3.56,0-5.33-.01-23.98-.11-47.96,.06-71.94,.03-3.96-1.1-6.24-4.64-8.24-20.81-11.79-41.47-23.85-62.18-35.82-1.43-.83-2.83-1.69-4.89-2.93,2.31-4.1,4.55-8.05,7.11-12.57,1.75,.96,3.3,1.76,4.81,2.63,21,12.14,42.04,24.2,62.95,36.5,3.17,1.87,5.42,1.74,8.51-.08,20.76-12.22,41.64-24.23,62.48-36.3,1.55-.9,3.13-1.73,5.04-2.79Z"/>
        <path class="cls-1" d="M95.81,468.28c0-2.73,0-4.69,0-6.65,0-23.83-.08-47.66,.09-71.49,.03-3.63-1.08-5.63-4.26-7.44-20.81-11.84-41.49-23.9-62.21-35.89-1.71-.99-3.4-2-5.43-3.19,2.44-4.25,4.72-8.23,7.25-12.65,8.95,5.15,17.69,10.16,26.41,15.2,13.96,8.07,27.96,16.09,41.84,24.29,2.63,1.56,4.6,1.55,7.24,0,20.95-12.26,41.99-24.37,63-36.51,1.56-.9,3.17-1.74,5.19-2.84,2.41,4.15,4.71,8.09,7.24,12.43-2.01,1.23-3.65,2.29-5.34,3.26-20.44,11.82-40.81,23.76-61.38,35.34-3.92,2.21-5.1,4.65-5.06,9,.21,23.83,0,47.66,.2,71.49,.04,4.27-.94,6.22-5.48,5.71-2.78-.31-5.62-.06-9.3-.06Z"/>
        <path d="M214.53,213.42c2.47-4.29,4.77-8.28,7.31-12.7,10.12,5.84,20.05,11.41,29.79,17.29,2.93,1.77,5.12,1.83,8.08,.04,9.64-5.83,19.47-11.35,29.72-17.27,2.39,4.07,4.71,8,7.33,12.45-1.68,1.06-3.13,2.04-4.63,2.91-11.05,6.41-22.07,12.87-33.21,19.11-1.47,.82-4.02,1.3-5.31,.57-13.02-7.26-25.89-14.8-39.07-22.42Z"/>
        <path d="M166.01,298.27c13,7.5,25.51,14.68,37.95,21.98,.96,.57,1.97,2.04,1.98,3.1,.13,13.28,.09,26.57,.09,40.23h-14.55c0-5.53-.74-11.23,.15-16.66,2.11-12.79-2.31-20.9-14.6-25.55-6.27-2.37-11.81-6.66-18.23-10.41,2.41-4.24,4.72-8.3,7.22-12.7Z"/>
        <path d="M319.41,361.48c-1.09,.4-1.39,.58-1.71,.62q-12.9,1.34-12.91-11.48c0-8.33-.11-16.67,.07-24.99,.03-1.58,.77-3.88,1.94-4.58,12.66-7.58,25.48-14.91,38.65-22.54,2.5,4.3,4.8,8.25,7.35,12.64-9.7,5.64-18.89,11.26-28.36,16.36-3.92,2.11-5.35,4.55-5.15,8.99,.38,8.28,.11,16.6,.11,24.99Z"/>
      </g>
    </g>
  </g>
</svg>