<?xml version="1.0" encoding="UTF-8"?>
<svg xmlns="http://www.w3.org/2000/svg" viewBox="0 0 477.97 479.29">
  <defs>
    <style>
      .cls-1 {
        fill: #f7931a;
      }
    </style>
  </defs>
  <g id="_лой_1" data-name="Слой 1"/>
  <g id="_лой_2" data-name="Слой 2">
    <g id="_лой_1-2" data-name="Слой 1">
      <g>
        <path d="M32.76,479.29c-.16,0-.32,0-.48,0-4.97-.13-9.56-2.22-12.91-5.89l-14.64-16.04c-6.48-7.1-6.29-18.04,.41-24.92C55.59,380.74,306.99,125.67,356.88,75.07c2.39-2.43,5.59-3.78,9-3.8h.07c3.38,0,6.57,1.31,8.97,3.7l23.72,23.26c2.18,2.14,3.4,5.01,3.42,8.07,.02,3.06-1.15,5.94-3.31,8.11l-115.83,116.83c-1.94,1.96-5.11,1.97-7.07,.03-1.96-1.94-1.97-5.11-.03-7.07l115.83-116.83c.34-.34,.41-.74,.41-1,0-.27-.08-.66-.42-1l-23.74-23.28c-.54-.53-1.22-.82-1.95-.82h-.01c-.73,0-1.42,.29-1.94,.82C314.12,132.69,62.73,387.74,12.31,439.42c-3.01,3.09-3.09,8-.18,11.19l14.64,16.04c1.5,1.64,3.55,2.58,5.78,2.64,2.23,.05,4.32-.77,5.9-2.34l37.19-36.8c1.96-1.94,5.13-1.93,7.07,.04,1.94,1.96,1.93,5.13-.04,7.07l-37.19,36.8c-3.42,3.39-7.92,5.23-12.71,5.23Z"/>
        <path class="cls-1" d="M95.08,421.75c-1.27,0-2.53-.48-3.5-1.43-1.97-1.94-2-5.1-.06-7.07l167.11-170.07c1.93-1.97,5.1-2,7.07-.06,1.97,1.94,2,5.1,.06,7.07L98.64,420.26c-.98,1-2.27,1.5-3.57,1.5Z"/>
        <path d="M468.63,304.77c-2.37,0-4.7-.93-6.5-2.73L174.3,15.88c-2.91-2.89-3.58-7.27-1.68-10.9,1.91-3.63,5.9-5.56,9.92-4.82,7.12,1.33,16.12,2.91,25.66,4.58,28.4,4.98,41.16,7.31,44.15,8.63,8.82,3.89,103.98,98.35,152.52,147.89,1.93,1.97,1.9,5.14-.07,7.07-1.97,1.93-5.14,1.9-7.07-.07C334.01,103.21,256.1,27.26,248.24,22.48c-3.16-1.12-25.45-5.03-41.76-7.9-8.58-1.51-16.73-2.94-23.49-4.18L467.63,293.42c-.71-4.65-1.45-9.85-2.22-15.32-2.47-17.46-5.85-41.37-9.11-47.42-1.49-2.76-7.42-11.05-30.46-35.56-1.89-2.01-1.79-5.18,.22-7.07,2.01-1.89,5.18-1.79,7.07,.22,18.43,19.6,28.89,31.92,31.99,37.67,3.81,7.07,6.63,25.5,10.2,50.76,.89,6.28,1.73,12.21,2.53,17.31,.64,4.04-1.3,7.86-4.95,9.72-1.38,.7-2.83,1.05-4.28,1.05Z"/>
        <g>
          <path class="cls-1" d="M315.69,99.35l-15.37,14.39c-6.19,5.79-9.69,13.89-9.69,22.37v8.53c0,7.69,2.89,15.1,8.1,20.76l9.81,10.65c6.12,6.64,14.85,10.25,23.87,9.86l7.59-.33c7.87-.34,15.3-3.7,20.76-9.38l15.22-15.83c11.53-11.99,11.39-30.98-.31-42.8l-17.25-17.42c-11.68-11.79-30.62-12.15-42.73-.8Z"/>
          <path d="M331.07,191.94c-10.23,0-19.97-4.26-26.94-11.82l-9.81-10.65c-6.25-6.78-9.69-15.6-9.69-24.82v-8.53c0-10.1,4.23-19.84,11.59-26.74l15.37-14.39c14.58-13.66,37.03-13.24,51.09,.96l17.25,17.42c14.11,14.25,14.27,36.73,.37,51.18l-15.22,15.83c-6.56,6.82-15.37,10.8-24.82,11.21l-7.59,.33c-.54,.02-1.07,.04-1.61,.04Zm-11.28-88.21l-15.37,14.39c-4.96,4.64-7.8,11.2-7.8,17.99v8.53c0,6.2,2.31,12.13,6.52,16.69l9.81,10.65c4.93,5.35,11.93,8.24,19.2,7.93l7.59-.33c6.36-.28,12.28-2.95,16.69-7.54l15.22-15.83c9.35-9.72,9.24-24.84-.25-34.42l-17.25-17.42c-9.46-9.55-24.55-9.83-34.36-.65Z"/>
        </g>
      </g>
    </g>
  </g>
</svg>