<?xml version="1.0" encoding="UTF-8"?>
<svg xmlns="http://www.w3.org/2000/svg" viewBox="0 0 381.58 383.31">
  <defs>
    <style>
      .cls-1 {
        fill: #f7931a;
      }
    </style>
  </defs>
  <g id="_лой_1" data-name="Слой 1"/>
  <g id="_лой_2" data-name="Слой 2">
    <g id="_лой_1-2" data-name="Слой 1">
      <g>
        <path d="M88.28,383.31c-7.13-1.63-14.53-2.55-21.36-5.02C28.03,364.18,5.36,336.49,.67,295.32c-3.41-29.98,6.28-56.18,27.38-77.73,22.95-23.45,46.34-46.46,69.52-69.68,2.38-2.39,5-3.34,8.02-1.34,2.4,1.59,3,4.05,2.04,6.6-.54,1.43-1.79,2.67-2.92,3.8-22.21,22.25-44.39,44.53-66.68,66.69-15.66,15.58-24.49,34.17-26.32,56.28-3.43,41.4,25.9,81.26,66.77,89.79,30.85,6.44,57.88-1.38,80.37-23.49,23.22-22.82,46.3-45.79,69.05-69.09,33.4-34.22,33.35-87.69,.33-121.02-4.25-4.29-9.15-6.05-14.95-4.37-10.27,2.98-13.48,15.44-5.93,23.45,6.26,6.63,11.45,13.89,14.17,22.61,6.85,21.96,2.84,41.84-12.98,58.58-14.13,14.96-28.99,29.22-43.56,43.76-3.05,3.04-6.43,3.35-8.91,.98-2.69-2.57-2.46-5.84,.83-9.13,13.65-13.69,27.35-27.35,41.01-41.03,20.08-20.11,20.54-47.06,1.19-67.74-10.01-10.7-9.87-26.39,.33-36.32,10.22-9.95,26.21-9.59,36.62,.82,36.98,36.98,38.12,97.7,1.83,135.52-24.09,25.11-48.92,49.53-73.83,73.83-15.19,14.82-33.84,23.03-54.94,25.57-.71,.09-1.39,.42-2.09,.64h-18.71Z"/>
        <path class="cls-1" d="M117.23,169.44c.46-28.46,9.02-51.09,26.96-69.7,16.1-16.71,32.71-32.91,49.13-49.31,3.05-3.05,6.39-3.38,8.9-1.04,2.67,2.49,2.45,5.92-.79,9.17-15.77,15.81-31.67,31.49-47.34,47.4-33.46,33.97-33.78,87.16-.87,121.01,6.32,6.5,15.03,7.08,20.94,1.39,6.02-5.79,5.82-14.23-.5-20.97-22.67-24.18-22.17-58.79,1.26-82.3,22.55-22.62,45.02-45.31,67.77-67.72,29.56-29.13,78.29-20.44,94.27,17.03,9.59,22.48,6.25,43.85-10.25,61.9-14.71,16.1-30.67,31.06-46.13,46.48-2.86,2.85-6.19,2.95-8.61,.55-2.55-2.53-2.34-5.76,.76-8.87,14.71-14.76,29.55-29.37,44.16-44.23,20.34-20.69,17.31-54.26-6.22-70.62-17.59-12.23-42.85-10.65-58.33,4.48-24.08,23.55-47.93,47.34-71.45,71.45-17.08,17.51-16.44,45.56,.82,63.65,7.12,7.46,10.08,15.97,7.25,26.01-5.23,18.58-28.27,24.84-42.31,11.35-14.82-14.25-23.99-31.71-27.66-51.93-1.07-5.86-1.39-11.86-1.77-15.17Z"/>
        <path d="M278.06,0c56.36-.01,98.6,38.25,103.06,88.13,2.73,30.51-6.83,56.82-28.26,78.6-22.57,22.94-45.48,45.55-68.22,68.32-2.39,2.39-4.93,3.97-8.26,1.98-2.47-1.47-3.29-3.88-2.39-6.46,.54-1.55,1.84-2.93,3.04-4.14,22.11-22.17,44.19-44.36,66.41-66.42,14-13.89,22.61-30.37,25.82-49.89,7.37-44.77-24.97-90.1-69.72-97.27-29.92-4.8-55.69,3.49-77.24,24.82-.89,.88-1.73,1.8-2.67,2.62-2.77,2.42-6.12,2.45-8.36,.13-2.34-2.42-2.5-5.79,.42-8.27,7.67-6.51,15.12-13.48,23.57-18.83C250,3.98,266.58,.07,278.06,0Z"/>
        <path class="cls-1" d="M96.56,331.9c13.64-.26,24.5-4.57,33.58-13.2,2.98-2.83,5.77-5.88,8.8-8.65,2.56-2.34,5.85-2.19,8.05,.07,2.09,2.14,2.3,5.37,.14,7.79-10.92,12.25-23.38,21.82-40.2,24.79-32.03,5.66-63.51-17.87-66.72-50.19-1.85-18.67,3.78-34.65,16.99-47.93,14.42-14.5,28.92-28.92,43.36-43.4,2.17-2.17,4.44-3.7,7.61-2.15,3.18,1.55,4.26,5.24,2.28,8.22-.75,1.13-1.8,2.06-2.76,3.03-14.19,14.2-28.48,28.31-42.56,42.62-13.05,13.26-17.07,29.23-11.63,46.83,5.38,17.37,17.68,27.89,35.64,31.44,2.79,.55,5.69,.58,7.42,.75Z"/>
      </g>
    </g>
  </g>
</svg>