<?xml version="1.0" encoding="UTF-8"?>
<svg xmlns="http://www.w3.org/2000/svg" viewBox="0 0 621.07 578.02">
  <defs>
    <style>
      .cls-1 {
        fill: #fff;
      }

      .cls-2 {
        fill: #f7931a;
      }
    </style>
  </defs>
  <g id="_лой_1" data-name="Слой 1"/>
  <g id="_лой_2" data-name="Слой 2">
    <g id="_лой_1-2" data-name="Слой 1">
      <g>
        <g>
          <path d="M489.6,307.24c-11.25,0-20.4-9.15-20.4-20.4s9.15-20.4,20.4-20.4,20.4,9.15,20.4,20.4-9.15,20.4-20.4,20.4Zm0-33.8c-7.39,0-13.4,6.01-13.4,13.4s6.01,13.4,13.4,13.4,13.4-6.01,13.4-13.4-6.01-13.4-13.4-13.4Z"/>
          <path d="M140.58,307.24c-11.25,0-20.4-9.15-20.4-20.4s9.15-20.4,20.4-20.4,20.4,9.15,20.4,20.4-9.15,20.4-20.4,20.4Zm0-33.8c-7.39,0-13.4,6.01-13.4,13.4s6.01,13.4,13.4,13.4,13.4-6.01,13.4-13.4-6.01-13.4-13.4-13.4Z"/>
          <g>
            <path d="M469.85,290.35H159.92c-1.93,0-3.5-1.57-3.5-3.5s1.57-3.5,3.5-3.5H469.85c1.93,0,3.5,1.57,3.5,3.5s-1.57,3.5-3.5,3.5Z"/>
            <path d="M429.55,246.82H199.63c-1.93,0-3.5-1.57-3.5-3.5s1.57-3.5,3.5-3.5h229.93c1.93,0,3.5,1.57,3.5,3.5s-1.57,3.5-3.5,3.5Z"/>
            <path d="M429.55,333.87H199.63c-1.93,0-3.5-1.57-3.5-3.5s1.57-3.5,3.5-3.5h229.93c1.93,0,3.5,1.57,3.5,3.5s-1.57,3.5-3.5,3.5Z"/>
            <path d="M358.44,405.31c-1.93,0-3.5-1.57-3.5-3.5V171.88c0-1.93,1.57-3.5,3.5-3.5s3.5,1.57,3.5,3.5v229.93c0,1.93-1.57,3.5-3.5,3.5Z"/>
            <path d="M271.33,405.31c-1.93,0-3.5-1.57-3.5-3.5V171.88c0-1.93,1.57-3.5,3.5-3.5s3.5,1.57,3.5,3.5v229.93c0,1.93-1.57,3.5-3.5,3.5Z"/>
            <path d="M314.59,448.92c-1.93,0-3.5-1.57-3.5-3.5V135.5c0-1.93,1.57-3.5,3.5-3.5s3.5,1.57,3.5,3.5V445.42c0,1.93-1.57,3.5-3.5,3.5Z"/>
            <path d="M314.59,137.09c-11.14,0-20.2-9.06-20.2-20.2s9.06-20.2,20.2-20.2,20.2,9.06,20.2,20.2-9.06,20.2-20.2,20.2Zm0-33.41c-7.28,0-13.2,5.92-13.2,13.2s5.92,13.2,13.2,13.2,13.2-5.92,13.2-13.2-5.92-13.2-13.2-13.2Z"/>
            <path d="M271.33,172.79c-11.25,0-20.4-9.15-20.4-20.4s9.15-20.4,20.4-20.4,20.4,9.15,20.4,20.4-9.15,20.4-20.4,20.4Zm0-33.8c-7.39,0-13.4,6.01-13.4,13.4s6.01,13.4,13.4,13.4,13.4-6.01,13.4-13.4-6.01-13.4-13.4-13.4Z"/>
            <path d="M358.44,172.79c-11.25,0-20.4-9.15-20.4-20.4s9.15-20.4,20.4-20.4,20.4,9.15,20.4,20.4-9.15,20.4-20.4,20.4Zm0-33.8c-7.39,0-13.4,6.01-13.4,13.4s6.01,13.4,13.4,13.4,13.4-6.01,13.4-13.4-6.01-13.4-13.4-13.4Z"/>
            <path d="M448.27,263.71c-11.25,0-20.4-9.15-20.4-20.4s9.15-20.4,20.4-20.4,20.4,9.15,20.4,20.4-9.15,20.4-20.4,20.4Zm0-33.8c-7.39,0-13.4,6.01-13.4,13.4s6.01,13.4,13.4,13.4,13.4-6.01,13.4-13.4-6.01-13.4-13.4-13.4Z"/>
            <path d="M448.27,350.77c-11.25,0-20.4-9.15-20.4-20.4s9.15-20.4,20.4-20.4,20.4,9.15,20.4,20.4-9.15,20.4-20.4,20.4Zm0-33.8c-7.39,0-13.4,6.01-13.4,13.4s6.01,13.4,13.4,13.4,13.4-6.01,13.4-13.4-6.01-13.4-13.4-13.4Z"/>
            <path d="M182.73,263.71c-11.25,0-20.4-9.15-20.4-20.4s9.15-20.4,20.4-20.4,20.4,9.15,20.4,20.4-9.15,20.4-20.4,20.4Zm0-33.8c-7.39,0-13.4,6.01-13.4,13.4s6.01,13.4,13.4,13.4,13.4-6.01,13.4-13.4-6.01-13.4-13.4-13.4Z"/>
            <path d="M180.62,350.77c-11.25,0-20.4-9.15-20.4-20.4s9.15-20.4,20.4-20.4,20.4,9.15,20.4,20.4-9.15,20.4-20.4,20.4Zm0-33.8c-7.39,0-13.4,6.01-13.4,13.4s6.01,13.4,13.4,13.4,13.4-6.01,13.4-13.4-6.01-13.4-13.4-13.4Z"/>
            <path d="M314.59,482.72c-11.25,0-20.4-9.15-20.4-20.4s9.15-20.4,20.4-20.4,20.4,9.15,20.4,20.4-9.15,20.4-20.4,20.4Zm0-33.8c-7.39,0-13.4,6.01-13.4,13.4s6.01,13.4,13.4,13.4,13.4-6.01,13.4-13.4-6.01-13.4-13.4-13.4Z"/>
            <path d="M358.44,441.12c-11.25,0-20.4-9.15-20.4-20.4s9.15-20.4,20.4-20.4,20.4,9.15,20.4,20.4-9.15,20.4-20.4,20.4Zm0-33.8c-7.39,0-13.4,6.01-13.4,13.4s6.01,13.4,13.4,13.4,13.4-6.01,13.4-13.4-6.01-13.4-13.4-13.4Z"/>
            <path d="M271.33,441.12c-11.25,0-20.4-9.15-20.4-20.4s9.15-20.4,20.4-20.4,20.4,9.15,20.4,20.4-9.15,20.4-20.4,20.4Zm0-33.8c-7.39,0-13.4,6.01-13.4,13.4s6.01,13.4,13.4,13.4,13.4-6.01,13.4-13.4-6.01-13.4-13.4-13.4Z"/>
            <g>
              <path class="cls-1" d="M315.77,373.4c54.2-18.57,68.87-55.41,72.1-66.26,.53-1.79,.79-3.65,.79-5.52v-75.43c0-3.05-2.38-5.55-5.42-5.72-5.93-.32-15.93-1.67-25.99-6.63-17.07-8.41-23.78-13.56-23.78-13.56h-35.96s-6.71,5.14-23.78,13.56c-10.06,4.96-20.06,6.31-25.99,6.63-3.04,.17-5.42,2.67-5.42,5.72v75.43c0,1.87,.26,3.73,.79,5.52,3.22,10.85,17.9,47.69,72.1,66.26h.55Z"/>
              <path d="M316.36,376.9h-1.72l-.55-.19c-55.73-19.09-70.97-57.31-74.32-68.57-.62-2.09-.94-4.28-.94-6.51v-75.43c0-4.9,3.83-8.95,8.73-9.22,6.11-.33,15.34-1.69,24.63-6.27,16.44-8.11,23.14-13.15,23.2-13.2l.94-.71h38.33l.94,.72c.06,.05,6.75,5.09,23.2,13.19,9.29,4.58,18.52,5.94,24.63,6.27,4.89,.27,8.73,4.31,8.73,9.22v75.43c0,2.23-.31,4.42-.94,6.51-3.35,11.26-18.59,49.48-74.32,68.57l-.55,.19Zm-17.71-173.11c-2.47,1.72-9.63,6.42-23.36,13.19-10.35,5.1-20.58,6.62-27.35,6.98-1.18,.06-2.11,1.04-2.11,2.23v75.43c0,1.56,.22,3.08,.65,4.52,3.09,10.39,17.17,45.55,69.02,63.65,51.85-18.1,65.93-53.26,69.02-63.65,.43-1.44,.65-2.96,.65-4.52v-75.43c0-1.18-.93-2.16-2.11-2.23-6.76-.37-16.99-1.88-27.35-6.98-13.73-6.77-20.9-11.47-23.36-13.19h-33.7Z"/>
            </g>
          </g>
          <g>
            <path class="cls-2" d="M316.25,333.37c-20.57,0-29.36-13.08-32.77-20.87-1.31-3-1.97-6.23-1.97-9.6v-25.69c0-4.83,3.93-8.76,8.76-8.76h51.41c4.31,0,7.81,3.5,7.81,7.81v27.09c0,2.57-.64,5.12-1.85,7.37-3.66,6.81-14.04,22.65-31.39,22.65Zm-25.98-58.92c-1.52,0-2.76,1.24-2.76,2.76v25.69c0,2.54,.5,4.96,1.47,7.19,2.82,6.45,10.11,17.27,27.27,17.27,14.11,0,22.95-13.63,26.1-19.49,.74-1.38,1.13-2.95,1.13-4.53v-27.09c0-1-.81-1.81-1.81-1.81h-51.41Z"/>
            <path class="cls-2" d="M340.97,270.27l-7-.26c.17-4.6,.45-17.42-.31-21.47-.64-3.38-5.08-12.17-17.85-12.17-9.89,0-15.31,3.83-17.05,12.05-.34,1.69-.26,12.53,.01,21.6l-7,.21c-.14-4.64-.55-20.05,.14-23.26,1.7-8.03,7.23-17.6,23.9-17.6,15.68,0,23.38,10.69,24.73,17.87,1.04,5.55,.49,21.25,.42,23.02Z"/>
            <g>
              <path class="cls-2" d="M315.5,314.51c-2.21,0-4-1.79-4-4v-15.97c0-2.21,1.79-4,4-4s4,1.79,4,4v15.97c0,2.21-1.79,4-4,4Z"/>
              <path class="cls-2" d="M315.5,302.69c-4.49,0-8.15-3.66-8.15-8.15s3.66-8.15,8.15-8.15,8.15,3.66,8.15,8.15-3.66,8.15-8.15,8.15Zm0-8.3c-.08,0-.15,.07-.15,.15,0,.16,.3,.16,.3,0,0-.08-.07-.15-.15-.15Z"/>
            </g>
          </g>
        </g>
        <g>
          <path d="M325.28,534.46c-3.87,0-7-3.13-7-7s3.13-7,7-7c130.2,0,236.13-105.93,236.13-236.13,0-3.87,3.13-7,7-7s7,3.13,7,7c0,66.81-26.02,129.62-73.26,176.87s-110.06,73.26-176.87,73.26Z"/>
          <path d="M82.16,291.33c-3.87,0-7-3.13-7-7,0-66.81,26.02-129.62,73.26-176.87s110.06-73.26,176.87-73.26c41.06,0,81.79,10.17,117.77,29.41,3.41,1.82,4.7,6.06,2.87,9.47-1.82,3.41-6.06,4.7-9.47,2.87-33.96-18.16-72.4-27.75-111.17-27.75-130.2,0-236.13,105.93-236.13,236.13,0,3.87-3.13,7-7,7Z"/>
          <g>
            <path d="M17.07,212.39c-.58,0-1.17-.07-1.76-.22-3.74-.97-5.99-4.79-5.03-8.53C30.01,127.27,77.01,60.72,142.63,16.24c3.2-2.17,7.55-1.33,9.72,1.87,2.17,3.2,1.33,7.55-1.87,9.72C87.69,70.4,42.71,134.08,23.84,207.14c-.82,3.16-3.66,5.25-6.77,5.25Z"/>
            <path d="M84.38,499.72c-1.96,0-3.91-.82-5.29-2.42C28.08,438.4,0,363.01,0,285.01c0-3.87,3.13-7,7-7s7,3.13,7,7c0,74.64,26.87,146.78,75.67,203.13,2.53,2.92,2.21,7.34-.71,9.87-1.32,1.15-2.96,1.71-4.58,1.71Z"/>
            <path d="M462.43,578.02c-2.6,0-5.1-1.46-6.31-3.96-1.68-3.48-.22-7.67,3.26-9.35,65.69-31.74,118.35-85.83,148.3-152.31,1.59-3.53,5.73-5.1,9.26-3.51,3.52,1.59,5.09,5.73,3.51,9.26-31.3,69.47-86.34,126-154.98,159.17-.98,.47-2.02,.7-3.04,.7Z"/>
          </g>
          <path class="cls-2" d="M325.28,568.67c-75.95,0-147.35-29.58-201.05-83.28s-83.28-125.11-83.28-201.05,29.58-147.35,83.28-201.05S249.34,0,325.28,0s147.35,29.58,201.05,83.28c53.7,53.7,83.28,125.11,83.28,201.05s-29.58,147.35-83.28,201.05c-53.7,53.7-125.11,83.28-201.05,83.28Zm0-554.67C176.22,14,54.95,135.27,54.95,284.33s121.27,270.33,270.33,270.33,270.33-121.27,270.33-270.33S474.35,14,325.28,14Z"/>
        </g>
      </g>
    </g>
  </g>
</svg>