<?xml version="1.0" encoding="UTF-8"?>
<svg xmlns="http://www.w3.org/2000/svg" viewBox="0 0 621.07 578.02">
  <defs>
    <style>
      .cls-1 {
        fill: #f7931a;
      }
    </style>
  </defs>
  <g id="_лой_1" data-name="Слой 1"/>
  <g id="_лой_2" data-name="Слой 2">
    <g id="_лой_1-2" data-name="Слой 1">
      <g>
        <g>
          <path d="M514.95,260.99h-9.51c-1.66,0-3-1.34-3-3s1.34-3,3-3h9.51c.14,0,.26-.12,.26-.26v-74.86h-8.99c-1.66,0-3-1.34-3-3s1.34-3,3-3h9.25c3.17,0,5.75,2.58,5.75,5.75v75.11c0,3.45-2.81,6.26-6.26,6.26Z"/>
          <rect x="505.88" y="194.26" width="11.29" height="6"/>
          <rect x="505.44" y="214.43" width="11.73" height="6"/>
          <rect x="505.44" y="234.27" width="12.77" height="6"/>
          <polygon points="467.21 400.33 186.27 400.33 186.27 331.11 193.27 331.11 193.27 393.33 460.21 393.33 460.21 324.46 467.21 324.46 467.21 400.33"/>
          <polygon points="331.52 498.28 324.52 498.18 326.02 396.77 326.02 324.46 333.02 324.46 333.02 396.83 331.52 498.28"/>
          <circle cx="189.77" cy="323.36" r="15.88"/>
          <circle cx="329.52" cy="323.36" r="15.88"/>
          <circle cx="463.71" cy="323.36" r="15.88"/>
          <path d="M421.24,289.69c-1.66,0-3-1.34-3-3v-40.18l-4.73-4.64c-2.32-2.27-3.65-5.44-3.65-8.68v-20.79c0-1.66,1.34-3,3-3h5.38v-12.15c0-1.66,1.34-3,3-3s3,1.34,3,3v15.15c0,1.66-1.34,3-3,3h-5.38v17.79c0,1.64,.67,3.25,1.85,4.4l5.63,5.52c.58,.56,.9,1.34,.9,2.14v41.44c0,1.66-1.34,3-3,3Z"/>
          <path d="M505.44,288.92c-1.66,0-3-1.34-3-3v-108.53c0-2.87-2.33-5.22-5.2-5.25l-66.7-.52h-.05c-1.66,0-3.22,.64-4.4,1.81-1.19,1.18-1.85,2.76-1.85,4.44v4.01c0,1.66-1.34,3-3,3s-3-1.34-3-3v-4.01c0-3.29,1.29-6.38,3.62-8.7,2.34-2.32,5.42-3.57,8.73-3.55l66.7,.52c6.15,.05,11.16,5.09,11.16,11.25v108.53c0,1.66-1.34,3-3,3Z"/>
          <path d="M416.17,310.63h-8.16c-1.66,0-3-1.34-3-3v-20.28c0-1.66,1.34-3,3-3s3,1.34,3,3v17.28h2.16v-9.45c0-1.66,1.34-3,3-3h104.24v-4.83c0-1.66,1.34-3,3-3s3,1.34,3,3v7.83c0,1.66-1.34,3-3,3h-104.24v9.45c0,1.66-1.34,3-3,3Z"/>
          <path d="M462.8,262.03c-19.65,0-35.64-15.99-35.64-35.64s15.99-35.64,35.64-35.64,35.64,15.99,35.64,35.64-15.99,35.64-35.64,35.64Zm0-65.27c-16.34,0-29.64,13.29-29.64,29.64s13.29,29.64,29.64,29.64,29.64-13.3,29.64-29.64-13.29-29.64-29.64-29.64Z"/>
          <g>
            <path class="cls-1" d="M446.62,241.97h-.02c-1.66,0-2.99-1.36-2.98-3.02l.09-16.57c.01-2.24,.83-4.35,2.31-5.96,1.42-1.54,3.99-3.4,8.14-3.53,.1,0,.19,0,.28,0,5.36,0,9.61,4.73,10.08,5.28,1.08,1.25,.95,3.15-.31,4.23-1.25,1.08-3.14,.95-4.23-.3-.75-.86-3.38-3.27-5.65-3.21-1.67,.05-2.98,.59-3.92,1.6-.46,.5-.71,1.18-.72,1.92l-.09,16.57c0,1.65-1.35,2.98-3,2.98Z"/>
            <g>
              <path class="cls-1" d="M446.86,242.11c-1.64,0-2.98-1.33-3-2.97-.01-1.66,1.32-3.01,2.97-3.03l12.93-.12c-.11-5.1-.27-15.21,.09-17.62,.72-4.81,4.5-9.66,11.3-9.66,2.9,0,5.6,1.38,7.82,3.99,1.82,2.15,2.81,4.9,2.77,7.77l-.23,16.77c-.03,2.52-2.11,4.58-4.63,4.6l-30.01,.27h-.03Zm24.3-27.4c-4.46,0-5.25,3.79-5.37,4.55-.25,1.65-.16,10.29-.02,16.68l9.78-.09,.21-15.47c.02-1.41-.46-2.76-1.34-3.8-1.06-1.25-2.15-1.88-3.25-1.88Z"/>
              <path class="cls-1" d="M484.13,236.88h-4.93c-1.66,0-3-1.34-3-3s1.34-3,3-3h4.93c1.66,0,3,1.34,3,3s-1.34,3-3,3Z"/>
              <path class="cls-1" d="M445.96,236.88h-4.31c-1.66,0-3-1.34-3-3s1.34-3,3-3h4.31c1.66,0,3,1.34,3,3s-1.34,3-3,3Z"/>
              <path class="cls-1" d="M483.94,227.18h-4.88c-1.66,0-3-1.34-3-3s1.34-3,3-3h4.88c1.66,0,3,1.34,3,3s-1.34,3-3,3Z"/>
              <path class="cls-1" d="M446.71,227.18h-5.25c-1.66,0-3-1.34-3-3s1.34-3,3-3h5.25c1.66,0,3,1.34,3,3s-1.34,3-3,3Z"/>
            </g>
          </g>
          <path d="M285.92,291.35c-1.66,0-3-1.34-3-3v-40.18l-4.73-4.64c-2.32-2.27-3.65-5.44-3.65-8.68v-20.79c0-1.66,1.34-3,3-3h5.38v-13.8c0-1.66,1.34-3,3-3s3,1.34,3,3v16.8c0,1.66-1.34,3-3,3h-5.38v17.79c0,1.64,.67,3.25,1.85,4.4l5.63,5.52c.58,.56,.9,1.34,.9,2.14v41.44c0,1.66-1.34,3-3,3Z"/>
          <path d="M370.12,290.57c-1.66,0-3-1.34-3-3v-108.53c0-2.87-2.33-5.22-5.2-5.25l-66.7-.52h-.05c-1.66,0-3.22,.64-4.4,1.81-1.19,1.18-1.85,2.76-1.85,4.44v4.01c0,1.66-1.34,3-3,3s-3-1.34-3-3v-4.01c0-3.29,1.29-6.38,3.62-8.7,2.34-2.32,5.44-3.56,8.73-3.55l66.7,.52c6.15,.05,11.16,5.09,11.16,11.25v108.53c0,1.66-1.34,3-3,3Z"/>
          <path d="M380.36,271.95h-10.24c-1.66,0-3-1.34-3-3s1.34-3,3-3h9.97v-75.12h-9.2c-1.66,0-3-1.34-3-3s1.34-3,3-3h9.45c3.17,0,5.75,2.58,5.75,5.75v75.63c0,3.16-2.57,5.73-5.73,5.73Z"/>
          <rect x="370.56" y="205.22" width="11.09" height="6"/>
          <rect x="370.12" y="225.39" width="11.53" height="6"/>
          <rect x="370.12" y="245.23" width="11.53" height="6"/>
          <path d="M280.85,312.29h-8.16c-1.66,0-3-1.34-3-3v-20.28c0-1.66,1.34-3,3-3s3,1.34,3,3v17.28h2.16v-9.45c0-1.66,1.34-3,3-3h104.24v-4.82c0-1.66,1.34-3,3-3s3,1.34,3,3v7.82c0,1.66-1.34,3-3,3h-104.24v9.45c0,1.66-1.34,3-3,3Z"/>
          <path d="M327.48,263.68c-19.65,0-35.64-15.99-35.64-35.64s15.99-35.64,35.64-35.64,35.64,15.99,35.64,35.64-15.99,35.64-35.64,35.64Zm0-65.27c-16.34,0-29.64,13.29-29.64,29.64s13.29,29.64,29.64,29.64,29.64-13.29,29.64-29.64-13.29-29.64-29.64-29.64Z"/>
          <g>
            <path class="cls-1" d="M311.2,242.71h-.02c-1.66,0-2.99-1.36-2.98-3.02l.09-16.68c.01-2.25,.83-4.37,2.32-5.98,1.43-1.55,4-3.42,8.18-3.55,5.54-.16,9.94,4.74,10.42,5.3,1.08,1.25,.95,3.15-.31,4.23-1.25,1.08-3.14,.95-4.23-.3-.76-.86-3.44-3.3-5.7-3.24-1.68,.05-3.01,.6-3.96,1.62-.47,.5-.72,1.19-.73,1.94l-.09,16.68c0,1.65-1.35,2.98-3,2.98Z"/>
            <g>
              <path class="cls-1" d="M311.43,242.85c-1.64,0-2.98-1.33-3-2.97-.01-1.66,1.32-3.01,2.97-3.03l13.04-.12c-.11-5.13-.27-15.32,.09-17.75,.73-4.83,4.52-9.71,11.36-9.71,2.91,0,5.63,1.39,7.86,4.01,1.83,2.16,2.82,4.93,2.78,7.81l-.23,16.88c-.04,2.52-2.12,4.59-4.64,4.61l-30.21,.27h-.03Zm24.46-27.58c-4.5,0-5.31,3.83-5.42,4.6-.25,1.67-.16,10.38-.02,16.81l9.88-.09,.21-15.59c.02-1.43-.46-2.79-1.35-3.84-1.07-1.26-2.18-1.9-3.29-1.9Z"/>
              <path class="cls-1" d="M348.95,237.59h-4.96c-1.66,0-3-1.34-3-3s1.34-3,3-3h4.96c1.66,0,3,1.34,3,3s-1.34,3-3,3Z"/>
              <path class="cls-1" d="M310.53,237.59h-4.34c-1.66,0-3-1.34-3-3s1.34-3,3-3h4.34c1.66,0,3,1.34,3,3s-1.34,3-3,3Z"/>
              <path class="cls-1" d="M348.76,227.83h-4.91c-1.66,0-3-1.34-3-3s1.34-3,3-3h4.91c1.66,0,3,1.34,3,3s-1.34,3-3,3Z"/>
              <path class="cls-1" d="M311.29,227.83h-5.29c-1.66,0-3-1.34-3-3s1.34-3,3-3h5.29c1.66,0,3,1.34,3,3s-1.34,3-3,3Z"/>
            </g>
          </g>
          <path d="M150.6,289.69c-1.66,0-3-1.34-3-3v-40.18l-4.73-4.64c-2.32-2.27-3.65-5.44-3.65-8.68v-20.79c0-1.66,1.34-3,3-3h5.38v-12.15c0-1.66,1.34-3,3-3s3,1.34,3,3v15.15c0,1.66-1.34,3-3,3h-5.38v17.79c0,1.64,.67,3.25,1.85,4.4l5.63,5.52c.58,.56,.9,1.34,.9,2.14v41.44c0,1.66-1.34,3-3,3Z"/>
          <path d="M234.81,288.92c-1.66,0-3-1.34-3-3v-108.53c0-2.87-2.33-5.22-5.2-5.25l-66.7-.52c-1.72,0-3.26,.63-4.45,1.81-1.19,1.18-1.85,2.76-1.85,4.44v4.01c0,1.66-1.34,3-3,3s-3-1.34-3-3v-4.01c0-3.29,1.29-6.38,3.62-8.7,2.34-2.32,5.45-3.57,8.73-3.56l66.7,.52c6.15,.05,11.16,5.09,11.16,11.25v108.53c0,1.66-1.34,3-3,3Z"/>
          <path d="M242.29,270.3h-7.48c-1.66,0-3-1.34-3-3s1.34-3,3-3h7.48c1.32,0,2.4-1.08,2.4-2.4v-71.48c0-.68-.55-1.23-1.23-1.23h-7.88c-1.66,0-3-1.34-3-3s1.34-3,3-3h7.88c3.99,0,7.23,3.25,7.23,7.23v71.48c0,4.63-3.77,8.4-8.4,8.4Z"/>
          <rect x="235.25" y="203.57" width="11.41" height="6"/>
          <rect x="234.81" y="223.74" width="11.85" height="6"/>
          <rect x="234.81" y="243.58" width="11.85" height="6"/>
          <path d="M145.53,310.63h-8.16c-1.66,0-3-1.34-3-3v-20.28c0-1.66,1.34-3,3-3s3,1.34,3,3v17.28h2.16v-9.45c0-1.66,1.34-3,3-3h104.24v-4.83c0-1.66,1.34-3,3-3s3,1.34,3,3v7.83c0,1.66-1.34,3-3,3h-104.24v9.45c0,1.66-1.34,3-3,3Z"/>
          <path d="M192.16,262.03c-19.65,0-35.64-15.99-35.64-35.64s15.99-35.64,35.64-35.64,35.64,15.99,35.64,35.64-15.99,35.64-35.64,35.64Zm0-65.27c-16.34,0-29.64,13.29-29.64,29.64s13.29,29.64,29.64,29.64,29.64-13.3,29.64-29.64-13.29-29.64-29.64-29.64Z"/>
          <g>
            <path class="cls-1" d="M175,241.8h-.02c-1.66,0-2.99-1.36-2.98-3.02l.09-17.58c.01-2.33,.87-4.53,2.4-6.2,1.48-1.61,4.16-3.55,8.5-3.69,5.77-.19,10.35,4.95,10.86,5.53,1.08,1.25,.95,3.15-.31,4.23-1.25,1.08-3.14,.95-4.23-.3-.81-.93-3.65-3.53-6.13-3.47-1.82,.06-3.26,.65-4.28,1.76-.52,.56-.81,1.33-.81,2.16l-.09,17.58c0,1.65-1.35,2.98-3,2.98Z"/>
            <g>
              <path class="cls-1" d="M175.25,241.95c-1.64,0-2.98-1.33-3-2.97-.01-1.66,1.32-3.01,2.97-3.03l13.91-.12c-.12-5.35-.3-16.28,.09-18.85,.75-5.03,4.7-10.1,11.81-10.1,3.02,0,5.84,1.44,8.16,4.17,1.91,2.24,2.94,5.13,2.9,8.12l-.24,17.8c-.03,2.57-2.15,4.68-4.73,4.7l-31.84,.29h-.03Zm25.78-29.08c-4.88,0-5.75,4.16-5.88,4.99-.27,1.78-.17,11.11-.02,17.91l10.73-.1,.22-16.59c.02-1.54-.5-3.02-1.46-4.15-1.16-1.36-2.37-2.06-3.59-2.06Z"/>
              <path class="cls-1" d="M214.8,236.4h-5.23c-1.66,0-3-1.34-3-3s1.34-3,3-3h5.23c1.66,0,3,1.34,3,3s-1.34,3-3,3Z"/>
              <path class="cls-1" d="M174.3,236.4h-4.57c-1.66,0-3-1.34-3-3s1.34-3,3-3h4.57c1.66,0,3,1.34,3,3s-1.34,3-3,3Z"/>
              <path class="cls-1" d="M214.6,226.11h-5.18c-1.66,0-3-1.34-3-3s1.34-3,3-3h5.18c1.66,0,3,1.34,3,3s-1.34,3-3,3Z"/>
              <path class="cls-1" d="M175.1,226.11h-5.57c-1.66,0-3-1.34-3-3s1.34-3,3-3h5.57c1.66,0,3,1.34,3,3s-1.34,3-3,3Z"/>
            </g>
          </g>
          <circle cx="328.77" cy="489.06" r="15.88"/>
        </g>
        <g>
          <path d="M325.28,534.46c-3.87,0-7-3.13-7-7s3.13-7,7-7c130.2,0,236.13-105.93,236.13-236.13,0-3.87,3.13-7,7-7s7,3.13,7,7c0,66.81-26.02,129.62-73.26,176.87-47.24,47.24-110.05,73.26-176.87,73.26Z"/>
          <path d="M82.16,291.33c-3.87,0-7-3.13-7-7,0-66.81,26.02-129.62,73.26-176.87,47.24-47.24,110.05-73.26,176.87-73.26,41.07,0,81.79,10.17,117.77,29.41,3.41,1.82,4.7,6.06,2.87,9.47-1.82,3.41-6.07,4.7-9.47,2.87-33.96-18.16-72.4-27.75-111.17-27.75-130.2,0-236.13,105.93-236.13,236.13,0,3.87-3.13,7-7,7Z"/>
          <g>
            <path d="M17.07,212.39c-.58,0-1.17-.07-1.75-.22-3.74-.97-5.99-4.79-5.03-8.53C30.01,127.27,77.01,60.72,142.63,16.24c3.2-2.17,7.55-1.33,9.72,1.87,2.17,3.2,1.33,7.55-1.87,9.72C87.69,70.4,42.71,134.08,23.84,207.14c-.81,3.16-3.66,5.25-6.77,5.25Z"/>
            <path d="M84.38,499.72c-1.96,0-3.91-.82-5.29-2.42C28.08,438.4,0,363.01,0,285.01c0-3.87,3.13-7,7-7s7,3.13,7,7c0,74.64,26.87,146.78,75.67,203.13,2.53,2.92,2.21,7.34-.71,9.87-1.32,1.15-2.96,1.71-4.58,1.71Z"/>
            <path d="M462.43,578.02c-2.6,0-5.1-1.46-6.31-3.96-1.68-3.48-.22-7.67,3.26-9.35,65.69-31.74,118.35-85.83,148.3-152.31,1.59-3.52,5.73-5.09,9.26-3.51,3.53,1.59,5.09,5.73,3.51,9.26-31.3,69.47-86.34,126-154.98,159.17-.98,.47-2.02,.7-3.04,.7Z"/>
          </g>
          <path class="cls-1" d="M325.28,568.67c-75.95,0-147.35-29.58-201.05-83.28-53.7-53.7-83.28-125.11-83.28-201.05s29.58-147.35,83.28-201.05S249.33,0,325.28,0s147.35,29.58,201.05,83.28c53.7,53.7,83.28,125.11,83.28,201.05s-29.58,147.35-83.28,201.05c-53.7,53.7-125.11,83.28-201.05,83.28Zm0-554.67C176.22,14,54.95,135.27,54.95,284.33s121.27,270.33,270.33,270.33,270.33-121.27,270.33-270.33S474.35,14,325.28,14Z"/>
        </g>
      </g>
    </g>
  </g>
</svg>