<?xml version="1.0" encoding="UTF-8"?>
<svg xmlns="http://www.w3.org/2000/svg" viewBox="0 0 621.07 578.02">
  <defs>
    <style>
      .cls-1 {
        fill: #f7931a;
      }
    </style>
  </defs>
  <g id="_лой_1" data-name="Слой 1"/>
  <g id="_лой_2" data-name="Слой 2">
    <g id="_лой_1-2" data-name="Слой 1">
      <g>
        <g>
          <path class="cls-1" d="M244.53,296.62c-1.54-73.36,56.18-103.08,56.18-103.08,0,0-35.23-14.43-67.31-5.79-36.14,9.73-69.63,45.75-69.63,107.72,0,50.58,34.82,91.07,69.63,102.31,34.82,11.24,69.63-6.76,69.63-6.76,0,0-57.22-33.79-58.49-94.4Z"/>
          <path class="cls-1" d="M410.94,244.88h75.67s-9.31-47.2-48.26-77.99c-73.74-58.3-135.32-34.36-135.32-34.36,0,0,46.42,17.16,71.23,45.56,29.34,33.59,36.68,66.79,36.68,66.79Z"/>
          <path class="cls-1" d="M411.13,339.74h75.67s-9.31,47.2-48.26,77.99c-73.74,58.3-135.32,34.36-135.32,34.36,0,0,46.42-17.16,71.23-45.56,29.34-33.59,36.68-66.79,36.68-66.79Z"/>
        </g>
        <g>
          <path d="M325.28,534.46c-3.87,0-7-3.13-7-7s3.13-7,7-7c130.2,0,236.13-105.93,236.13-236.13,0-3.87,3.13-7,7-7s7,3.13,7,7c0,66.81-26.02,129.62-73.26,176.87-47.24,47.24-110.05,73.26-176.87,73.26Z"/>
          <path d="M82.16,291.33c-3.87,0-7-3.13-7-7,0-66.81,26.02-129.62,73.26-176.87,47.24-47.24,110.05-73.26,176.87-73.26,41.07,0,81.79,10.17,117.77,29.41,3.41,1.82,4.7,6.06,2.87,9.47-1.82,3.41-6.07,4.7-9.47,2.87-33.96-18.16-72.4-27.75-111.17-27.75-130.2,0-236.13,105.93-236.13,236.13,0,3.87-3.13,7-7,7Z"/>
          <g>
            <path d="M17.07,212.39c-.58,0-1.17-.07-1.75-.22-3.74-.97-5.99-4.79-5.03-8.53C30.01,127.27,77.01,60.72,142.63,16.24c3.2-2.17,7.55-1.33,9.72,1.87,2.17,3.2,1.33,7.55-1.87,9.72C87.69,70.4,42.71,134.08,23.84,207.14c-.81,3.16-3.66,5.25-6.77,5.25Z"/>
            <path d="M84.38,499.72c-1.96,0-3.91-.82-5.29-2.42C28.08,438.4,0,363.01,0,285.01c0-3.87,3.13-7,7-7s7,3.13,7,7c0,74.64,26.87,146.78,75.67,203.13,2.53,2.92,2.21,7.34-.71,9.87-1.32,1.15-2.96,1.71-4.58,1.71Z"/>
            <path d="M462.43,578.02c-2.6,0-5.1-1.46-6.31-3.96-1.68-3.48-.22-7.67,3.26-9.35,65.68-31.74,118.35-85.83,148.3-152.31,1.59-3.53,5.74-5.09,9.26-3.51,3.53,1.59,5.1,5.73,3.51,9.26-31.3,69.47-86.34,126-154.98,159.17-.98,.47-2.02,.7-3.04,.7Z"/>
          </g>
          <path class="cls-1" d="M325.28,568.67c-75.95,0-147.35-29.58-201.05-83.28s-83.28-125.11-83.28-201.05,29.58-147.35,83.28-201.05C177.93,29.58,249.34,0,325.28,0s147.35,29.58,201.05,83.28c53.7,53.7,83.28,125.11,83.28,201.05s-29.58,147.35-83.28,201.05-125.11,83.28-201.05,83.28Zm0-554.67C176.22,14,54.95,135.27,54.95,284.33s121.27,270.33,270.33,270.33,270.33-121.27,270.33-270.33S474.35,14,325.28,14Z"/>
        </g>
      </g>
    </g>
  </g>
</svg>