<?xml version="1.0" encoding="UTF-8"?>
<svg xmlns="http://www.w3.org/2000/svg" viewBox="0 0 621.07 578.02">
  <defs>
    <style>
      .cls-1 {
        fill: #f7931a;
      }
    </style>
  </defs>
  <g id="_лой_1" data-name="Слой 1"/>
  <g id="_лой_2" data-name="Слой 2">
    <g id="_лой_1-2" data-name="Слой 1">
      <g>
        <g>
          <path d="M432.52,191.14h-53.69c-2.21,0-4-1.79-4-4v-15.81h-45.16c-4.71,0-9.31,1.93-12.61,5.29l-13.05,13.31c-.75,.77-1.78,1.2-2.86,1.2h-98c-2.21,0-4-1.79-4-4s1.79-4,4-4h96.32l11.88-12.11c4.79-4.89,11.47-7.7,18.32-7.7h49.16c2.21,0,4,1.79,4,4v15.81h49.69c2.21,0,4,1.79,4,4s-1.79,4-4,4Z"/>
          <path d="M461.66,390.27H204.99c-2.21,0-4-1.79-4-4s1.79-4,4-4H461.66c8.48,0,15.43-6.9,15.5-15.38l1.24-157.73c.04-4.8-1.8-9.33-5.19-12.73s-7.89-5.29-12.69-5.29h-9.48c-2.21,0-4-1.79-4-4s1.79-4,4-4h9.48c6.95,0,13.48,2.72,18.37,7.65,4.9,4.93,7.56,11.48,7.51,18.43l-1.24,157.73c-.1,12.86-10.64,23.31-23.5,23.31Z"/>
          <path d="M245.03,416.36v-30.09c0-2.21,1.79-4,4-4s4,1.79,4,4v22.04l183.83-1.25v-18.96c0-2.21,1.79-4,4-4s4,1.79,4,4v26.91l-199.83,1.36Z"/>
          <rect x="412.37" y="387.32" width="8" height="23.88"/>
          <rect x="388.65" y="387.32" width="8" height="23.88"/>
          <rect x="364.41" y="387.32" width="8" height="23.88"/>
          <rect x="340.95" y="386.27" width="8" height="23.88"/>
          <rect x="317.75" y="386.27" width="8" height="23.88"/>
          <rect x="294.03" y="386.27" width="8" height="23.88"/>
          <rect x="269.53" y="387.32" width="8" height="23.88"/>
          <path d="M201.6,432.76h-18.51c-2.21,0-4-1.79-4-4V179.16h-25.45c-2.21,0-4-1.79-4-4v-19.29c0-2.21,1.79-4,4-4h47.96c2.21,0,4,1.79,4,4v193.92c0,2.21-1.79,4-4,4s-4-1.79-4-4V159.87h-39.96v11.29h25.45c2.21,0,4,1.79,4,4v249.6h10.51v-55.43c0-2.21,1.79-4,4-4s4,1.79,4,4v59.43c0,2.21-1.79,4-4,4Z"/>
          <path class="cls-1" d="M244.86,340.85h-24.76c-2.21,0-4-1.79-4-4s1.79-4,4-4h24.76c2.21,0,4,1.79,4,4s-1.79,4-4,4Z"/>
          <path class="cls-1" d="M244.86,297.39h-24.76c-2.21,0-4-1.79-4-4s1.79-4,4-4h24.76c2.21,0,4,1.79,4,4s-1.79,4-4,4Z"/>
          <path class="cls-1" d="M244.86,319.12h-24.76c-2.21,0-4-1.79-4-4s1.79-4,4-4h24.76c2.21,0,4,1.79,4,4s-1.79,4-4,4Z"/>
          <path class="cls-1" d="M244.86,274.55h-24.76c-2.21,0-4-1.79-4-4s1.79-4,4-4h24.76c2.21,0,4,1.79,4,4s-1.79,4-4,4Z"/>
          <path class="cls-1" d="M244.86,253.18h-24.76c-2.21,0-4-1.79-4-4s1.79-4,4-4h24.76c2.21,0,4,1.79,4,4s-1.79,4-4,4Z"/>
          <path class="cls-1" d="M244.86,231.28h-24.76c-2.21,0-4-1.79-4-4s1.79-4,4-4h24.76c2.21,0,4,1.79,4,4s-1.79,4-4,4Z"/>
          <g>
            <path d="M345.77,344.16c-32.39,0-58.73-26.35-58.73-58.73s26.35-58.73,58.73-58.73,58.73,26.35,58.73,58.73-26.35,58.73-58.73,58.73Zm0-109.47c-27.97,0-50.73,22.76-50.73,50.73s22.76,50.73,50.73,50.73,50.73-22.76,50.73-50.73-22.76-50.73-50.73-50.73Z"/>
            <path class="cls-1" d="M345.77,366.6c-44.76,0-81.18-36.42-81.18-81.18s36.42-81.18,81.18-81.18,81.18,36.42,81.18,81.18-36.42,81.18-81.18,81.18Zm0-154.36c-40.35,0-73.18,32.83-73.18,73.18s32.83,73.18,73.18,73.18,73.18-32.83,73.18-73.18-32.83-73.18-73.18-73.18Z"/>
          </g>
          <g>
            <path class="cls-1" d="M359.48,288.49c-1.12,0-2.24-.47-3.03-1.38-1.44-1.67-1.26-4.19,.4-5.63,1.68-1.47,6.01-6.23,5.88-10.55-.1-3.17-1.14-5.69-3.11-7.5-1.06-.98-2.5-1.52-4.04-1.53l-28.36-.15c-2.21-.01-3.99-1.81-3.98-4.02,.01-2.2,1.8-3.98,4-3.98h.02l28.36,.15c3.55,.02,6.9,1.32,9.43,3.65,2.47,2.28,5.47,6.41,5.68,13.13,.28,8.88-7.72,16.06-8.63,16.85-.76,.65-1.69,.97-2.61,.97Z"/>
            <g>
              <path class="cls-1" d="M359.2,316.72c-.09,0-.18,0-.27,0l-28.71-.39c-3.7-.05-6.73-3.1-6.76-6.79l-.46-51.36c-.02-2.21,1.75-4.02,3.96-4.04h.04c2.19,0,3.98,1.77,4,3.96l.21,23.28c7.83-.17,26.9-.52,31.12,.12,7.75,1.16,15.57,7.25,15.57,18.22,0,4.62-2.22,8.95-6.43,12.53-3.39,2.89-7.75,4.47-12.28,4.47Zm-27.74-8.38l27.58,.37c2.68,.07,5.27-.87,7.25-2.56,2.4-2.04,3.61-4.2,3.61-6.43,0-8.56-7.3-10.09-8.76-10.31-2.99-.45-18.8-.27-29.86-.03l.17,18.96Z"/>
              <path class="cls-1" d="M335.95,325.94c-2.21,0-4-1.79-4-4v-8.44c0-2.21,1.79-4,4-4s4,1.79,4,4v8.44c0,2.21-1.79,4-4,4Z"/>
              <path class="cls-1" d="M335.95,260.61c-2.21,0-4-1.79-4-4v-7.38c0-2.21,1.79-4,4-4s4,1.79,4,4v7.38c0,2.21-1.79,4-4,4Z"/>
              <path class="cls-1" d="M352.55,325.62c-2.21,0-4-1.79-4-4v-8.36c0-2.21,1.79-4,4-4s4,1.79,4,4v8.36c0,2.21-1.79,4-4,4Z"/>
              <path class="cls-1" d="M352.55,261.9c-2.21,0-4-1.79-4-4v-8.99c0-2.21,1.79-4,4-4s4,1.79,4,4v8.99c0,2.21-1.79,4-4,4Z"/>
            </g>
          </g>
        </g>
        <g>
          <path d="M325.28,534.46c-3.87,0-7-3.13-7-7s3.13-7,7-7c130.2,0,236.13-105.93,236.13-236.13,0-3.87,3.13-7,7-7s7,3.13,7,7c0,66.81-26.02,129.62-73.26,176.87-47.24,47.24-110.05,73.26-176.87,73.26Z"/>
          <path d="M82.16,291.33c-3.87,0-7-3.13-7-7,0-66.81,26.02-129.62,73.26-176.87,47.24-47.24,110.05-73.26,176.87-73.26,41.06,0,81.79,10.17,117.77,29.41,3.41,1.82,4.7,6.06,2.87,9.47-1.82,3.41-6.07,4.7-9.47,2.87-33.96-18.16-72.4-27.75-111.17-27.75-130.2,0-236.13,105.93-236.13,236.13,0,3.87-3.13,7-7,7Z"/>
          <g>
            <path d="M17.07,212.39c-.58,0-1.17-.07-1.75-.22-3.74-.97-5.99-4.78-5.03-8.53C30.01,127.27,77.01,60.72,142.63,16.24c3.2-2.17,7.55-1.33,9.72,1.87,2.17,3.2,1.33,7.55-1.87,9.72C87.69,70.4,42.71,134.08,23.84,207.14c-.81,3.16-3.66,5.25-6.77,5.25Z"/>
            <path d="M84.38,499.72c-1.96,0-3.91-.82-5.29-2.42C28.08,438.4,0,363.01,0,285.01c0-3.87,3.13-7,7-7s7,3.13,7,7c0,74.64,26.87,146.78,75.67,203.13,2.53,2.92,2.21,7.34-.71,9.87-1.32,1.15-2.96,1.71-4.58,1.71Z"/>
            <path d="M462.43,578.02c-2.6,0-5.1-1.46-6.31-3.96-1.68-3.48-.22-7.67,3.26-9.35,65.68-31.74,118.35-85.83,148.3-152.31,1.59-3.53,5.74-5.09,9.26-3.51,3.53,1.59,5.1,5.73,3.51,9.26-31.3,69.47-86.34,126-154.98,159.17-.98,.47-2.02,.7-3.04,.7Z"/>
          </g>
          <path class="cls-1" d="M325.28,568.67c-75.95,0-147.35-29.58-201.05-83.28s-83.28-125.11-83.28-201.05,29.58-147.35,83.28-201.05C177.93,29.58,249.34,0,325.28,0s147.35,29.58,201.05,83.28c53.7,53.7,83.28,125.11,83.28,201.05s-29.58,147.35-83.28,201.05-125.11,83.28-201.05,83.28Zm0-554.67C176.22,14,54.95,135.27,54.95,284.33s121.27,270.33,270.33,270.33,270.33-121.27,270.33-270.33S474.35,14,325.28,14Z"/>
        </g>
      </g>
    </g>
  </g>
</svg>