<?xml version="1.0" encoding="UTF-8"?>
<svg xmlns="http://www.w3.org/2000/svg" viewBox="0 0 621.07 578.02">
  <defs>
    <style>
      .cls-1 {
        fill: #f7931a;
      }
    </style>
  </defs>
  <g id="_лой_1" data-name="Слой 1"/>
  <g id="_лой_2" data-name="Слой 2">
    <g id="_лой_1-2" data-name="Слой 1">
      <g>
        <g>
          <path d="M325.28,534.46c-3.87,0-7-3.13-7-7s3.13-7,7-7c130.2,0,236.13-105.93,236.13-236.13,0-3.87,3.13-7,7-7s7,3.13,7,7c0,66.81-26.02,129.62-73.26,176.87-47.24,47.24-110.05,73.26-176.87,73.26Z"/>
          <path d="M82.16,291.33c-3.87,0-7-3.13-7-7,0-66.81,26.02-129.62,73.26-176.87,47.24-47.24,110.05-73.26,176.87-73.26,41.06,0,81.79,10.17,117.77,29.41,3.41,1.82,4.7,6.06,2.87,9.47-1.82,3.41-6.06,4.69-9.47,2.87-33.96-18.16-72.4-27.75-111.17-27.75-130.2,0-236.13,105.93-236.13,236.13,0,3.87-3.13,7-7,7Z"/>
          <g>
            <path d="M17.07,212.39c-.58,0-1.17-.07-1.75-.22-3.74-.97-5.99-4.79-5.03-8.53C30.01,127.27,77.01,60.72,142.63,16.24c3.2-2.17,7.55-1.33,9.72,1.87,2.17,3.2,1.33,7.55-1.87,9.72C87.69,70.4,42.71,134.08,23.84,207.14c-.81,3.16-3.66,5.25-6.77,5.25Z"/>
            <path d="M84.38,499.72c-1.96,0-3.91-.82-5.29-2.42C28.08,438.4,0,363.01,0,285.01c0-3.87,3.13-7,7-7s7,3.13,7,7c0,74.64,26.87,146.78,75.67,203.13,2.53,2.92,2.21,7.34-.71,9.87-1.32,1.15-2.96,1.71-4.58,1.71Z"/>
            <path d="M462.43,578.02c-2.6,0-5.1-1.46-6.31-3.96-1.68-3.48-.22-7.67,3.26-9.35,65.68-31.74,118.35-85.83,148.31-152.31,1.59-3.53,5.74-5.09,9.26-3.51,3.53,1.59,5.1,5.73,3.51,9.26-31.3,69.47-86.34,126-154.98,159.17-.98,.47-2.02,.7-3.04,.7Z"/>
          </g>
          <path class="cls-1" d="M325.28,568.67c-75.95,0-147.35-29.58-201.05-83.28-53.7-53.7-83.28-125.11-83.28-201.05s29.58-147.35,83.28-201.05C177.93,29.58,249.34,0,325.28,0s147.35,29.58,201.05,83.28,83.28,125.11,83.28,201.05-29.58,147.35-83.28,201.05c-53.7,53.7-125.11,83.28-201.05,83.28Zm0-554.67C176.22,14,54.95,135.27,54.95,284.33s121.27,270.33,270.33,270.33,270.33-121.27,270.33-270.33S474.35,14,325.28,14Z"/>
        </g>
        <g>
          <path class="cls-1" d="M261.31,242.15c.75-1.53,1.23-2.93,2.04-4.1,2.65-3.83,5.36-7.63,8.19-11.34,1.15-1.52,1.02-2.73,.61-4.57-1.32-5.89-5.06-7.81-10.62-7.95-3.04-.08-6.08-.82-9.1-1.38-3.4-.63-4.74-2.19-4.78-5.65-.06-5.93-.05-11.87,0-17.81,.03-3.81,1.39-5.37,5.15-5.98,4.49-.73,8.99-1.46,13.5-2.07,2.05-.28,3.06-1.17,4.19-3.08,2.89-4.91,1.87-8.71-1.72-12.63-2.2-2.41-3.96-5.24-5.82-7.94-1.92-2.8-1.71-4.84,.78-7.37,4.16-4.23,8.36-8.43,12.6-12.59,2.52-2.47,4.47-2.66,7.36-.65,4,2.78,7.96,5.62,11.85,8.57,1.52,1.15,2.72,1.05,4.57,.59,5.44-1.34,7.69-4.53,7.8-10.01,.07-3.24,.98-6.48,1.57-9.7,.62-3.4,2.19-4.86,5.55-4.9,6.04-.07,12.09-.07,18.13,0,3.35,.04,4.95,1.49,5.55,4.9,.86,4.9,1.52,9.84,2.54,14.7,.24,1.15,1.43,2.32,2.49,3.06,4.77,3.32,9.01,2.38,13.1-1.57,2.19-2.12,4.9-3.7,7.41-5.46,3.06-2.14,5.04-2.06,7.63,.48,4.32,4.23,8.56,8.53,12.82,12.81,2.21,2.22,2.33,4.65,.55,7.16-2.82,3.97-5.64,7.96-8.57,11.84-1.13,1.5-1.08,2.7-.66,4.57,1.33,5.88,5.06,7.82,10.62,7.98,3.05,.09,6.08,.81,9.1,1.38,3.52,.67,4.79,2.21,4.83,5.95,.07,5.83,.07,11.66,0,17.49-.04,3.83-1.37,5.35-5.16,6-4.49,.77-8.98,1.52-13.5,2.08-2.25,.28-3.17,1.44-4.34,3.36-2.86,4.73-1.73,8.32,1.68,12.08,2.26,2.5,4.05,5.43,6.01,8.2,1.78,2.52,1.64,4.94-.57,7.16-4.26,4.28-8.5,8.59-12.82,12.81-2.56,2.51-4.61,2.6-7.65,.45-3.89-2.75-7.8-5.49-11.58-8.4-1.56-1.2-2.78-1-4.58-.54-5.34,1.37-7.7,4.52-7.8,10.01-.06,3.35-1.03,6.68-1.58,10.02-.49,2.95-2.32,4.5-5.23,4.54-6.25,.09-12.51,.1-18.76,0-2.9-.05-4.7-1.65-5.18-4.6-.8-4.91-1.75-9.8-2.38-14.73-.24-1.85-1.12-2.53-2.62-3.45-4.99-3.07-9.08-2.15-13.16,1.75-2.27,2.18-5.09,3.79-7.68,5.64-2.51,1.79-4.93,1.72-7.15-.5-4.36-4.34-8.74-8.65-13.02-13.07-.9-.93-1.4-2.25-2.17-3.54Zm105.95-94.9c-4.48,3.23-8.71,6.24-12.89,9.32-2.1,1.55-4.16,1.63-6.53,.55-3.84-1.74-7.76-3.33-11.71-4.83-2.18-.83-3.59-2.11-3.95-4.49-.43-2.82-.92-5.64-1.43-8.45-1.48-8.19-1.48-8.14-9.93-7.85-1.73,.06-2.39,.6-2.61,2.33-.52,4.09-1.38,8.15-1.86,12.24-.42,3.59-2.02,5.69-5.68,6.65-3.14,.82-6.23,2.16-9.06,3.75-3.2,1.8-5.83,1.75-8.74-.54-3.88-3.05-7.99-5.81-11.34-8.22-2.99,2.64-5.58,4.92-8.28,7.31,3.07,4.26,5.97,8.44,9.03,12.49,1.82,2.4,1.96,4.61,.57,7.33-1.73,3.37-3.21,6.91-4.4,10.51-.95,2.86-2.48,4.42-5.52,4.84-5.12,.7-10.19,1.67-15.54,2.57,0,2.89,.12,5.53-.04,8.16-.12,2.01,.67,2.83,2.6,3.1,4.3,.61,8.56,1.5,12.86,2.01,3.22,.38,4.74,2.08,5.71,5.04,1.14,3.5,2.59,6.95,4.27,10.22,1.38,2.69,1.39,4.91-.44,7.34-3.12,4.13-6.08,8.39-9.01,12.47,2.6,2.68,5.01,5.17,7.37,7.62,.32-.06,.56-.04,.72-.15,4.14-2.95,8.3-5.88,12.39-8.9,2.12-1.57,4.16-1.62,6.53-.54,3.75,1.71,7.55,3.3,11.41,4.72,2.43,.9,3.94,2.32,4.31,4.94,.39,2.72,.86,5.44,1.34,8.15,1.47,8.17,1.48,8.12,9.95,7.81,1.76-.06,2.36-.66,2.58-2.36,.54-4.2,1.37-8.36,1.91-12.56,.43-3.31,1.96-5.28,5.33-6.23,3.24-.91,6.46-2.17,9.37-3.83,3.36-1.93,6.03-1.62,8.99,.73,3.79,3,7.83,5.68,11.15,8.07,2.97-2.66,5.54-4.96,8.21-7.35-2.64-3.67-4.95-7.39-7.78-10.65-3.18-3.68-3.69-7.15-.76-11.11,.68-.92,1.19-2.04,1.49-3.15,3.16-11.74,3.11-9.35,14.89-11.38,8.06-1.39,7.99-1.15,8.08-9.26,.03-2.55-1.01-3.28-3.22-3.58-4.2-.57-8.36-1.39-12.56-1.93-2.76-.36-4.3-1.72-5.21-4.35-1.24-3.59-2.56-7.2-4.35-10.53-1.63-3.05-1.46-5.47,.63-8.16,3.05-3.92,5.86-8.04,8.61-11.86-2.54-2.72-4.91-5.25-7.5-8.02Z"/>
          <path class="cls-1" d="M227.5,382.79c4.2,.95,8.36,1.43,12.15,2.88,4.39,1.68,8.76,3.77,12.56,6.48,4.2,3,6.34,7.62,6.37,12.94,.05,10.49,.14,20.99,.03,31.48-.07,6.03-4.48,10.45-10.52,10.48-22.69,.09-45.38,.07-68.06,0-4.91-.01-8.37-2.74-10.17-7.27-2.09-5.25-.8-10.52-.75-15.78l1.09-.33c.57,1.27,1.14,2.54,1.75,3.9,1.29-2.89,.88-3.95-1.19-5.24-.92-.57-1.96-1.91-1.95-2.89,.09-5.59,.08-11.24,.87-16.76,.99-6.97,5.64-11.66,11.82-14.35,4.8-2.09,10.04-3.17,15.1-4.66,1.2-.35,2.45-.49,4.21-.83-4.49-4.52-7.68-9.44-8.57-15.31-.66-4.33-1.12-8.91-.46-13.19,1.92-12.45,11.29-19.24,24.42-18.36,11.92,.8,20.15,9.44,20.59,21.74,.33,9.05-2.14,17.16-8.46,23.88-.27,.29-.46,.66-.82,1.18Zm-30.19,54.35h33.39c0-1.61,0-2.76,0-3.9,0-5.93-.03-11.87,0-17.8,.02-3.8,1.97-6.06,5.05-6.01,2.97,.05,4.81,2.21,4.88,5.84,.04,2.54,0,5.09,0,7.63,0,4.63,0,9.26,0,14.23,2.05,0,3.73-.13,5.38,.03,2.29,.22,2.9-.78,2.88-2.93-.08-9.01-.07-18.02-.02-27.02,.03-4.39-1.94-7.55-5.72-9.52-2.14-1.12-4.41-2.1-6.74-2.73-10.65-2.86-21.52-3.9-32.43-2.35-6.02,.85-12.02,2.46-17.79,4.42-4.96,1.69-7.32,5.64-7.15,11.16,.22,7.31-.04,14.62,.07,21.93,.12,7.87-1.58,7.13,7.35,6.91,.18,0,.36-.18,.74-.38,.04-.92,.12-1.96,.13-2.99,.02-6.25-.03-12.51,.04-18.76,.04-3.37,2.01-5.49,4.88-5.51,2.82-.02,4.83,2.12,5.02,5.44,.07,1.27,.03,2.54,.03,3.81,0,6.02,0,12.04,0,18.49Zm3.82-77.68c-.11,5.14,1.26,9.85,4.44,13.92,4.85,6.2,12.13,6.25,16.88-.03,4.42-5.84,5.46-12.5,3.66-19.55-.86-3.37-3.08-5.75-6.37-7-10.22-3.88-18.58,1.82-18.61,12.67Z"/>
          <path class="cls-1" d="M447.55,382.79c4.37,.98,8.52,1.48,12.35,2.87,4.12,1.5,8.24,3.41,11.82,5.91,4.75,3.32,7.09,8.31,7.1,14.23,0,10.07,.08,20.13-.04,30.2-.08,6.85-4.39,11.07-11.23,11.08-22.26,.05-44.51,.05-66.77,0-6.94-.01-11.23-4.4-11.26-11.4-.04-9.43,.16-18.86-.04-28.29-.19-8.76,3.83-15,11.4-18.58,5-2.36,10.58-3.5,15.91-5.14,1.17-.36,2.42-.5,4.16-.84-4.41-4.51-7.25-9.38-8.59-15.06-1.6-6.77-1.61-13.46,1.42-19.87,4.06-8.61,13.2-13.14,23.61-11.84,9.98,1.25,17.1,7.55,18.91,17.03,2.13,11.14-.69,20.95-8.76,29.7Zm-30.08,54.16h33.39c0-1.23,0-2.26,0-3.29,0-6.04-.03-12.08,.02-18.12,.03-3.84,1.92-6.1,4.97-6.13,3.05-.03,4.95,2.27,4.96,6.07,.02,6.04,0,12.08,0,18.12,0,1.12,.11,2.24,.18,3.55,1.52,0,2.67,0,3.83,0,4.21,0,4.23,0,4.24-4.1,.01-8.37-.11-16.74,.04-25.11,.09-5.05-2.04-8.57-6.5-10.67-2.19-1.03-4.49-1.93-6.83-2.52-10.47-2.66-21.14-3.76-31.82-2.08-6.41,1.01-12.71,3-18.87,5.09-3.19,1.08-5.56,3.86-5.6,7.49-.13,10.37,0,20.75,.05,31.12,0,.17,.23,.34,.34,.5h7.65c0-1.53,0-2.79,0-4.06,0-6.04-.05-12.08,.01-18.12,.03-2.99,1.85-5.05,4.49-5.2,2.67-.15,4.49,1.12,5.19,3.71,.27,1,.23,2.1,.23,3.15,.02,6.77,0,13.53,0,20.61Zm29.57-77.8c-.02-.55,0-1.62-.13-2.67-.69-5.93-4.46-9.81-10.15-10.47-7.39-.87-12.85,1.66-14.52,7.33-2.23,7.57-1.01,14.75,4.19,20.84,4.61,5.39,11.34,5.13,15.87-.39,3.35-4.09,4.81-8.87,4.75-14.63Z"/>
          <path class="cls-1" d="M310.85,382.86c-6.95-7.16-9.8-15.34-9.59-24.63,.31-13.32,9.39-22.24,22.66-22.27,13.55-.03,22.64,8.79,22.97,22.27,.23,9.31-2.63,17.47-9.52,24.56,3.55,.76,6.77,1.2,9.82,2.16,3.91,1.24,7.92,2.47,11.47,4.46,6.41,3.6,10.12,9.17,10.09,16.82-.03,9.75,.05,19.49-.04,29.24-.07,7.45-4.3,11.6-11.68,11.61-21.94,.03-43.87,.02-65.81,0-7.46,0-11.68-4.09-11.76-11.53-.1-9.32,.13-18.65-.09-27.97-.21-8.88,3.84-15.2,11.52-18.84,4.9-2.32,10.38-3.44,15.62-5.04,1.2-.37,2.47-.49,4.34-.85Zm47.61,54.13c.17-.59,.45-1.09,.45-1.58,.02-9.85,.06-19.71-.04-29.56-.03-3.32-1.78-5.94-4.61-7.52-2.47-1.38-5.1-2.79-7.83-3.32-6.42-1.27-12.92-2.52-19.43-2.87-10.42-.56-20.74,.62-30.5,4.73-4.85,2.04-7.46,5.57-7.33,11.1,.18,7.41,.03,14.83,.05,22.25q.02,7.42,7.39,6.79c.18-.02,.35-.2,.84-.51,0-.95,0-2.09,0-3.23,0-6.15-.05-12.29,0-18.44,.03-3.18,1.9-5.25,4.65-5.39,2.89-.15,5.06,1.9,5.23,5.18,.14,2.75,.04,5.51,.04,8.26,0,4.63,0,9.26,0,14.01h33.23c.07-.88,.16-1.51,.17-2.13,.01-6.68-.06-13.35,.04-20.03,.05-3.26,2.25-5.38,5.13-5.29,2.78,.09,4.68,2.14,4.78,5.28,.07,2.22,0,4.45,0,6.68,0,5.15,0,10.3,0,15.6h7.73Zm-21.5-77.54c-.04-.85-.02-2.02-.16-3.17-.77-5.91-4.59-9.69-10.34-10.28-7.48-.77-12.83,1.81-14.4,7.5-2.04,7.34-.91,14.34,3.98,20.34,4.58,5.62,11.43,5.56,16.1,.02,3.41-4.05,4.82-8.85,4.83-14.42Z"/>
          <path d="M209.02,305.19c0-4.66,.05-9.32-.02-13.97-.05-2.7,1.02-4.58,3.3-6.04,10.51-6.73,20.97-13.56,31.46-20.32,3.27-2.11,6.09-1.73,7.76,.9,1.63,2.57,.76,5.39-2.45,7.47-9.23,6-18.45,12-27.74,17.89-1.72,1.09-2.44,2.25-2.4,4.32,.12,7.94,.08,15.88,.04,23.82-.02,3.52-1.7,5.58-4.56,5.8-3.12,.25-5.3-1.77-5.37-5.26-.1-4.87-.03-9.74-.03-14.61Z"/>
          <path d="M439.15,305.29c0,4.66,.04,9.32-.01,13.97-.04,3.72-1.81,5.75-4.86,5.79-3.2,.04-5.07-2.06-5.08-5.91-.04-7.73-.09-15.46,.05-23.18,.04-2.38-.65-3.81-2.74-5.11-9.24-5.78-18.33-11.78-27.51-17.66-2.15-1.38-3.46-3.07-2.98-5.76,.64-3.57,4.46-5.03,7.92-2.83,8.84,5.62,17.65,11.28,26.41,17.04,10.05,6.6,8.71,3.86,8.82,16.35,.02,2.43,0,4.87,0,7.3h-.02Z"/>
          <path d="M329.06,307.49c0,4.03,.06,8.06-.02,12.08-.07,3.46-1.9,5.43-4.87,5.48-3.11,.05-5.03-1.98-5.05-5.61-.03-7.84-.02-15.69,.09-23.53,.05-3.86,2.05-5.96,5.22-5.83,3.01,.12,4.65,2.17,4.68,5.96,.03,3.82,0,7.63,0,11.45h-.07Z"/>
          <path d="M324.19,164.71c18.55,.05,33.59,15.17,33.46,33.61-.14,18.51-15.24,33.33-33.84,33.23-18.39-.1-33.32-15.11-33.3-33.46,.02-18.49,15.11-33.44,33.68-33.39Zm-.09,57.02c13.07-.02,23.65-10.64,23.61-23.7-.04-12.9-10.53-23.39-23.5-23.49-13.06-.1-23.73,10.48-23.75,23.54-.02,13.09,10.56,23.67,23.64,23.65Z"/>
        </g>
      </g>
    </g>
  </g>
</svg>