<?xml version="1.0" encoding="UTF-8"?>
<svg xmlns="http://www.w3.org/2000/svg" viewBox="0 0 656.5 595.03">
  <defs>
    <style>
      .cls-1 {
        fill: #f7931a;
      }
    </style>
  </defs>
  <g id="_лой_1" data-name="Слой 1"/>
  <g id="_лой_2" data-name="Слой 2">
    <g id="_лой_1-2" data-name="Слой 1">
      <g>
        <g>
          <path d="M339.31,534.2c-65.66,0-127.4-25.57-173.83-72-46.43-46.43-72-108.16-72-173.83s25.57-127.4,72-173.83c46.43-46.43,108.16-72,173.83-72s127.4,25.57,173.83,72c46.43,46.43,72,108.16,72,173.83s-25.57,127.4-72,173.83c-46.43,46.43-108.16,72-173.83,72Zm0-477.66c-127.83,0-231.83,104-231.83,231.83s104,231.83,231.83,231.83,231.83-104,231.83-231.83S467.14,56.54,339.31,56.54Z"/>
          <path d="M17.66,208.06c-.58,0-1.17-.07-1.75-.22-3.74-.97-5.99-4.78-5.03-8.53C31.72,118.58,81.41,48.23,150.78,1.21c3.2-2.17,7.55-1.33,9.72,1.87,2.17,3.2,1.33,7.55-1.87,9.72C92.09,57.9,44.43,125.38,24.43,202.81c-.81,3.16-3.66,5.25-6.77,5.25Z"/>
          <path d="M88.89,512.16c-1.96,0-3.91-.82-5.29-2.42C29.69,447.48,0,367.78,0,285.32c0-3.87,3.13-7,7-7s7,3.13,7,7c0,79.09,28.48,155.54,80.18,215.25,2.53,2.92,2.21,7.34-.71,9.87-1.32,1.15-2.96,1.71-4.58,1.71Z"/>
          <path d="M489.01,595.03c-2.6,0-5.1-1.46-6.31-3.96-1.68-3.48-.22-7.67,3.26-9.35,69.6-33.63,125.42-90.96,157.16-161.4,1.59-3.53,5.74-5.09,9.26-3.51,3.53,1.59,5.09,5.73,3.51,9.26-33.09,73.44-91.27,133.19-163.83,168.26-.98,.47-2.02,.7-3.04,.7Z"/>
          <path class="cls-1" d="M339.31,572.7c-75.95,0-147.35-29.58-201.05-83.28s-83.28-125.11-83.28-201.05,29.58-147.35,83.28-201.05S263.36,4.04,339.31,4.04s147.35,29.58,201.05,83.28c53.7,53.7,83.28,125.11,83.28,201.05s-29.58,147.35-83.28,201.05c-53.7,53.7-125.11,83.28-201.05,83.28Zm0-554.67c-149.06,0-270.33,121.27-270.33,270.33s121.27,270.33,270.33,270.33,270.33-121.27,270.33-270.33S488.38,18.04,339.31,18.04Z"/>
        </g>
        <g>
          <g>
            <path d="M201.16,247.23h-15.67c-6.86,0-12.44-5.58-12.44-12.44v-24.28c0-6.64,5.41-12.05,12.05-12.05h16.06c2.76,0,5,2.24,5,5s-2.24,5-5,5h-16.06c-1.13,0-2.05,.92-2.05,2.05v24.28c0,1.35,1.09,2.44,2.44,2.44h15.67c2.76,0,5,2.24,5,5s-2.24,5-5,5Z"/>
            <path d="M176.45,227.84h-17.2c-2.76,0-5-2.24-5-5s2.24-5,5-5h17.2c2.76,0,5,2.24,5,5s-2.24,5-5,5Z"/>
          </g>
          <g>
            <path d="M202.73,312.76h-15.67c-6.86,0-12.44-5.58-12.44-12.44v-24.28c0-6.64,5.41-12.05,12.05-12.05h16.06c2.76,0,5,2.24,5,5s-2.24,5-5,5h-16.06c-1.13,0-2.05,.92-2.05,2.05v24.28c0,1.35,1.1,2.44,2.44,2.44h15.67c2.76,0,5,2.24,5,5s-2.24,5-5,5Z"/>
            <path d="M178.02,293.37h-17.2c-2.76,0-5-2.24-5-5s2.24-5,5-5h17.2c2.76,0,5,2.24,5,5s-2.24,5-5,5Z"/>
          </g>
          <g>
            <path d="M205.76,376.41h-15.67c-6.86,0-12.44-5.58-12.44-12.44v-24.28c0-6.64,5.41-12.05,12.05-12.05h16.06c2.76,0,5,2.24,5,5s-2.24,5-5,5h-16.06c-1.13,0-2.05,.92-2.05,2.05v24.28c0,1.35,1.1,2.44,2.44,2.44h15.67c2.76,0,5,2.24,5,5s-2.24,5-5,5Z"/>
            <path d="M181.06,357.02h-17.2c-2.76,0-5-2.24-5-5s2.24-5,5-5h17.2c2.76,0,5,2.24,5,5s-2.24,5-5,5Z"/>
          </g>
          <g>
            <path d="M282.24,445.43h-24.28c-6.86,0-12.44-5.58-12.44-12.44v-15.67c0-2.76,2.24-5,5-5s5,2.24,5,5v15.67c0,1.35,1.1,2.44,2.44,2.44h24.28c1.13,0,2.05-.92,2.05-2.05v-16.06c0-2.76,2.24-5,5-5s5,2.24,5,5v16.06c0,6.64-5.41,12.05-12.05,12.05Z"/>
            <path d="M269.9,464.23c-2.76,0-5-2.24-5-5v-17.2c0-2.76,2.24-5,5-5s5,2.24,5,5v17.2c0,2.76-2.24,5-5,5Z"/>
          </g>
          <g>
            <path d="M347.07,447.58h-24.29c-6.86,0-12.44-5.58-12.44-12.44v-15.67c0-2.76,2.24-5,5-5s5,2.24,5,5v15.67c0,1.35,1.1,2.44,2.44,2.44h24.29c1.13,0,2.05-.92,2.05-2.05v-16.06c0-2.76,2.24-5,5-5s5,2.24,5,5v16.06c0,6.64-5.41,12.05-12.05,12.05Z"/>
            <path d="M334.73,466.38c-2.76,0-5-2.24-5-5v-17.2c0-2.76,2.24-5,5-5s5,2.24,5,5v17.2c0,2.76-2.24,5-5,5Z"/>
          </g>
          <g>
            <path d="M410.13,447.58h-24.29c-6.86,0-12.44-5.58-12.44-12.44v-15.67c0-2.76,2.24-5,5-5s5,2.24,5,5v15.67c0,1.35,1.1,2.44,2.44,2.44h24.29c1.13,0,2.05-.92,2.05-2.05v-16.06c0-2.76,2.24-5,5-5s5,2.24,5,5v16.06c0,6.64-5.41,12.05-12.05,12.05Z"/>
            <path d="M397.79,466.38c-2.76,0-5-2.24-5-5v-17.2c0-2.76,2.24-5,5-5s5,2.24,5,5v17.2c0,2.76-2.24,5-5,5Z"/>
          </g>
          <g>
            <path d="M480.44,376.41h-15.67c-2.76,0-5-2.24-5-5s2.24-5,5-5h15.67c1.35,0,2.44-1.1,2.44-2.44v-24.28c0-1.13-.92-2.05-2.05-2.05h-16.06c-2.76,0-5-2.24-5-5s2.24-5,5-5h16.06c6.64,0,12.05,5.41,12.05,12.05v24.28c0,6.86-5.58,12.44-12.44,12.44Z"/>
            <path d="M506.68,357.02h-17.2c-2.76,0-5-2.24-5-5s2.24-5,5-5h17.2c2.76,0,5,2.24,5,5s-2.24,5-5,5Z"/>
          </g>
          <g>
            <path d="M480.44,312.76h-15.67c-2.76,0-5-2.24-5-5s2.24-5,5-5h15.67c1.35,0,2.44-1.1,2.44-2.44v-24.28c0-1.13-.92-2.05-2.05-2.05h-16.06c-2.76,0-5-2.24-5-5s2.24-5,5-5h16.06c6.64,0,12.05,5.41,12.05,12.05v24.28c0,6.86-5.58,12.44-12.44,12.44Z"/>
            <path d="M506.68,293.37h-17.2c-2.76,0-5-2.24-5-5s2.24-5,5-5h17.2c2.76,0,5,2.24,5,5s-2.24,5-5,5Z"/>
          </g>
          <g>
            <path d="M480.04,249.11h-15.67c-2.76,0-5-2.24-5-5s2.24-5,5-5h15.67c1.35,0,2.44-1.1,2.44-2.44v-24.28c0-1.13-.92-2.05-2.05-2.05h-16.06c-2.76,0-5-2.24-5-5s2.24-5,5-5h16.06c6.64,0,12.05,5.41,12.05,12.05v24.28c0,6.86-5.58,12.44-12.44,12.44Z"/>
            <path d="M506.29,229.72h-17.2c-2.76,0-5-2.24-5-5s2.24-5,5-5h17.2c2.76,0,5,2.24,5,5s-2.24,5-5,5Z"/>
          </g>
          <g>
            <path d="M417.18,162.27c-2.76,0-5-2.24-5-5v-16.06c0-1.13-.92-2.05-2.05-2.05h-24.29c-1.35,0-2.44,1.1-2.44,2.44v15.67c0,2.76-2.24,5-5,5s-5-2.24-5-5v-15.67c0-6.86,5.58-12.44,12.44-12.44h24.29c6.64,0,12.05,5.41,12.05,12.05v16.06c0,2.76-2.24,5-5,5Z"/>
            <path d="M397.79,137.56c-2.76,0-5-2.24-5-5v-17.2c0-2.76,2.24-5,5-5s5,2.24,5,5v17.2c0,2.76-2.24,5-5,5Z"/>
          </g>
          <g>
            <path d="M354.12,162.27c-2.76,0-5-2.24-5-5v-16.06c0-1.13-.92-2.05-2.05-2.05h-24.29c-1.35,0-2.44,1.1-2.44,2.44v15.67c0,2.76-2.24,5-5,5s-5-2.24-5-5v-15.67c0-6.86,5.58-12.44,12.44-12.44h24.29c6.64,0,12.05,5.41,12.05,12.05v16.06c0,2.76-2.24,5-5,5Z"/>
            <path d="M334.73,137.56c-2.76,0-5-2.24-5-5v-17.2c0-2.76,2.24-5,5-5s5,2.24,5,5v17.2c0,2.76-2.24,5-5,5Z"/>
          </g>
          <g>
            <path d="M289.29,162.27c-2.76,0-5-2.24-5-5v-16.06c0-1.13-.92-2.05-2.05-2.05h-24.28c-1.35,0-2.44,1.1-2.44,2.44v15.67c0,2.76-2.24,5-5,5s-5-2.24-5-5v-15.67c0-6.86,5.58-12.44,12.44-12.44h24.28c6.64,0,12.05,5.41,12.05,12.05v16.06c0,2.76-2.24,5-5,5Z"/>
            <path d="M269.9,137.56c-2.76,0-5-2.24-5-5v-17.2c0-2.76,2.24-5,5-5s5,2.24,5,5v17.2c0,2.76-2.24,5-5,5Z"/>
          </g>
          <path class="cls-1" d="M433.2,420.72H233.9l-33.14-33.14V189.11l33.14-33.09h199.2l32.5,32.5v199.79l-32.4,32.4Zm-195.16-10h191.02l26.55-26.55V192.67l-26.64-26.64H238.04l-27.28,27.23v190.18l27.28,27.28Z"/>
          <path d="M423.38,397.36H241.58l-18.56-19.02V196.25l18.75-16.87h180.51l21.11,19.28-2.8,179.18-17.21,19.53Zm-177.59-10h173.07l11.78-13.37,2.68-170.99-14.92-13.62H245.6l-12.59,11.33v173.56l12.77,13.09Z"/>
          <path class="cls-1" d="M342.51,329.27c-3.67,0-7.73-.45-12.21-1.47-33.98-7.79-33.03-39-32.46-57.64,.11-3.51,.2-6.54,.06-8.93-.34-5.96-3.22-13.06-4.9-16.76-1.11-2.43-.96-5.25,.39-7.54,1.35-2.29,3.74-3.78,6.39-3.99h0c14.9-1.17,34.38-1.78,42.54,2.03,10.79,5.03,29.79,16.98,35.92,40.39,3.39,12.97,.96,32.15-10.26,43.71-4.86,5.01-12.93,10.2-25.47,10.2Zm-39.36-86.56c2.15,5.11,4.39,11.75,4.74,17.95,.16,2.83,.06,6.22-.05,9.81-.7,22.78,.68,42.08,24.7,47.59,12.21,2.8,21.72,.8,28.27-5.95,8.55-8.81,10.38-24.21,7.76-34.21-5.09-19.46-21.28-29.57-30.47-33.86-4.4-2.05-17.67-2.54-34.94-1.32Zm-2.57,.19h0Zm-.4-4.98h0Z"/>
          <path class="cls-1" d="M348.42,348.39c-2.7,0-4.92-2.15-5-4.86-.36-13.08-1.21-34.18-2.07-38.66-.95-4.99-6.8-26.37-9.75-36.97-.74-2.66,.81-5.42,3.47-6.16,2.66-.74,5.42,.81,6.16,3.47,.35,1.27,8.68,31.15,9.94,37.78,1.28,6.71,2.15,36.85,2.25,40.26,.08,2.76-2.1,5.06-4.86,5.14-.05,0-.09,0-.14,0Z"/>
          <path d="M344.46,218.05h-40.68c-2.76,0-5-2.24-5-5s2.24-5,5-5h36.59l27.77-27.24c1.97-1.93,5.14-1.9,7.07,.07,1.93,1.97,1.9,5.14-.07,7.07l-30.69,30.11Z"/>
          <path d="M401.61,245.37c-2.76,0-5-2.24-5-5v-32.32h39.67c2.76,0,5,2.24,5,5s-2.24,5-5,5h-29.67v22.32c0,2.76-2.24,5-5,5Z"/>
          <path d="M435.68,376.41c-1.35,0-2.7-.54-3.68-1.62l-24.52-26.71v-29.56c0-2.76,2.24-5,5-5s5,2.24,5,5v25.67l21.89,23.85c1.87,2.03,1.73,5.2-.3,7.06-.96,.88-2.17,1.32-3.38,1.32Z"/>
          <path d="M378.4,394.9c-2.76,0-5-2.24-5-5v-21.15h-41.42c-2.76,0-5-2.24-5-5s2.24-5,5-5h51.42v31.15c0,2.76-2.24,5-5,5Z"/>
          <path d="M265.89,344.96h-34.37c-2.76,0-5-2.24-5-5s2.24-5,5-5h34.37c2.76,0,5,2.24,5,5s-2.24,5-5,5Z"/>
          <path d="M261.48,292.37c-2.76,0-5-2.24-5-5v-25.53l-28.48-28.2c-1.96-1.94-1.98-5.11-.04-7.07,1.94-1.96,5.11-1.98,7.07-.04l31.45,31.14v29.7c0,2.76-2.24,5-5,5Z"/>
        </g>
      </g>
    </g>
  </g>
</svg>